G04 (created by PCBNEW (2013-07-07 BZR 4022)-stable) date 10/29/2014 9:54:54 AM*
%MOIN*%
G04 Gerber Fmt 3.4, Leading zero omitted, Abs format*
%FSLAX34Y34*%
G01*
G70*
G90*
G04 APERTURE LIST*
%ADD10C,0.00590551*%
%ADD11C,0.07*%
%ADD12C,0.05*%
%ADD13O,0.06X0.1*%
%ADD14C,0.04*%
G04 APERTURE END LIST*
G54D10*
%LPC*%
G54D11*
X81030Y-49430D03*
G54D12*
X78133Y-44359D03*
X78133Y-46280D03*
G54D11*
X98038Y-52456D03*
X98038Y-51078D03*
X98038Y-49700D03*
X98038Y-48322D03*
X75400Y-53637D03*
X76407Y-53641D03*
X91670Y-47075D03*
X88960Y-45990D03*
X87741Y-47111D03*
X87923Y-51545D03*
X86633Y-46013D03*
G54D13*
X89170Y-40364D03*
X88170Y-40364D03*
X87170Y-40364D03*
X86170Y-40364D03*
X85170Y-40364D03*
X84170Y-40364D03*
X83170Y-40364D03*
X82170Y-40364D03*
X86770Y-59364D03*
X85770Y-59364D03*
X84770Y-59364D03*
X83770Y-59364D03*
X87770Y-59364D03*
X88770Y-59364D03*
X89770Y-59364D03*
X90770Y-59364D03*
X92770Y-59364D03*
X93770Y-59364D03*
X94770Y-59364D03*
X95770Y-59364D03*
X96770Y-59364D03*
X97770Y-59364D03*
X97770Y-40364D03*
X96770Y-40364D03*
X95770Y-40364D03*
X94770Y-40364D03*
X93770Y-40364D03*
X92770Y-40364D03*
X91770Y-40364D03*
X90770Y-40364D03*
G54D14*
X91762Y-44114D03*
X90738Y-44114D03*
X89715Y-44114D03*
X87682Y-44095D03*
X86658Y-44095D03*
X85635Y-44095D03*
M02*
