G04 (created by PCBNEW (2013-07-07 BZR 4022)-stable) date 10/29/2014 9:54:54 AM*
%MOIN*%
G04 Gerber Fmt 3.4, Leading zero omitted, Abs format*
%FSLAX34Y34*%
G01*
G70*
G90*
G04 APERTURE LIST*
%ADD10C,0.00590551*%
%ADD11R,0.06X0.08*%
%ADD12R,0.055X0.035*%
%ADD13R,0.035X0.055*%
%ADD14C,0.07*%
%ADD15R,0.011811X0.0984252*%
%ADD16C,0.05*%
%ADD17R,0.0866X0.063*%
%ADD18R,0.063X0.0866*%
%ADD19R,0.05X0.025*%
%ADD20R,0.12X0.065*%
%ADD21R,0.24X0.24*%
%ADD22O,0.06X0.1*%
%ADD23C,0.04*%
%ADD24C,0.035*%
%ADD25C,0.01*%
%ADD26C,0.024*%
G04 APERTURE END LIST*
G54D10*
G54D11*
X81810Y-48370D03*
X83110Y-48370D03*
G54D12*
X94832Y-43997D03*
X94832Y-43247D03*
G54D13*
X79305Y-50525D03*
X80055Y-50525D03*
G54D12*
X78450Y-49275D03*
X78450Y-48525D03*
G54D13*
X79295Y-48595D03*
X80045Y-48595D03*
X74487Y-44202D03*
X75237Y-44202D03*
X74300Y-46240D03*
X75050Y-46240D03*
X79305Y-49619D03*
X80055Y-49619D03*
G54D12*
X82866Y-45399D03*
X82866Y-44649D03*
G54D13*
X82485Y-46964D03*
X83235Y-46964D03*
G54D12*
X93830Y-48410D03*
X93830Y-49160D03*
G54D13*
X94690Y-49120D03*
X95440Y-49120D03*
G54D12*
X84694Y-47195D03*
X84694Y-46445D03*
G54D13*
X95473Y-47470D03*
X94723Y-47470D03*
G54D12*
X93789Y-44016D03*
X93789Y-43266D03*
G54D13*
X94634Y-46476D03*
X95384Y-46476D03*
G54D12*
X92736Y-46711D03*
X92736Y-47461D03*
X93759Y-44861D03*
X93759Y-45611D03*
X94842Y-45611D03*
X94842Y-44861D03*
G54D13*
X89841Y-46564D03*
X90591Y-46564D03*
G54D12*
X85698Y-47195D03*
X85698Y-46445D03*
G54D13*
X82845Y-41790D03*
X82095Y-41790D03*
X73510Y-49190D03*
X74260Y-49190D03*
G54D12*
X84793Y-41725D03*
X84793Y-42475D03*
X85720Y-41705D03*
X85720Y-42455D03*
X89373Y-41595D03*
X89373Y-42345D03*
X94047Y-57775D03*
X94047Y-57025D03*
G54D13*
X91232Y-42007D03*
X90482Y-42007D03*
X93272Y-41710D03*
X92522Y-41710D03*
G54D14*
X81030Y-49430D03*
G54D15*
X79575Y-46809D03*
X79831Y-46809D03*
X80087Y-46809D03*
X80343Y-46809D03*
X80599Y-46809D03*
X80855Y-46809D03*
X81111Y-46809D03*
X81366Y-46809D03*
X81622Y-46809D03*
X81878Y-46809D03*
X81859Y-43757D03*
X81603Y-43757D03*
X81347Y-43757D03*
X81091Y-43757D03*
X80835Y-43757D03*
X80579Y-43757D03*
X80323Y-43757D03*
X80067Y-43757D03*
X79811Y-43757D03*
X79555Y-43757D03*
G54D16*
X78133Y-44359D03*
X78133Y-46280D03*
G54D14*
X98038Y-52456D03*
X98038Y-51078D03*
X98038Y-49700D03*
X98038Y-48322D03*
X75400Y-53637D03*
X76407Y-53641D03*
G54D17*
X86958Y-50373D03*
X86958Y-48877D03*
G54D18*
X97736Y-45580D03*
X96240Y-45580D03*
X96122Y-43248D03*
X97618Y-43248D03*
G54D17*
X76185Y-50668D03*
X76185Y-49172D03*
X95753Y-56071D03*
X95753Y-54575D03*
G54D19*
X91302Y-50920D03*
X91302Y-50420D03*
X91302Y-49920D03*
X91302Y-49420D03*
X91302Y-48920D03*
X91302Y-48420D03*
X91302Y-47920D03*
X89102Y-47920D03*
X89102Y-48420D03*
X89102Y-48920D03*
X89102Y-49420D03*
X89102Y-49920D03*
X89102Y-50420D03*
X89102Y-50920D03*
G54D20*
X92304Y-56965D03*
G54D21*
X89804Y-56065D03*
G54D20*
X92304Y-55165D03*
G54D12*
X92820Y-48375D03*
X92820Y-49125D03*
X96185Y-48310D03*
X96185Y-49060D03*
G54D14*
X91670Y-47075D03*
X88960Y-45990D03*
X87741Y-47111D03*
X87923Y-51545D03*
X86633Y-46013D03*
G54D22*
X89170Y-40364D03*
X88170Y-40364D03*
X87170Y-40364D03*
X86170Y-40364D03*
X85170Y-40364D03*
X84170Y-40364D03*
X83170Y-40364D03*
X82170Y-40364D03*
X86770Y-59364D03*
X85770Y-59364D03*
X84770Y-59364D03*
X83770Y-59364D03*
X87770Y-59364D03*
X88770Y-59364D03*
X89770Y-59364D03*
X90770Y-59364D03*
X92770Y-59364D03*
X93770Y-59364D03*
X94770Y-59364D03*
X95770Y-59364D03*
X96770Y-59364D03*
X97770Y-59364D03*
X97770Y-40364D03*
X96770Y-40364D03*
X95770Y-40364D03*
X94770Y-40364D03*
X93770Y-40364D03*
X92770Y-40364D03*
X91770Y-40364D03*
X90770Y-40364D03*
G54D13*
X88155Y-45970D03*
X87405Y-45970D03*
X92054Y-46053D03*
X91304Y-46053D03*
G54D23*
X91762Y-44114D03*
X90738Y-44114D03*
X89715Y-44114D03*
X87682Y-44095D03*
X86658Y-44095D03*
X85635Y-44095D03*
G54D24*
X92071Y-45353D03*
X90009Y-50580D03*
X85060Y-45810D03*
X93799Y-42736D03*
X94163Y-47450D03*
X91990Y-50450D03*
X78728Y-46532D03*
X92229Y-41135D03*
X89760Y-48430D03*
X96138Y-49574D03*
X78420Y-49940D03*
X74250Y-45300D03*
X92780Y-49630D03*
X88550Y-49410D03*
X82200Y-44050D03*
X81970Y-47670D03*
X81210Y-47670D03*
X83110Y-47610D03*
X73816Y-48330D03*
X88238Y-47864D03*
X88228Y-48759D03*
X93430Y-55180D03*
G54D25*
X94047Y-57775D02*
X96926Y-57775D01*
X97750Y-58599D02*
X97750Y-59400D01*
X96926Y-57775D02*
X97750Y-58599D01*
X84793Y-41725D02*
X84793Y-41413D01*
X85150Y-41056D02*
X85150Y-40400D01*
X84793Y-41413D02*
X85150Y-41056D01*
X85720Y-41705D02*
X85720Y-41550D01*
X86150Y-41120D02*
X86150Y-40400D01*
X85720Y-41550D02*
X86150Y-41120D01*
X82845Y-41790D02*
X83341Y-41790D01*
X84150Y-40981D02*
X84150Y-40400D01*
X83341Y-41790D02*
X84150Y-40981D01*
X84150Y-40750D02*
X84150Y-40400D01*
G54D26*
X95753Y-54575D02*
X95753Y-53393D01*
X95753Y-53393D02*
X95532Y-53172D01*
X87750Y-59400D02*
X87750Y-54499D01*
X95944Y-53172D02*
X98038Y-51078D01*
X89077Y-53172D02*
X95532Y-53172D01*
X95532Y-53172D02*
X95944Y-53172D01*
X87750Y-54499D02*
X89077Y-53172D01*
G54D25*
X89373Y-41595D02*
X89637Y-41595D01*
X90750Y-40482D02*
X90750Y-40400D01*
X89637Y-41595D02*
X90750Y-40482D01*
X91750Y-40400D02*
X91750Y-41489D01*
X91750Y-41489D02*
X91232Y-42007D01*
X92750Y-40400D02*
X92750Y-41188D01*
X92750Y-41188D02*
X93272Y-41710D01*
X79295Y-48595D02*
X78520Y-48595D01*
X78520Y-48595D02*
X78450Y-48525D01*
X79831Y-46809D02*
X79831Y-45930D01*
X82380Y-45885D02*
X82866Y-45399D01*
X79877Y-45885D02*
X82380Y-45885D01*
X79831Y-45930D02*
X79877Y-45885D01*
X79831Y-46809D02*
X79831Y-47372D01*
X79295Y-47908D02*
X79295Y-48595D01*
X79831Y-47372D02*
X79295Y-47908D01*
X81030Y-49430D02*
X84260Y-49430D01*
X84812Y-48877D02*
X86958Y-48877D01*
X84260Y-49430D02*
X84812Y-48877D01*
X89102Y-50420D02*
X88490Y-50420D01*
X88490Y-50420D02*
X86958Y-48887D01*
X86958Y-48887D02*
X86958Y-48877D01*
X84694Y-47195D02*
X85698Y-47195D01*
X85698Y-47195D02*
X85768Y-47195D01*
X85768Y-47195D02*
X86958Y-48385D01*
X86958Y-48385D02*
X86958Y-48877D01*
X80343Y-46809D02*
X80343Y-47523D01*
X80343Y-47523D02*
X81030Y-48210D01*
X81030Y-48210D02*
X81030Y-49430D01*
X84180Y-42639D02*
X79659Y-42639D01*
X79811Y-44528D02*
X79770Y-44570D01*
X79811Y-44528D02*
X79811Y-43757D01*
X79130Y-44570D02*
X79770Y-44570D01*
X79110Y-44550D02*
X79130Y-44570D01*
X79110Y-43189D02*
X79110Y-44550D01*
X79659Y-42639D02*
X79110Y-43189D01*
X84015Y-42639D02*
X84180Y-42639D01*
X84180Y-42639D02*
X84628Y-42639D01*
X84628Y-42639D02*
X84793Y-42475D01*
X79555Y-43757D02*
X79555Y-43204D01*
X85335Y-42839D02*
X85720Y-42455D01*
X79920Y-42839D02*
X85335Y-42839D01*
X79555Y-43204D02*
X79920Y-42839D01*
X80358Y-45418D02*
X78411Y-45418D01*
X78133Y-45696D02*
X78133Y-46280D01*
X78411Y-45418D02*
X78133Y-45696D01*
X76842Y-46240D02*
X78093Y-46240D01*
X78093Y-46240D02*
X78133Y-46280D01*
X75050Y-46240D02*
X76842Y-46240D01*
X80835Y-43757D02*
X80835Y-44942D01*
X80835Y-44942D02*
X80358Y-45418D01*
X80358Y-45418D02*
X80344Y-45433D01*
X80049Y-45098D02*
X78451Y-45098D01*
X80049Y-45098D02*
X80579Y-44568D01*
X80579Y-43757D02*
X80579Y-44568D01*
X78270Y-44495D02*
X78133Y-44359D01*
X78270Y-44916D02*
X78270Y-44495D01*
X78451Y-45098D02*
X78270Y-44916D01*
X75237Y-44202D02*
X77977Y-44202D01*
X77977Y-44202D02*
X78133Y-44359D01*
X82485Y-46964D02*
X82485Y-47695D01*
X82485Y-47695D02*
X81810Y-48370D01*
X81622Y-46809D02*
X81622Y-48182D01*
X81622Y-48182D02*
X81810Y-48370D01*
X81475Y-42410D02*
X79570Y-42410D01*
X80067Y-44712D02*
X79950Y-44830D01*
X80067Y-43757D02*
X80067Y-44712D01*
X81475Y-42410D02*
X82095Y-41790D01*
X79881Y-44898D02*
X79950Y-44830D01*
X78800Y-44898D02*
X79881Y-44898D01*
X78790Y-44888D02*
X78800Y-44898D01*
X78790Y-43190D02*
X78790Y-44888D01*
X79570Y-42410D02*
X78790Y-43190D01*
G54D26*
X80055Y-50525D02*
X80055Y-52095D01*
X80055Y-52095D02*
X80205Y-52245D01*
X76185Y-50668D02*
X76185Y-50775D01*
X76185Y-50775D02*
X77729Y-52319D01*
X90575Y-51600D02*
X90575Y-52030D01*
X90575Y-52030D02*
X90360Y-52245D01*
X90360Y-52245D02*
X80205Y-52245D01*
X77804Y-52245D02*
X77729Y-52319D01*
X80205Y-52245D02*
X77804Y-52245D01*
X77729Y-52319D02*
X76407Y-53641D01*
X80055Y-49619D02*
X80055Y-50525D01*
X80045Y-48595D02*
X80045Y-49609D01*
X80045Y-49609D02*
X80055Y-49619D01*
G54D25*
X80087Y-46809D02*
X80087Y-48554D01*
X80087Y-48554D02*
X80045Y-48595D01*
G54D26*
X91302Y-49420D02*
X90555Y-49420D01*
X90575Y-49440D02*
X90575Y-51600D01*
X90575Y-51600D02*
X90575Y-51670D01*
X90555Y-49420D02*
X90575Y-49440D01*
X93830Y-48410D02*
X92855Y-48410D01*
X92855Y-48410D02*
X92820Y-48375D01*
X92820Y-48375D02*
X92220Y-48375D01*
X91835Y-49420D02*
X91302Y-49420D01*
X91980Y-49275D02*
X91835Y-49420D01*
X91980Y-48615D02*
X91980Y-49275D01*
X92220Y-48375D02*
X91980Y-48615D01*
X93830Y-48410D02*
X96085Y-48410D01*
X96085Y-48410D02*
X96185Y-48310D01*
X92054Y-46053D02*
X92054Y-45370D01*
X92054Y-45370D02*
X92071Y-45353D01*
X91302Y-48920D02*
X90382Y-48920D01*
X90000Y-50571D02*
X90009Y-50580D01*
X90000Y-49302D02*
X90000Y-50571D01*
X90382Y-48920D02*
X90000Y-49302D01*
G54D25*
X80599Y-46809D02*
X80599Y-46165D01*
X84356Y-46107D02*
X84694Y-46445D01*
X80657Y-46107D02*
X84356Y-46107D01*
X80599Y-46165D02*
X80657Y-46107D01*
G54D26*
X85698Y-46445D02*
X85695Y-46445D01*
X84694Y-46175D02*
X85060Y-45810D01*
X84694Y-46175D02*
X84694Y-46445D01*
X85695Y-46445D02*
X85060Y-45810D01*
X93789Y-43266D02*
X93789Y-42746D01*
X93789Y-42746D02*
X93799Y-42736D01*
X93789Y-43266D02*
X94812Y-43266D01*
X94812Y-43266D02*
X94832Y-43247D01*
X94723Y-47470D02*
X94183Y-47470D01*
X94183Y-47470D02*
X94163Y-47450D01*
X91302Y-50920D02*
X91850Y-50920D01*
X91960Y-50420D02*
X91990Y-50450D01*
X91960Y-50420D02*
X91302Y-50420D01*
X91990Y-50780D02*
X91990Y-50450D01*
X91850Y-50920D02*
X91990Y-50780D01*
G54D25*
X86425Y-43040D02*
X88396Y-43040D01*
X89091Y-42345D02*
X89373Y-42345D01*
X88396Y-43040D02*
X89091Y-42345D01*
X80323Y-43757D02*
X80323Y-43166D01*
X80450Y-43040D02*
X83440Y-43040D01*
X83440Y-43040D02*
X86425Y-43040D01*
X86425Y-43040D02*
X86585Y-43040D01*
X80323Y-43166D02*
X80450Y-43040D01*
X82200Y-44650D02*
X82835Y-44650D01*
X81091Y-43757D02*
X81091Y-44608D01*
X81132Y-44650D02*
X82200Y-44650D01*
X81091Y-44608D02*
X81132Y-44650D01*
X90482Y-42007D02*
X90482Y-42419D01*
X82883Y-44324D02*
X82883Y-44698D01*
X83643Y-43565D02*
X82883Y-44324D01*
X89336Y-43565D02*
X83643Y-43565D01*
X90482Y-42419D02*
X89336Y-43565D01*
X79005Y-46809D02*
X78728Y-46532D01*
X79005Y-46809D02*
X79575Y-46809D01*
X92522Y-41428D02*
X92229Y-41135D01*
X92522Y-41428D02*
X92522Y-41710D01*
X87405Y-45970D02*
X86677Y-45970D01*
X86677Y-45970D02*
X86633Y-46013D01*
X85562Y-44064D02*
X85562Y-44382D01*
X86633Y-45453D02*
X86633Y-46013D01*
X85562Y-44382D02*
X86633Y-45453D01*
X86968Y-47598D02*
X87381Y-47598D01*
X86968Y-47598D02*
X86633Y-47263D01*
X86633Y-46013D02*
X86633Y-47263D01*
X88666Y-48420D02*
X89102Y-48420D01*
X88203Y-48420D02*
X88666Y-48420D01*
X87381Y-47598D02*
X88203Y-48420D01*
X89102Y-48420D02*
X89750Y-48420D01*
X89750Y-48420D02*
X89760Y-48430D01*
X96240Y-45580D02*
X96240Y-45621D01*
X96240Y-45621D02*
X95384Y-46476D01*
X96122Y-43248D02*
X96122Y-45462D01*
X96122Y-45462D02*
X96240Y-45580D01*
X94842Y-45611D02*
X93759Y-45611D01*
X94832Y-43997D02*
X94832Y-44851D01*
X94832Y-44851D02*
X94842Y-44861D01*
X93789Y-44016D02*
X94812Y-44016D01*
X94812Y-44016D02*
X94832Y-43997D01*
X87923Y-51545D02*
X87618Y-51545D01*
X86958Y-50885D02*
X86958Y-50373D01*
X87618Y-51545D02*
X86958Y-50885D01*
X87923Y-51545D02*
X88476Y-51545D01*
X88476Y-51545D02*
X89102Y-50920D01*
X93830Y-49160D02*
X94650Y-49160D01*
X94650Y-49160D02*
X94690Y-49120D01*
X92360Y-49995D02*
X91377Y-49995D01*
X92360Y-49995D02*
X93710Y-49995D01*
X93710Y-49995D02*
X93830Y-49875D01*
X93830Y-49160D02*
X93830Y-49875D01*
X91377Y-49995D02*
X91302Y-49920D01*
X94740Y-49285D02*
X94805Y-49220D01*
X97736Y-45580D02*
X97736Y-43366D01*
X97736Y-43366D02*
X97618Y-43248D01*
X95473Y-47470D02*
X97401Y-47470D01*
X97736Y-47135D02*
X97736Y-45580D01*
X97401Y-47470D02*
X97736Y-47135D01*
X92736Y-47461D02*
X92736Y-47568D01*
X95473Y-47961D02*
X95473Y-47470D01*
X95452Y-47982D02*
X95473Y-47961D01*
X93149Y-47982D02*
X95452Y-47982D01*
X92736Y-47568D02*
X93149Y-47982D01*
X92086Y-47972D02*
X92086Y-47775D01*
X91639Y-48420D02*
X92086Y-47972D01*
X91302Y-48420D02*
X91639Y-48420D01*
X92400Y-47461D02*
X92736Y-47461D01*
X92086Y-47775D02*
X92400Y-47461D01*
X91670Y-47075D02*
X92372Y-47075D01*
X92372Y-47075D02*
X92736Y-46711D01*
X90591Y-46564D02*
X90776Y-46564D01*
X91287Y-47075D02*
X91670Y-47075D01*
X90776Y-46564D02*
X91287Y-47075D01*
X90639Y-46515D02*
X90591Y-46564D01*
X92736Y-46711D02*
X93985Y-46711D01*
X93985Y-46711D02*
X94220Y-46476D01*
X94220Y-46476D02*
X94634Y-46476D01*
X93759Y-44861D02*
X93089Y-44861D01*
X93089Y-44861D02*
X92736Y-45214D01*
X92736Y-45214D02*
X92736Y-46711D01*
X90591Y-46564D02*
X90591Y-47419D01*
X91302Y-47920D02*
X91302Y-47478D01*
X90591Y-47419D02*
X90650Y-47478D01*
X91290Y-47478D02*
X91302Y-47478D01*
X90650Y-47478D02*
X91290Y-47478D01*
X76185Y-49172D02*
X74278Y-49172D01*
X74278Y-49172D02*
X74260Y-49190D01*
G54D26*
X95753Y-56071D02*
X89810Y-56071D01*
X89810Y-56071D02*
X89804Y-56065D01*
X98038Y-52456D02*
X98038Y-54984D01*
X96952Y-56071D02*
X95753Y-56071D01*
X98038Y-54984D02*
X96952Y-56071D01*
G54D25*
X91617Y-44220D02*
X91669Y-44220D01*
X91669Y-44220D02*
X91793Y-44096D01*
X90790Y-45040D02*
X90797Y-45040D01*
X90439Y-45390D02*
X90790Y-45040D01*
X90797Y-45040D02*
X91617Y-44220D01*
X91617Y-44220D02*
X91638Y-44199D01*
X91304Y-46053D02*
X91102Y-46053D01*
X91102Y-46053D02*
X90439Y-45390D01*
X91259Y-46179D02*
X91228Y-46179D01*
X89841Y-46564D02*
X89841Y-45989D01*
X89841Y-45989D02*
X90439Y-45390D01*
X89102Y-48920D02*
X89731Y-48920D01*
X89841Y-47360D02*
X89841Y-46564D01*
X90118Y-47637D02*
X89841Y-47360D01*
X90118Y-48533D02*
X90118Y-47637D01*
X89731Y-48920D02*
X90118Y-48533D01*
X88960Y-45990D02*
X89267Y-45990D01*
X89267Y-45990D02*
X89841Y-46564D01*
X89731Y-46454D02*
X89841Y-46564D01*
X96185Y-49060D02*
X96185Y-49527D01*
X96185Y-49527D02*
X96138Y-49574D01*
G54D26*
X79305Y-49980D02*
X78460Y-49980D01*
X78450Y-49909D02*
X78450Y-49275D01*
X78450Y-49909D02*
X78420Y-49940D01*
X78460Y-49980D02*
X78420Y-49940D01*
X79305Y-49619D02*
X79305Y-49980D01*
X79305Y-49980D02*
X79305Y-50525D01*
X74487Y-44202D02*
X74487Y-45062D01*
X74300Y-45350D02*
X74250Y-45300D01*
X74300Y-45350D02*
X74300Y-46240D01*
X74487Y-45062D02*
X74250Y-45300D01*
X92820Y-49125D02*
X92820Y-49590D01*
X92820Y-49590D02*
X92780Y-49630D01*
X95440Y-49120D02*
X96125Y-49120D01*
X96125Y-49120D02*
X96185Y-49060D01*
X89102Y-49420D02*
X88560Y-49420D01*
X88560Y-49420D02*
X88550Y-49410D01*
G54D25*
X81859Y-43757D02*
X81907Y-43757D01*
X81907Y-43757D02*
X82200Y-44050D01*
X81878Y-46809D02*
X81878Y-47578D01*
X81878Y-47578D02*
X81970Y-47670D01*
X81366Y-46809D02*
X81366Y-47513D01*
X81366Y-47513D02*
X81210Y-47670D01*
X83110Y-48370D02*
X83110Y-47610D01*
X83235Y-47485D02*
X83110Y-47610D01*
X83235Y-47485D02*
X83235Y-46964D01*
G54D26*
X73510Y-49190D02*
X73510Y-48636D01*
X73510Y-48636D02*
X73816Y-48330D01*
G54D25*
X87741Y-47111D02*
X87741Y-47366D01*
X87741Y-47366D02*
X88238Y-47864D01*
X88155Y-45970D02*
X88155Y-46697D01*
X88155Y-46697D02*
X87741Y-47111D01*
X86585Y-44064D02*
X86697Y-44064D01*
X88155Y-45522D02*
X88155Y-45970D01*
X86697Y-44064D02*
X88155Y-45522D01*
X89102Y-47920D02*
X88294Y-47920D01*
X88294Y-47920D02*
X88238Y-47864D01*
X88542Y-49920D02*
X89102Y-49920D01*
X88208Y-49586D02*
X88542Y-49920D01*
X88208Y-48779D02*
X88208Y-49586D01*
X88228Y-48759D02*
X88208Y-48779D01*
G54D26*
X92304Y-55165D02*
X93415Y-55165D01*
X93415Y-55165D02*
X93430Y-55180D01*
G54D25*
X88750Y-59400D02*
X88750Y-58950D01*
X92304Y-56965D02*
X93987Y-56965D01*
X93987Y-56965D02*
X94047Y-57025D01*
M02*
