M48
;DRILL file {Pcbnew (2013-07-07 BZR 4022)-stable} date 10/29/2014 9:54:58 AM
;FORMAT={-:-/ absolute / inch / decimal}
FMAT,2
INCH,TZ
T1C0.013
T2C0.025
T3C0.035
T4C0.039
T5C0.039
T6C0.040
%
G90
G05
M72
T1
X7.3816Y-4.833
X7.425Y-4.53
X7.842Y-4.994
X7.8728Y-4.6532
X8.121Y-4.767
X8.197Y-4.767
X8.22Y-4.405
X8.311Y-4.761
X8.506Y-4.581
X8.8228Y-4.876
X8.8238Y-4.7864
X8.855Y-4.941
X8.976Y-4.843
X9.0009Y-5.058
X9.199Y-5.045
X9.2071Y-4.5353
X9.2229Y-4.1135
X9.278Y-4.963
X9.343Y-5.518
X9.3799Y-4.2736
X9.4163Y-4.7451
X9.6138Y-4.9574
T2
X8.5635Y-4.4095
X8.6659Y-4.4095
X8.7682Y-4.4095
X8.9715Y-4.4114
X9.0739Y-4.4114
X9.1762Y-4.4114
T3
X7.8134Y-4.4359
X7.8134Y-4.628
T4
X9.8039Y-4.8322
T5
X9.8039Y-4.97
X9.8039Y-5.1078
X9.8039Y-5.2456
T6
X7.54Y-5.3638
X7.6408Y-5.3642
X8.103Y-4.943
X8.217Y-4.0364
X8.317Y-4.0364
X8.377Y-5.9364
X8.417Y-4.0364
X8.477Y-5.9364
X8.517Y-4.0364
X8.577Y-5.9364
X8.617Y-4.0364
X8.6634Y-4.6014
X8.677Y-5.9364
X8.717Y-4.0364
X8.7741Y-4.7111
X8.777Y-5.9364
X8.7923Y-5.1545
X8.817Y-4.0364
X8.877Y-5.9364
X8.896Y-4.599
X8.917Y-4.0364
X8.977Y-5.9364
X9.077Y-4.0364
X9.077Y-5.9364
X9.167Y-4.7075
X9.177Y-4.0364
X9.277Y-4.0364
X9.277Y-5.9364
X9.377Y-4.0364
X9.377Y-5.9364
X9.477Y-4.0364
X9.477Y-5.9364
X9.577Y-4.0364
X9.577Y-5.9364
X9.677Y-4.0364
X9.677Y-5.9364
X9.777Y-4.0364
X9.777Y-5.9364
T0
M30
