M48
;DRILL file {Pcbnew (2013-07-07 BZR 4022)-stable} date 9/19/2014 12:25:30 PM
;FORMAT={-:-/ absolute / inch / decimal}
FMAT,2
INCH,TZ
T1C0.025
T2C0.035
T3C0.039
T4C0.039
T5C0.040
%
G90
G05
M72
T1
X7.3816Y-4.833
X7.524Y-4.5376
X7.6786Y-5.1436
X7.815Y-4.95
X7.877Y-4.298
X7.911Y-4.372
X7.973Y-4.545
X8.045Y-4.47
X8.121Y-4.767
X8.197Y-4.767
X8.22Y-4.405
X8.265Y-4.112
X8.311Y-4.761
X8.312Y-4.351
X8.4442Y-4.6074
X8.5022Y-5.0352
X8.737Y-4.5772
X8.9916Y-4.9014
X9.0246Y-5.3432
X9.0616Y-4.7782
X9.064Y-4.6234
X9.21Y-5.0218
X9.3184Y-4.9056
X9.3676Y-4.6718
X9.637Y-5.823
X9.796Y-5.82
T2
X7.6876Y-4.423
X7.6876Y-4.6151
T3
X9.8039Y-4.8322
T4
X9.8039Y-4.97
X9.8039Y-5.1078
X9.8039Y-5.2456
T5
X7.54Y-5.3638
X7.581Y-4.186
X7.6408Y-5.3642
X7.706Y-4.186
X7.737Y-5.521
X7.821Y-4.181
X7.877Y-5.5245
X7.956Y-4.186
X8.103Y-4.943
X8.215Y-4.04
X8.315Y-4.04
X8.375Y-5.94
X8.415Y-4.04
X8.475Y-5.94
X8.515Y-4.04
X8.575Y-5.94
X8.615Y-4.04
X8.675Y-5.94
X8.715Y-4.04
X8.75Y-5.785
X8.775Y-5.94
X8.815Y-4.04
X8.827Y-4.78
X8.875Y-5.785
X8.875Y-5.94
X8.903Y-4.612
X8.915Y-4.04
X8.934Y-4.18
X8.975Y-5.94
X9.075Y-4.04
X9.075Y-5.94
X9.175Y-4.04
X9.275Y-4.04
X9.275Y-5.94
X9.339Y-4.176
X9.35Y-4.416
X9.375Y-4.04
X9.375Y-5.94
X9.401Y-5.5286
X9.475Y-4.04
X9.475Y-5.94
X9.575Y-4.04
X9.575Y-5.94
X9.675Y-4.04
X9.675Y-5.94
X9.775Y-4.04
X9.775Y-5.94
X9.82Y-4.65
T0
M30
