G04 (created by PCBNEW (2013-07-07 BZR 4022)-stable) date 9/23/2014 8:39:01 AM*
%MOIN*%
G04 Gerber Fmt 3.4, Leading zero omitted, Abs format*
%FSLAX34Y34*%
G01*
G70*
G90*
G04 APERTURE LIST*
%ADD10C,0.00590551*%
%ADD11R,0.06X0.08*%
%ADD12R,0.055X0.035*%
%ADD13R,0.035X0.055*%
%ADD14C,0.07*%
%ADD15R,0.011811X0.0984252*%
%ADD16C,0.05*%
%ADD17R,0.0866X0.063*%
%ADD18R,0.063X0.0866*%
%ADD19O,0.06X0.1*%
%ADD20R,0.05X0.025*%
%ADD21R,0.12X0.065*%
%ADD22R,0.24X0.24*%
G04 APERTURE END LIST*
G54D10*
G54D11*
X81810Y-48370D03*
X83110Y-48370D03*
G54D12*
X92660Y-48185D03*
X92660Y-47435D03*
G54D13*
X77455Y-52000D03*
X78205Y-52000D03*
G54D12*
X78210Y-48895D03*
X78210Y-48145D03*
G54D13*
X79505Y-48460D03*
X80255Y-48460D03*
X74445Y-46630D03*
X75195Y-46630D03*
X74595Y-43630D03*
X75345Y-43630D03*
X77445Y-51080D03*
X78195Y-51080D03*
G54D12*
X88590Y-44435D03*
X88590Y-43685D03*
G54D13*
X82485Y-46964D03*
X83235Y-46964D03*
G54D12*
X93790Y-49095D03*
X93790Y-49845D03*
X92620Y-49805D03*
X92620Y-49055D03*
X85550Y-49555D03*
X85550Y-50305D03*
X95030Y-48205D03*
X95030Y-47455D03*
X93840Y-48185D03*
X93840Y-47435D03*
X97370Y-44595D03*
X97370Y-45345D03*
X96090Y-47485D03*
X96090Y-48235D03*
X90600Y-44895D03*
X90600Y-45645D03*
X92460Y-45885D03*
X92460Y-45135D03*
X86720Y-46095D03*
X86720Y-46845D03*
G54D13*
X90275Y-46950D03*
X91025Y-46950D03*
G54D12*
X88100Y-46125D03*
X88100Y-46875D03*
X84390Y-49545D03*
X84390Y-50295D03*
G54D13*
X82845Y-41790D03*
X82095Y-41790D03*
X73510Y-49190D03*
X74260Y-49190D03*
G54D12*
X84290Y-41615D03*
X84290Y-42365D03*
X85720Y-41705D03*
X85720Y-42455D03*
X87160Y-41715D03*
X87160Y-42465D03*
X97420Y-56015D03*
X97420Y-55265D03*
G54D13*
X95375Y-41790D03*
X94625Y-41790D03*
X91475Y-41700D03*
X90725Y-41700D03*
G54D14*
X89340Y-41800D03*
X78210Y-41810D03*
X77060Y-41860D03*
X75810Y-41860D03*
X79560Y-41860D03*
X93390Y-41760D03*
X77370Y-55210D03*
X81030Y-49430D03*
X88750Y-57850D03*
X98200Y-46500D03*
X87500Y-57850D03*
X94010Y-55286D03*
X93500Y-44160D03*
X89030Y-46120D03*
X88270Y-47800D03*
X78770Y-55245D03*
G54D15*
X79575Y-46809D03*
X79831Y-46809D03*
X80087Y-46809D03*
X80343Y-46809D03*
X80599Y-46809D03*
X80855Y-46809D03*
X81111Y-46809D03*
X81366Y-46809D03*
X81622Y-46809D03*
X81878Y-46809D03*
X81859Y-43757D03*
X81603Y-43757D03*
X81347Y-43757D03*
X81091Y-43757D03*
X80835Y-43757D03*
X80579Y-43757D03*
X80323Y-43757D03*
X80067Y-43757D03*
X79811Y-43757D03*
X79555Y-43757D03*
G54D16*
X76876Y-46150D03*
X76876Y-44229D03*
G54D14*
X98038Y-52456D03*
X98038Y-51078D03*
X98038Y-49700D03*
X98038Y-48322D03*
X75400Y-53637D03*
X76407Y-53641D03*
G54D17*
X87370Y-50998D03*
X87370Y-49502D03*
G54D18*
X96288Y-46040D03*
X94792Y-46040D03*
X94712Y-43850D03*
X96208Y-43850D03*
G54D17*
X76185Y-50668D03*
X76185Y-49172D03*
G54D18*
X92652Y-53260D03*
X94148Y-53260D03*
G54D19*
X89150Y-40400D03*
X88150Y-40400D03*
X87150Y-40400D03*
X86150Y-40400D03*
X85150Y-40400D03*
X84150Y-40400D03*
X83150Y-40400D03*
X82150Y-40400D03*
X86750Y-59400D03*
X85750Y-59400D03*
X84750Y-59400D03*
X83750Y-59400D03*
X87750Y-59400D03*
X88750Y-59400D03*
X89750Y-59400D03*
X90750Y-59400D03*
X92750Y-59400D03*
X93750Y-59400D03*
X94750Y-59400D03*
X95750Y-59400D03*
X96750Y-59400D03*
X97750Y-59400D03*
X97750Y-40400D03*
X96750Y-40400D03*
X95750Y-40400D03*
X94750Y-40400D03*
X93750Y-40400D03*
X92750Y-40400D03*
X91750Y-40400D03*
X90750Y-40400D03*
G54D20*
X91480Y-50550D03*
X91480Y-50050D03*
X91480Y-49550D03*
X91480Y-49050D03*
X91480Y-48550D03*
X91480Y-48050D03*
X91480Y-47550D03*
X89280Y-47550D03*
X89280Y-48050D03*
X89280Y-48550D03*
X89280Y-49050D03*
X89280Y-49550D03*
X89280Y-50050D03*
X89280Y-50550D03*
G54D21*
X89100Y-55170D03*
G54D22*
X86600Y-54270D03*
G54D21*
X89100Y-53370D03*
M02*
