G04 (created by PCBNEW (2013-07-07 BZR 4022)-stable) date 9/19/2014 12:24:50 PM*
%MOIN*%
G04 Gerber Fmt 3.4, Leading zero omitted, Abs format*
%FSLAX34Y34*%
G01*
G70*
G90*
G04 APERTURE LIST*
%ADD10C,0.00590551*%
%ADD11C,0.005*%
%ADD12C,0.0039*%
%ADD13C,0.0043*%
%ADD14C,0.0025*%
%ADD15C,0.00984252*%
%ADD16C,0.0047*%
%ADD17C,0.0059*%
%ADD18C,0.008*%
%ADD19R,0.06X0.08*%
%ADD20R,0.055X0.035*%
%ADD21R,0.035X0.055*%
%ADD22C,0.07*%
%ADD23R,0.011811X0.0984252*%
%ADD24C,0.05*%
%ADD25R,0.0866X0.063*%
%ADD26R,0.063X0.0866*%
%ADD27O,0.06X0.1*%
%ADD28R,0.05X0.025*%
%ADD29R,0.12X0.065*%
%ADD30R,0.24X0.24*%
G04 APERTURE END LIST*
G54D10*
G54D11*
X81460Y-47920D02*
X81460Y-48820D01*
X81460Y-48820D02*
X82110Y-48820D01*
X82810Y-47920D02*
X83460Y-47920D01*
X83460Y-47920D02*
X83460Y-48820D01*
X83460Y-48820D02*
X82810Y-48820D01*
X82110Y-47920D02*
X81460Y-47920D01*
G54D12*
X93010Y-48460D02*
G75*
G03X93010Y-48460I-50J0D01*
G74*
G01*
X92960Y-48010D02*
X92960Y-48410D01*
X92960Y-48410D02*
X92360Y-48410D01*
X92360Y-48410D02*
X92360Y-48010D01*
X92360Y-47610D02*
X92360Y-47210D01*
X92360Y-47210D02*
X92960Y-47210D01*
X92960Y-47210D02*
X92960Y-47610D01*
X77230Y-52300D02*
G75*
G03X77230Y-52300I-50J0D01*
G74*
G01*
X77630Y-52300D02*
X77230Y-52300D01*
X77230Y-52300D02*
X77230Y-51700D01*
X77230Y-51700D02*
X77630Y-51700D01*
X78030Y-51700D02*
X78430Y-51700D01*
X78430Y-51700D02*
X78430Y-52300D01*
X78430Y-52300D02*
X78030Y-52300D01*
X78560Y-49170D02*
G75*
G03X78560Y-49170I-50J0D01*
G74*
G01*
X78510Y-48720D02*
X78510Y-49120D01*
X78510Y-49120D02*
X77910Y-49120D01*
X77910Y-49120D02*
X77910Y-48720D01*
X77910Y-48320D02*
X77910Y-47920D01*
X77910Y-47920D02*
X78510Y-47920D01*
X78510Y-47920D02*
X78510Y-48320D01*
X79280Y-48760D02*
G75*
G03X79280Y-48760I-50J0D01*
G74*
G01*
X79680Y-48760D02*
X79280Y-48760D01*
X79280Y-48760D02*
X79280Y-48160D01*
X79280Y-48160D02*
X79680Y-48160D01*
X80080Y-48160D02*
X80480Y-48160D01*
X80480Y-48160D02*
X80480Y-48760D01*
X80480Y-48760D02*
X80080Y-48760D01*
X74880Y-46470D02*
G75*
G03X74880Y-46470I-50J0D01*
G74*
G01*
X75280Y-46470D02*
X74880Y-46470D01*
X74880Y-46470D02*
X74880Y-45870D01*
X74880Y-45870D02*
X75280Y-45870D01*
X75680Y-45870D02*
X76080Y-45870D01*
X76080Y-45870D02*
X76080Y-46470D01*
X76080Y-46470D02*
X75680Y-46470D01*
X74800Y-44520D02*
G75*
G03X74800Y-44520I-50J0D01*
G74*
G01*
X75200Y-44520D02*
X74800Y-44520D01*
X74800Y-44520D02*
X74800Y-43920D01*
X74800Y-43920D02*
X75200Y-43920D01*
X75600Y-43920D02*
X76000Y-43920D01*
X76000Y-43920D02*
X76000Y-44520D01*
X76000Y-44520D02*
X75600Y-44520D01*
X77220Y-51380D02*
G75*
G03X77220Y-51380I-50J0D01*
G74*
G01*
X77620Y-51380D02*
X77220Y-51380D01*
X77220Y-51380D02*
X77220Y-50780D01*
X77220Y-50780D02*
X77620Y-50780D01*
X78020Y-50780D02*
X78420Y-50780D01*
X78420Y-50780D02*
X78420Y-51380D01*
X78420Y-51380D02*
X78020Y-51380D01*
X88940Y-44710D02*
G75*
G03X88940Y-44710I-50J0D01*
G74*
G01*
X88890Y-44260D02*
X88890Y-44660D01*
X88890Y-44660D02*
X88290Y-44660D01*
X88290Y-44660D02*
X88290Y-44260D01*
X88290Y-43860D02*
X88290Y-43460D01*
X88290Y-43460D02*
X88890Y-43460D01*
X88890Y-43460D02*
X88890Y-43860D01*
X82260Y-47264D02*
G75*
G03X82260Y-47264I-50J0D01*
G74*
G01*
X82660Y-47264D02*
X82260Y-47264D01*
X82260Y-47264D02*
X82260Y-46664D01*
X82260Y-46664D02*
X82660Y-46664D01*
X83060Y-46664D02*
X83460Y-46664D01*
X83460Y-46664D02*
X83460Y-47264D01*
X83460Y-47264D02*
X83060Y-47264D01*
X93540Y-48820D02*
G75*
G03X93540Y-48820I-50J0D01*
G74*
G01*
X93490Y-49270D02*
X93490Y-48870D01*
X93490Y-48870D02*
X94090Y-48870D01*
X94090Y-48870D02*
X94090Y-49270D01*
X94090Y-49670D02*
X94090Y-50070D01*
X94090Y-50070D02*
X93490Y-50070D01*
X93490Y-50070D02*
X93490Y-49670D01*
X92970Y-50080D02*
G75*
G03X92970Y-50080I-50J0D01*
G74*
G01*
X92920Y-49630D02*
X92920Y-50030D01*
X92920Y-50030D02*
X92320Y-50030D01*
X92320Y-50030D02*
X92320Y-49630D01*
X92320Y-49230D02*
X92320Y-48830D01*
X92320Y-48830D02*
X92920Y-48830D01*
X92920Y-48830D02*
X92920Y-49230D01*
X85300Y-49280D02*
G75*
G03X85300Y-49280I-50J0D01*
G74*
G01*
X85250Y-49730D02*
X85250Y-49330D01*
X85250Y-49330D02*
X85850Y-49330D01*
X85850Y-49330D02*
X85850Y-49730D01*
X85850Y-50130D02*
X85850Y-50530D01*
X85850Y-50530D02*
X85250Y-50530D01*
X85250Y-50530D02*
X85250Y-50130D01*
X95380Y-48480D02*
G75*
G03X95380Y-48480I-50J0D01*
G74*
G01*
X95330Y-48030D02*
X95330Y-48430D01*
X95330Y-48430D02*
X94730Y-48430D01*
X94730Y-48430D02*
X94730Y-48030D01*
X94730Y-47630D02*
X94730Y-47230D01*
X94730Y-47230D02*
X95330Y-47230D01*
X95330Y-47230D02*
X95330Y-47630D01*
X94190Y-48460D02*
G75*
G03X94190Y-48460I-50J0D01*
G74*
G01*
X94140Y-48010D02*
X94140Y-48410D01*
X94140Y-48410D02*
X93540Y-48410D01*
X93540Y-48410D02*
X93540Y-48010D01*
X93540Y-47610D02*
X93540Y-47210D01*
X93540Y-47210D02*
X94140Y-47210D01*
X94140Y-47210D02*
X94140Y-47610D01*
X97120Y-44320D02*
G75*
G03X97120Y-44320I-50J0D01*
G74*
G01*
X97070Y-44770D02*
X97070Y-44370D01*
X97070Y-44370D02*
X97670Y-44370D01*
X97670Y-44370D02*
X97670Y-44770D01*
X97670Y-45170D02*
X97670Y-45570D01*
X97670Y-45570D02*
X97070Y-45570D01*
X97070Y-45570D02*
X97070Y-45170D01*
X95840Y-47210D02*
G75*
G03X95840Y-47210I-50J0D01*
G74*
G01*
X95790Y-47660D02*
X95790Y-47260D01*
X95790Y-47260D02*
X96390Y-47260D01*
X96390Y-47260D02*
X96390Y-47660D01*
X96390Y-48060D02*
X96390Y-48460D01*
X96390Y-48460D02*
X95790Y-48460D01*
X95790Y-48460D02*
X95790Y-48060D01*
X90350Y-44620D02*
G75*
G03X90350Y-44620I-50J0D01*
G74*
G01*
X90300Y-45070D02*
X90300Y-44670D01*
X90300Y-44670D02*
X90900Y-44670D01*
X90900Y-44670D02*
X90900Y-45070D01*
X90900Y-45470D02*
X90900Y-45870D01*
X90900Y-45870D02*
X90300Y-45870D01*
X90300Y-45870D02*
X90300Y-45470D01*
X92810Y-46160D02*
G75*
G03X92810Y-46160I-50J0D01*
G74*
G01*
X92760Y-45710D02*
X92760Y-46110D01*
X92760Y-46110D02*
X92160Y-46110D01*
X92160Y-46110D02*
X92160Y-45710D01*
X92160Y-45310D02*
X92160Y-44910D01*
X92160Y-44910D02*
X92760Y-44910D01*
X92760Y-44910D02*
X92760Y-45310D01*
X86470Y-45820D02*
G75*
G03X86470Y-45820I-50J0D01*
G74*
G01*
X86420Y-46270D02*
X86420Y-45870D01*
X86420Y-45870D02*
X87020Y-45870D01*
X87020Y-45870D02*
X87020Y-46270D01*
X87020Y-46670D02*
X87020Y-47070D01*
X87020Y-47070D02*
X86420Y-47070D01*
X86420Y-47070D02*
X86420Y-46670D01*
X90050Y-47250D02*
G75*
G03X90050Y-47250I-50J0D01*
G74*
G01*
X90450Y-47250D02*
X90050Y-47250D01*
X90050Y-47250D02*
X90050Y-46650D01*
X90050Y-46650D02*
X90450Y-46650D01*
X90850Y-46650D02*
X91250Y-46650D01*
X91250Y-46650D02*
X91250Y-47250D01*
X91250Y-47250D02*
X90850Y-47250D01*
X87850Y-45850D02*
G75*
G03X87850Y-45850I-50J0D01*
G74*
G01*
X87800Y-46300D02*
X87800Y-45900D01*
X87800Y-45900D02*
X88400Y-45900D01*
X88400Y-45900D02*
X88400Y-46300D01*
X88400Y-46700D02*
X88400Y-47100D01*
X88400Y-47100D02*
X87800Y-47100D01*
X87800Y-47100D02*
X87800Y-46700D01*
X84140Y-49270D02*
G75*
G03X84140Y-49270I-50J0D01*
G74*
G01*
X84090Y-49720D02*
X84090Y-49320D01*
X84090Y-49320D02*
X84690Y-49320D01*
X84690Y-49320D02*
X84690Y-49720D01*
X84690Y-50120D02*
X84690Y-50520D01*
X84690Y-50520D02*
X84090Y-50520D01*
X84090Y-50520D02*
X84090Y-50120D01*
X83170Y-41490D02*
G75*
G03X83170Y-41490I-50J0D01*
G74*
G01*
X82670Y-41490D02*
X83070Y-41490D01*
X83070Y-41490D02*
X83070Y-42090D01*
X83070Y-42090D02*
X82670Y-42090D01*
X82270Y-42090D02*
X81870Y-42090D01*
X81870Y-42090D02*
X81870Y-41490D01*
X81870Y-41490D02*
X82270Y-41490D01*
X73285Y-49490D02*
G75*
G03X73285Y-49490I-50J0D01*
G74*
G01*
X73685Y-49490D02*
X73285Y-49490D01*
X73285Y-49490D02*
X73285Y-48890D01*
X73285Y-48890D02*
X73685Y-48890D01*
X74085Y-48890D02*
X74485Y-48890D01*
X74485Y-48890D02*
X74485Y-49490D01*
X74485Y-49490D02*
X74085Y-49490D01*
X84040Y-41340D02*
G75*
G03X84040Y-41340I-50J0D01*
G74*
G01*
X83990Y-41790D02*
X83990Y-41390D01*
X83990Y-41390D02*
X84590Y-41390D01*
X84590Y-41390D02*
X84590Y-41790D01*
X84590Y-42190D02*
X84590Y-42590D01*
X84590Y-42590D02*
X83990Y-42590D01*
X83990Y-42590D02*
X83990Y-42190D01*
X85470Y-41430D02*
G75*
G03X85470Y-41430I-50J0D01*
G74*
G01*
X85420Y-41880D02*
X85420Y-41480D01*
X85420Y-41480D02*
X86020Y-41480D01*
X86020Y-41480D02*
X86020Y-41880D01*
X86020Y-42280D02*
X86020Y-42680D01*
X86020Y-42680D02*
X85420Y-42680D01*
X85420Y-42680D02*
X85420Y-42280D01*
X86910Y-41440D02*
G75*
G03X86910Y-41440I-50J0D01*
G74*
G01*
X86860Y-41890D02*
X86860Y-41490D01*
X86860Y-41490D02*
X87460Y-41490D01*
X87460Y-41490D02*
X87460Y-41890D01*
X87460Y-42290D02*
X87460Y-42690D01*
X87460Y-42690D02*
X86860Y-42690D01*
X86860Y-42690D02*
X86860Y-42290D01*
X97770Y-56290D02*
G75*
G03X97770Y-56290I-50J0D01*
G74*
G01*
X97720Y-55840D02*
X97720Y-56240D01*
X97720Y-56240D02*
X97120Y-56240D01*
X97120Y-56240D02*
X97120Y-55840D01*
X97120Y-55440D02*
X97120Y-55040D01*
X97120Y-55040D02*
X97720Y-55040D01*
X97720Y-55040D02*
X97720Y-55440D01*
X95700Y-41490D02*
G75*
G03X95700Y-41490I-50J0D01*
G74*
G01*
X95200Y-41490D02*
X95600Y-41490D01*
X95600Y-41490D02*
X95600Y-42090D01*
X95600Y-42090D02*
X95200Y-42090D01*
X94800Y-42090D02*
X94400Y-42090D01*
X94400Y-42090D02*
X94400Y-41490D01*
X94400Y-41490D02*
X94800Y-41490D01*
X91800Y-41400D02*
G75*
G03X91800Y-41400I-50J0D01*
G74*
G01*
X91300Y-41400D02*
X91700Y-41400D01*
X91700Y-41400D02*
X91700Y-42000D01*
X91700Y-42000D02*
X91300Y-42000D01*
X90900Y-42000D02*
X90500Y-42000D01*
X90500Y-42000D02*
X90500Y-41400D01*
X90500Y-41400D02*
X90900Y-41400D01*
G54D10*
X79697Y-45687D02*
G75*
G03X79697Y-45687I-141J0D01*
G74*
G01*
X79319Y-44230D02*
X82154Y-44230D01*
X82154Y-44230D02*
X82154Y-46316D01*
X82154Y-46316D02*
X79319Y-46316D01*
X79319Y-46316D02*
X79319Y-44230D01*
X75931Y-43079D02*
X76128Y-42922D01*
X77900Y-43079D02*
X77663Y-42922D01*
X77703Y-47450D02*
X76128Y-47450D01*
X77703Y-47450D02*
X77900Y-47292D01*
X76128Y-47450D02*
X75931Y-47253D01*
X77900Y-47292D02*
X77900Y-43079D01*
X77663Y-42922D02*
X76128Y-42922D01*
X75931Y-43079D02*
X75931Y-47253D01*
X96700Y-53350D02*
X96700Y-47490D01*
X96700Y-47483D02*
X99455Y-47483D01*
X99455Y-53350D02*
X99455Y-47490D01*
X99455Y-53350D02*
X96700Y-53350D01*
X74400Y-54130D02*
X77400Y-54130D01*
X77400Y-54130D02*
X77400Y-53145D01*
X77400Y-53145D02*
X74400Y-53145D01*
X74400Y-53145D02*
X74400Y-54130D01*
G54D11*
X87370Y-50550D02*
X87370Y-50630D01*
X86620Y-51150D02*
X86620Y-49350D01*
X86620Y-49350D02*
X86870Y-49350D01*
X88120Y-49990D02*
X86620Y-49990D01*
X88120Y-49860D02*
X86620Y-49860D01*
X87870Y-51150D02*
X88120Y-51150D01*
X88120Y-51150D02*
X88120Y-49350D01*
X88120Y-49350D02*
X87870Y-49350D01*
X86870Y-51150D02*
X86620Y-51150D01*
X87370Y-50300D02*
X87183Y-50550D01*
X87183Y-50550D02*
X87370Y-50550D01*
X87370Y-50550D02*
X87557Y-50550D01*
X87557Y-50550D02*
X87370Y-50300D01*
X87370Y-50300D02*
X87245Y-50300D01*
X87245Y-50300D02*
X87183Y-50362D01*
X87370Y-50300D02*
X87495Y-50300D01*
X87495Y-50300D02*
X87557Y-50238D01*
X87370Y-50300D02*
X87370Y-49863D01*
X95840Y-46040D02*
X95920Y-46040D01*
X96440Y-46790D02*
X94640Y-46790D01*
X94640Y-46790D02*
X94640Y-46540D01*
X95280Y-45290D02*
X95280Y-46790D01*
X95150Y-45290D02*
X95150Y-46790D01*
X96440Y-45540D02*
X96440Y-45290D01*
X96440Y-45290D02*
X94640Y-45290D01*
X94640Y-45290D02*
X94640Y-45540D01*
X96440Y-46540D02*
X96440Y-46790D01*
X95590Y-46040D02*
X95840Y-46227D01*
X95840Y-46227D02*
X95840Y-46040D01*
X95840Y-46040D02*
X95840Y-45853D01*
X95840Y-45853D02*
X95590Y-46040D01*
X95590Y-46040D02*
X95590Y-46165D01*
X95590Y-46165D02*
X95652Y-46227D01*
X95590Y-46040D02*
X95590Y-45915D01*
X95590Y-45915D02*
X95528Y-45853D01*
X95590Y-46040D02*
X95153Y-46040D01*
X95160Y-43850D02*
X95080Y-43850D01*
X94560Y-43100D02*
X96360Y-43100D01*
X96360Y-43100D02*
X96360Y-43350D01*
X95720Y-44600D02*
X95720Y-43100D01*
X95850Y-44600D02*
X95850Y-43100D01*
X94560Y-44350D02*
X94560Y-44600D01*
X94560Y-44600D02*
X96360Y-44600D01*
X96360Y-44600D02*
X96360Y-44350D01*
X94560Y-43350D02*
X94560Y-43100D01*
X95410Y-43850D02*
X95160Y-43663D01*
X95160Y-43663D02*
X95160Y-43850D01*
X95160Y-43850D02*
X95160Y-44037D01*
X95160Y-44037D02*
X95410Y-43850D01*
X95410Y-43850D02*
X95410Y-43725D01*
X95410Y-43725D02*
X95348Y-43663D01*
X95410Y-43850D02*
X95410Y-43975D01*
X95410Y-43975D02*
X95472Y-44037D01*
X95410Y-43850D02*
X95847Y-43850D01*
X76185Y-50220D02*
X76185Y-50300D01*
X75435Y-50820D02*
X75435Y-49020D01*
X75435Y-49020D02*
X75685Y-49020D01*
X76935Y-49660D02*
X75435Y-49660D01*
X76935Y-49530D02*
X75435Y-49530D01*
X76685Y-50820D02*
X76935Y-50820D01*
X76935Y-50820D02*
X76935Y-49020D01*
X76935Y-49020D02*
X76685Y-49020D01*
X75685Y-50820D02*
X75435Y-50820D01*
X76185Y-49970D02*
X75998Y-50220D01*
X75998Y-50220D02*
X76185Y-50220D01*
X76185Y-50220D02*
X76372Y-50220D01*
X76372Y-50220D02*
X76185Y-49970D01*
X76185Y-49970D02*
X76060Y-49970D01*
X76060Y-49970D02*
X75998Y-50032D01*
X76185Y-49970D02*
X76310Y-49970D01*
X76310Y-49970D02*
X76372Y-49908D01*
X76185Y-49970D02*
X76185Y-49533D01*
X93100Y-53260D02*
X93020Y-53260D01*
X92500Y-52510D02*
X94300Y-52510D01*
X94300Y-52510D02*
X94300Y-52760D01*
X93660Y-54010D02*
X93660Y-52510D01*
X93790Y-54010D02*
X93790Y-52510D01*
X92500Y-53760D02*
X92500Y-54010D01*
X92500Y-54010D02*
X94300Y-54010D01*
X94300Y-54010D02*
X94300Y-53760D01*
X92500Y-52760D02*
X92500Y-52510D01*
X93350Y-53260D02*
X93100Y-53073D01*
X93100Y-53073D02*
X93100Y-53260D01*
X93100Y-53260D02*
X93100Y-53447D01*
X93100Y-53447D02*
X93350Y-53260D01*
X93350Y-53260D02*
X93350Y-53135D01*
X93350Y-53135D02*
X93288Y-53073D01*
X93350Y-53260D02*
X93350Y-53385D01*
X93350Y-53385D02*
X93412Y-53447D01*
X93350Y-53260D02*
X93787Y-53260D01*
X89600Y-50750D02*
X91160Y-50750D01*
X91160Y-50750D02*
X91160Y-47350D01*
X91160Y-47350D02*
X89600Y-47350D01*
X89600Y-47350D02*
X89600Y-50750D01*
X89600Y-50050D02*
X89170Y-50050D01*
X89600Y-49550D02*
X89170Y-49550D01*
X89600Y-49050D02*
X89170Y-49050D01*
X89600Y-50550D02*
X89170Y-50550D01*
X89170Y-48550D02*
X89600Y-48550D01*
X89170Y-48050D02*
X89600Y-48050D01*
X89170Y-47550D02*
X89600Y-47550D01*
X91160Y-47550D02*
X91590Y-47550D01*
X91160Y-48050D02*
X91590Y-48050D01*
X91160Y-50550D02*
X91590Y-50550D01*
X91590Y-50050D02*
X91160Y-50050D01*
X91590Y-48550D02*
X91160Y-48550D01*
X91590Y-49050D02*
X91160Y-49050D01*
X91590Y-49550D02*
X91160Y-49550D01*
X91056Y-50460D02*
G75*
G03X91056Y-50460I-186J0D01*
G74*
G01*
X88500Y-53720D02*
X89750Y-53720D01*
X89750Y-53720D02*
X89750Y-53020D01*
X89750Y-53020D02*
X88500Y-53020D01*
X88500Y-55520D02*
X89750Y-55520D01*
X89750Y-55520D02*
X89750Y-54820D01*
X89750Y-54820D02*
X88500Y-54820D01*
X86100Y-52920D02*
X88500Y-52920D01*
X88500Y-52920D02*
X88500Y-55620D01*
X88500Y-55620D02*
X85400Y-55620D01*
X85350Y-55620D02*
X85350Y-52920D01*
X85400Y-52920D02*
X86100Y-52920D01*
X82110Y-49252D02*
X82095Y-49267D01*
X82052Y-49281D01*
X82024Y-49281D01*
X81981Y-49267D01*
X81952Y-49238D01*
X81938Y-49210D01*
X81924Y-49152D01*
X81924Y-49110D01*
X81938Y-49052D01*
X81952Y-49024D01*
X81981Y-48995D01*
X82024Y-48981D01*
X82052Y-48981D01*
X82095Y-48995D01*
X82110Y-49010D01*
X82395Y-49281D02*
X82224Y-49281D01*
X82310Y-49281D02*
X82310Y-48981D01*
X82281Y-49024D01*
X82252Y-49052D01*
X82224Y-49067D01*
G54D13*
X92614Y-47936D02*
X92520Y-48002D01*
X92614Y-48049D02*
X92417Y-48049D01*
X92417Y-47974D01*
X92427Y-47955D01*
X92436Y-47946D01*
X92455Y-47936D01*
X92483Y-47936D01*
X92502Y-47946D01*
X92511Y-47955D01*
X92520Y-47974D01*
X92520Y-48049D01*
X92614Y-47749D02*
X92614Y-47861D01*
X92614Y-47805D02*
X92417Y-47805D01*
X92445Y-47824D01*
X92464Y-47842D01*
X92474Y-47861D01*
X92614Y-47655D02*
X92614Y-47617D01*
X92605Y-47598D01*
X92595Y-47589D01*
X92567Y-47570D01*
X92530Y-47561D01*
X92455Y-47561D01*
X92436Y-47570D01*
X92427Y-47580D01*
X92417Y-47598D01*
X92417Y-47636D01*
X92427Y-47655D01*
X92436Y-47664D01*
X92455Y-47673D01*
X92502Y-47673D01*
X92520Y-47664D01*
X92530Y-47655D01*
X92539Y-47636D01*
X92539Y-47598D01*
X92530Y-47580D01*
X92520Y-47570D01*
X92502Y-47561D01*
X92889Y-47852D02*
X92889Y-47964D01*
X92889Y-47908D02*
X92692Y-47908D01*
X92720Y-47927D01*
X92739Y-47946D01*
X92749Y-47964D01*
X92889Y-47767D02*
X92692Y-47767D01*
X92889Y-47655D02*
X92777Y-47739D01*
X92692Y-47655D02*
X92805Y-47767D01*
X77797Y-51935D02*
X77787Y-51945D01*
X77759Y-51954D01*
X77740Y-51954D01*
X77712Y-51945D01*
X77693Y-51926D01*
X77684Y-51907D01*
X77675Y-51870D01*
X77675Y-51842D01*
X77684Y-51804D01*
X77693Y-51785D01*
X77712Y-51767D01*
X77740Y-51757D01*
X77759Y-51757D01*
X77787Y-51767D01*
X77797Y-51776D01*
X77909Y-51842D02*
X77890Y-51832D01*
X77881Y-51823D01*
X77872Y-51804D01*
X77872Y-51795D01*
X77881Y-51776D01*
X77890Y-51767D01*
X77909Y-51757D01*
X77947Y-51757D01*
X77966Y-51767D01*
X77975Y-51776D01*
X77984Y-51795D01*
X77984Y-51804D01*
X77975Y-51823D01*
X77966Y-51832D01*
X77947Y-51842D01*
X77909Y-51842D01*
X77890Y-51851D01*
X77881Y-51860D01*
X77872Y-51879D01*
X77872Y-51917D01*
X77881Y-51935D01*
X77890Y-51945D01*
X77909Y-51954D01*
X77947Y-51954D01*
X77966Y-51945D01*
X77975Y-51935D01*
X77984Y-51917D01*
X77984Y-51879D01*
X77975Y-51860D01*
X77966Y-51851D01*
X77947Y-51842D01*
X77703Y-52229D02*
X77590Y-52229D01*
X77647Y-52229D02*
X77647Y-52032D01*
X77628Y-52060D01*
X77609Y-52079D01*
X77590Y-52089D01*
X77825Y-52032D02*
X77844Y-52032D01*
X77862Y-52042D01*
X77872Y-52051D01*
X77881Y-52070D01*
X77890Y-52107D01*
X77890Y-52154D01*
X77881Y-52192D01*
X77872Y-52210D01*
X77862Y-52220D01*
X77844Y-52229D01*
X77825Y-52229D01*
X77806Y-52220D01*
X77797Y-52210D01*
X77787Y-52192D01*
X77778Y-52154D01*
X77778Y-52107D01*
X77787Y-52070D01*
X77797Y-52051D01*
X77806Y-52042D01*
X77825Y-52032D01*
X78059Y-52098D02*
X78059Y-52229D01*
X77975Y-52098D02*
X77975Y-52201D01*
X77984Y-52220D01*
X78003Y-52229D01*
X78031Y-52229D01*
X78050Y-52220D01*
X78059Y-52210D01*
X78145Y-48552D02*
X78155Y-48562D01*
X78164Y-48590D01*
X78164Y-48609D01*
X78155Y-48637D01*
X78136Y-48656D01*
X78117Y-48665D01*
X78080Y-48674D01*
X78052Y-48674D01*
X78014Y-48665D01*
X77995Y-48656D01*
X77977Y-48637D01*
X77967Y-48609D01*
X77967Y-48590D01*
X77977Y-48562D01*
X77986Y-48552D01*
X77967Y-48487D02*
X77967Y-48355D01*
X78164Y-48440D01*
X78439Y-48552D02*
X78439Y-48665D01*
X78439Y-48609D02*
X78242Y-48609D01*
X78270Y-48627D01*
X78289Y-48646D01*
X78299Y-48665D01*
X78308Y-48383D02*
X78439Y-48383D01*
X78308Y-48468D02*
X78411Y-48468D01*
X78430Y-48459D01*
X78439Y-48440D01*
X78439Y-48412D01*
X78430Y-48393D01*
X78420Y-48383D01*
X79847Y-48414D02*
X79753Y-48414D01*
X79753Y-48217D01*
X80006Y-48217D02*
X79912Y-48217D01*
X79903Y-48311D01*
X79912Y-48302D01*
X79931Y-48292D01*
X79978Y-48292D01*
X79997Y-48302D01*
X80006Y-48311D01*
X80016Y-48330D01*
X80016Y-48377D01*
X80006Y-48395D01*
X79997Y-48405D01*
X79978Y-48414D01*
X79931Y-48414D01*
X79912Y-48405D01*
X79903Y-48395D01*
X79833Y-48689D02*
X79720Y-48689D01*
X79776Y-48689D02*
X79776Y-48492D01*
X79758Y-48520D01*
X79739Y-48539D01*
X79720Y-48549D01*
X79917Y-48492D02*
X79917Y-48652D01*
X79926Y-48670D01*
X79936Y-48680D01*
X79955Y-48689D01*
X79992Y-48689D01*
X80011Y-48680D01*
X80020Y-48670D01*
X80030Y-48652D01*
X80030Y-48492D01*
X74847Y-46830D02*
X74837Y-46840D01*
X74809Y-46849D01*
X74790Y-46849D01*
X74762Y-46840D01*
X74743Y-46821D01*
X74734Y-46802D01*
X74725Y-46765D01*
X74725Y-46737D01*
X74734Y-46699D01*
X74743Y-46680D01*
X74762Y-46662D01*
X74790Y-46652D01*
X74809Y-46652D01*
X74837Y-46662D01*
X74847Y-46671D01*
X75025Y-46652D02*
X74931Y-46652D01*
X74922Y-46746D01*
X74931Y-46737D01*
X74950Y-46727D01*
X74997Y-46727D01*
X75016Y-46737D01*
X75025Y-46746D01*
X75034Y-46765D01*
X75034Y-46812D01*
X75025Y-46830D01*
X75016Y-46840D01*
X74997Y-46849D01*
X74950Y-46849D01*
X74931Y-46840D01*
X74922Y-46830D01*
X75353Y-46849D02*
X75240Y-46849D01*
X75297Y-46849D02*
X75297Y-46652D01*
X75278Y-46680D01*
X75259Y-46699D01*
X75240Y-46709D01*
X75465Y-46737D02*
X75447Y-46727D01*
X75437Y-46718D01*
X75428Y-46699D01*
X75428Y-46690D01*
X75437Y-46671D01*
X75447Y-46662D01*
X75465Y-46652D01*
X75503Y-46652D01*
X75522Y-46662D01*
X75531Y-46671D01*
X75540Y-46690D01*
X75540Y-46699D01*
X75531Y-46718D01*
X75522Y-46727D01*
X75503Y-46737D01*
X75465Y-46737D01*
X75447Y-46746D01*
X75437Y-46755D01*
X75428Y-46774D01*
X75428Y-46812D01*
X75437Y-46830D01*
X75447Y-46840D01*
X75465Y-46849D01*
X75503Y-46849D01*
X75522Y-46840D01*
X75531Y-46830D01*
X75540Y-46812D01*
X75540Y-46774D01*
X75531Y-46755D01*
X75522Y-46746D01*
X75503Y-46737D01*
X75625Y-46718D02*
X75625Y-46915D01*
X75625Y-46727D02*
X75644Y-46718D01*
X75681Y-46718D01*
X75700Y-46727D01*
X75709Y-46737D01*
X75719Y-46755D01*
X75719Y-46812D01*
X75709Y-46830D01*
X75700Y-46840D01*
X75681Y-46849D01*
X75644Y-46849D01*
X75625Y-46840D01*
X74877Y-43640D02*
X74867Y-43650D01*
X74839Y-43659D01*
X74820Y-43659D01*
X74792Y-43650D01*
X74773Y-43631D01*
X74764Y-43612D01*
X74755Y-43575D01*
X74755Y-43547D01*
X74764Y-43509D01*
X74773Y-43490D01*
X74792Y-43472D01*
X74820Y-43462D01*
X74839Y-43462D01*
X74867Y-43472D01*
X74877Y-43481D01*
X75046Y-43528D02*
X75046Y-43659D01*
X74999Y-43453D02*
X74952Y-43594D01*
X75074Y-43594D01*
X75343Y-43649D02*
X75230Y-43649D01*
X75287Y-43649D02*
X75287Y-43452D01*
X75268Y-43480D01*
X75249Y-43499D01*
X75230Y-43509D01*
X75455Y-43537D02*
X75437Y-43527D01*
X75427Y-43518D01*
X75418Y-43499D01*
X75418Y-43490D01*
X75427Y-43471D01*
X75437Y-43462D01*
X75455Y-43452D01*
X75493Y-43452D01*
X75512Y-43462D01*
X75521Y-43471D01*
X75530Y-43490D01*
X75530Y-43499D01*
X75521Y-43518D01*
X75512Y-43527D01*
X75493Y-43537D01*
X75455Y-43537D01*
X75437Y-43546D01*
X75427Y-43555D01*
X75418Y-43574D01*
X75418Y-43612D01*
X75427Y-43630D01*
X75437Y-43640D01*
X75455Y-43649D01*
X75493Y-43649D01*
X75512Y-43640D01*
X75521Y-43630D01*
X75530Y-43612D01*
X75530Y-43574D01*
X75521Y-43555D01*
X75512Y-43546D01*
X75493Y-43537D01*
X75615Y-43518D02*
X75615Y-43715D01*
X75615Y-43527D02*
X75634Y-43518D01*
X75671Y-43518D01*
X75690Y-43527D01*
X75699Y-43537D01*
X75709Y-43555D01*
X75709Y-43612D01*
X75699Y-43630D01*
X75690Y-43640D01*
X75671Y-43649D01*
X75634Y-43649D01*
X75615Y-43640D01*
X77787Y-51015D02*
X77777Y-51025D01*
X77749Y-51034D01*
X77730Y-51034D01*
X77702Y-51025D01*
X77683Y-51006D01*
X77674Y-50987D01*
X77665Y-50950D01*
X77665Y-50922D01*
X77674Y-50884D01*
X77683Y-50865D01*
X77702Y-50847D01*
X77730Y-50837D01*
X77749Y-50837D01*
X77777Y-50847D01*
X77787Y-50856D01*
X77956Y-50837D02*
X77918Y-50837D01*
X77899Y-50847D01*
X77890Y-50856D01*
X77871Y-50884D01*
X77862Y-50922D01*
X77862Y-50997D01*
X77871Y-51015D01*
X77880Y-51025D01*
X77899Y-51034D01*
X77937Y-51034D01*
X77956Y-51025D01*
X77965Y-51015D01*
X77974Y-50997D01*
X77974Y-50950D01*
X77965Y-50931D01*
X77956Y-50922D01*
X77937Y-50912D01*
X77899Y-50912D01*
X77880Y-50922D01*
X77871Y-50931D01*
X77862Y-50950D01*
X77637Y-51290D02*
X77646Y-51300D01*
X77637Y-51309D01*
X77627Y-51300D01*
X77637Y-51290D01*
X77637Y-51309D01*
X77834Y-51309D02*
X77721Y-51309D01*
X77777Y-51309D02*
X77777Y-51112D01*
X77759Y-51140D01*
X77740Y-51159D01*
X77721Y-51169D01*
X78002Y-51178D02*
X78002Y-51309D01*
X77918Y-51178D02*
X77918Y-51281D01*
X77927Y-51300D01*
X77946Y-51309D01*
X77974Y-51309D01*
X77993Y-51300D01*
X78002Y-51290D01*
X89279Y-44682D02*
X89185Y-44748D01*
X89279Y-44795D02*
X89082Y-44795D01*
X89082Y-44720D01*
X89092Y-44701D01*
X89101Y-44692D01*
X89120Y-44682D01*
X89148Y-44682D01*
X89167Y-44692D01*
X89176Y-44701D01*
X89185Y-44720D01*
X89185Y-44795D01*
X89101Y-44607D02*
X89092Y-44598D01*
X89082Y-44579D01*
X89082Y-44532D01*
X89092Y-44513D01*
X89101Y-44504D01*
X89120Y-44495D01*
X89139Y-44495D01*
X89167Y-44504D01*
X89279Y-44617D01*
X89279Y-44495D01*
X89249Y-44142D02*
X89249Y-44254D01*
X89249Y-44198D02*
X89052Y-44198D01*
X89080Y-44217D01*
X89099Y-44236D01*
X89109Y-44254D01*
X89249Y-44057D02*
X89052Y-44057D01*
X89249Y-43945D02*
X89137Y-44029D01*
X89052Y-43945D02*
X89165Y-44057D01*
X82387Y-46430D02*
X82377Y-46440D01*
X82349Y-46449D01*
X82330Y-46449D01*
X82302Y-46440D01*
X82283Y-46421D01*
X82274Y-46402D01*
X82265Y-46365D01*
X82265Y-46337D01*
X82274Y-46299D01*
X82283Y-46280D01*
X82302Y-46262D01*
X82330Y-46252D01*
X82349Y-46252D01*
X82377Y-46262D01*
X82387Y-46271D01*
X82462Y-46271D02*
X82471Y-46262D01*
X82490Y-46252D01*
X82537Y-46252D01*
X82556Y-46262D01*
X82565Y-46271D01*
X82574Y-46290D01*
X82574Y-46309D01*
X82565Y-46337D01*
X82452Y-46449D01*
X82574Y-46449D01*
X82867Y-46420D02*
X82876Y-46430D01*
X82867Y-46439D01*
X82857Y-46430D01*
X82867Y-46420D01*
X82867Y-46439D01*
X83064Y-46439D02*
X82951Y-46439D01*
X83007Y-46439D02*
X83007Y-46242D01*
X82989Y-46270D01*
X82970Y-46289D01*
X82951Y-46299D01*
X83232Y-46308D02*
X83232Y-46439D01*
X83148Y-46308D02*
X83148Y-46411D01*
X83157Y-46430D01*
X83176Y-46439D01*
X83204Y-46439D01*
X83223Y-46430D01*
X83232Y-46420D01*
X93994Y-49596D02*
X93900Y-49662D01*
X93994Y-49709D02*
X93797Y-49709D01*
X93797Y-49634D01*
X93807Y-49615D01*
X93816Y-49606D01*
X93835Y-49596D01*
X93863Y-49596D01*
X93882Y-49606D01*
X93891Y-49615D01*
X93900Y-49634D01*
X93900Y-49709D01*
X93994Y-49409D02*
X93994Y-49521D01*
X93994Y-49465D02*
X93797Y-49465D01*
X93825Y-49484D01*
X93844Y-49502D01*
X93854Y-49521D01*
X93797Y-49343D02*
X93797Y-49212D01*
X93994Y-49296D01*
X93719Y-49512D02*
X93719Y-49624D01*
X93719Y-49568D02*
X93522Y-49568D01*
X93550Y-49587D01*
X93569Y-49606D01*
X93579Y-49624D01*
X93719Y-49427D02*
X93522Y-49427D01*
X93719Y-49315D02*
X93607Y-49399D01*
X93522Y-49315D02*
X93635Y-49427D01*
X92574Y-49556D02*
X92480Y-49622D01*
X92574Y-49669D02*
X92377Y-49669D01*
X92377Y-49594D01*
X92387Y-49575D01*
X92396Y-49566D01*
X92415Y-49556D01*
X92443Y-49556D01*
X92462Y-49566D01*
X92471Y-49575D01*
X92480Y-49594D01*
X92480Y-49669D01*
X92574Y-49369D02*
X92574Y-49481D01*
X92574Y-49425D02*
X92377Y-49425D01*
X92405Y-49444D01*
X92424Y-49462D01*
X92434Y-49481D01*
X92462Y-49256D02*
X92452Y-49275D01*
X92443Y-49284D01*
X92424Y-49293D01*
X92415Y-49293D01*
X92396Y-49284D01*
X92387Y-49275D01*
X92377Y-49256D01*
X92377Y-49218D01*
X92387Y-49200D01*
X92396Y-49190D01*
X92415Y-49181D01*
X92424Y-49181D01*
X92443Y-49190D01*
X92452Y-49200D01*
X92462Y-49218D01*
X92462Y-49256D01*
X92471Y-49275D01*
X92480Y-49284D01*
X92499Y-49293D01*
X92537Y-49293D01*
X92555Y-49284D01*
X92565Y-49275D01*
X92574Y-49256D01*
X92574Y-49218D01*
X92565Y-49200D01*
X92555Y-49190D01*
X92537Y-49181D01*
X92499Y-49181D01*
X92480Y-49190D01*
X92471Y-49200D01*
X92462Y-49218D01*
X92849Y-49472D02*
X92849Y-49584D01*
X92849Y-49528D02*
X92652Y-49528D01*
X92680Y-49547D01*
X92699Y-49566D01*
X92709Y-49584D01*
X92849Y-49387D02*
X92652Y-49387D01*
X92849Y-49275D02*
X92737Y-49359D01*
X92652Y-49275D02*
X92765Y-49387D01*
X86160Y-50392D02*
X86170Y-50402D01*
X86179Y-50430D01*
X86179Y-50449D01*
X86170Y-50477D01*
X86151Y-50496D01*
X86132Y-50505D01*
X86095Y-50514D01*
X86067Y-50514D01*
X86029Y-50505D01*
X86010Y-50496D01*
X85992Y-50477D01*
X85982Y-50449D01*
X85982Y-50430D01*
X85992Y-50402D01*
X86001Y-50392D01*
X85982Y-50327D02*
X85982Y-50205D01*
X86057Y-50270D01*
X86057Y-50242D01*
X86067Y-50223D01*
X86076Y-50214D01*
X86095Y-50205D01*
X86142Y-50205D01*
X86160Y-50214D01*
X86170Y-50223D01*
X86179Y-50242D01*
X86179Y-50299D01*
X86170Y-50317D01*
X86160Y-50327D01*
X86209Y-49852D02*
X86209Y-49965D01*
X86209Y-49909D02*
X86012Y-49909D01*
X86040Y-49927D01*
X86059Y-49946D01*
X86069Y-49965D01*
X86078Y-49683D02*
X86209Y-49683D01*
X86078Y-49768D02*
X86181Y-49768D01*
X86200Y-49759D01*
X86209Y-49740D01*
X86209Y-49712D01*
X86200Y-49693D01*
X86190Y-49683D01*
X94984Y-47956D02*
X94890Y-48022D01*
X94984Y-48069D02*
X94787Y-48069D01*
X94787Y-47994D01*
X94797Y-47975D01*
X94806Y-47966D01*
X94825Y-47956D01*
X94853Y-47956D01*
X94872Y-47966D01*
X94881Y-47975D01*
X94890Y-47994D01*
X94890Y-48069D01*
X94984Y-47769D02*
X94984Y-47881D01*
X94984Y-47825D02*
X94787Y-47825D01*
X94815Y-47844D01*
X94834Y-47862D01*
X94844Y-47881D01*
X94787Y-47600D02*
X94787Y-47637D01*
X94797Y-47656D01*
X94806Y-47665D01*
X94834Y-47684D01*
X94872Y-47693D01*
X94947Y-47693D01*
X94965Y-47684D01*
X94975Y-47675D01*
X94984Y-47656D01*
X94984Y-47618D01*
X94975Y-47600D01*
X94965Y-47590D01*
X94947Y-47581D01*
X94900Y-47581D01*
X94881Y-47590D01*
X94872Y-47600D01*
X94862Y-47618D01*
X94862Y-47656D01*
X94872Y-47675D01*
X94881Y-47684D01*
X94900Y-47693D01*
X95259Y-47966D02*
X95259Y-48078D01*
X95259Y-48022D02*
X95062Y-48022D01*
X95090Y-48041D01*
X95109Y-48059D01*
X95119Y-48078D01*
X95062Y-47844D02*
X95062Y-47825D01*
X95072Y-47806D01*
X95081Y-47797D01*
X95100Y-47787D01*
X95137Y-47778D01*
X95184Y-47778D01*
X95222Y-47787D01*
X95240Y-47797D01*
X95250Y-47806D01*
X95259Y-47825D01*
X95259Y-47844D01*
X95250Y-47862D01*
X95240Y-47872D01*
X95222Y-47881D01*
X95184Y-47890D01*
X95137Y-47890D01*
X95100Y-47881D01*
X95081Y-47872D01*
X95072Y-47862D01*
X95062Y-47844D01*
X95259Y-47693D02*
X95062Y-47693D01*
X95259Y-47581D02*
X95147Y-47665D01*
X95062Y-47581D02*
X95175Y-47693D01*
X93775Y-47936D02*
X93785Y-47946D01*
X93794Y-47974D01*
X93794Y-47992D01*
X93785Y-48021D01*
X93766Y-48039D01*
X93747Y-48049D01*
X93710Y-48058D01*
X93682Y-48058D01*
X93644Y-48049D01*
X93625Y-48039D01*
X93607Y-48021D01*
X93597Y-47992D01*
X93597Y-47974D01*
X93607Y-47946D01*
X93616Y-47936D01*
X93794Y-47749D02*
X93794Y-47861D01*
X93794Y-47805D02*
X93597Y-47805D01*
X93625Y-47824D01*
X93644Y-47842D01*
X93654Y-47861D01*
X93794Y-47561D02*
X93794Y-47673D01*
X93794Y-47617D02*
X93597Y-47617D01*
X93625Y-47636D01*
X93644Y-47655D01*
X93654Y-47673D01*
X94069Y-48030D02*
X94069Y-48143D01*
X94069Y-48086D02*
X93872Y-48086D01*
X93900Y-48105D01*
X93919Y-48124D01*
X93929Y-48143D01*
X93872Y-47908D02*
X93872Y-47889D01*
X93882Y-47870D01*
X93891Y-47861D01*
X93910Y-47852D01*
X93947Y-47842D01*
X93994Y-47842D01*
X94032Y-47852D01*
X94050Y-47861D01*
X94060Y-47870D01*
X94069Y-47889D01*
X94069Y-47908D01*
X94060Y-47927D01*
X94050Y-47936D01*
X94032Y-47946D01*
X93994Y-47955D01*
X93947Y-47955D01*
X93910Y-47946D01*
X93891Y-47936D01*
X93882Y-47927D01*
X93872Y-47908D01*
X93872Y-47720D02*
X93872Y-47702D01*
X93882Y-47683D01*
X93891Y-47673D01*
X93910Y-47664D01*
X93947Y-47655D01*
X93994Y-47655D01*
X94032Y-47664D01*
X94050Y-47673D01*
X94060Y-47683D01*
X94069Y-47702D01*
X94069Y-47720D01*
X94060Y-47739D01*
X94050Y-47749D01*
X94032Y-47758D01*
X93994Y-47767D01*
X93947Y-47767D01*
X93910Y-47758D01*
X93891Y-47749D01*
X93882Y-47739D01*
X93872Y-47720D01*
X93938Y-47570D02*
X94069Y-47570D01*
X93957Y-47570D02*
X93947Y-47561D01*
X93938Y-47542D01*
X93938Y-47514D01*
X93947Y-47495D01*
X93966Y-47486D01*
X94069Y-47486D01*
X97555Y-45096D02*
X97565Y-45106D01*
X97574Y-45134D01*
X97574Y-45152D01*
X97565Y-45181D01*
X97546Y-45199D01*
X97527Y-45209D01*
X97490Y-45218D01*
X97462Y-45218D01*
X97424Y-45209D01*
X97405Y-45199D01*
X97387Y-45181D01*
X97377Y-45152D01*
X97377Y-45134D01*
X97387Y-45106D01*
X97396Y-45096D01*
X97574Y-44909D02*
X97574Y-45021D01*
X97574Y-44965D02*
X97377Y-44965D01*
X97405Y-44984D01*
X97424Y-45002D01*
X97434Y-45021D01*
X97377Y-44787D02*
X97377Y-44768D01*
X97387Y-44749D01*
X97396Y-44740D01*
X97415Y-44730D01*
X97452Y-44721D01*
X97499Y-44721D01*
X97537Y-44730D01*
X97555Y-44740D01*
X97565Y-44749D01*
X97574Y-44768D01*
X97574Y-44787D01*
X97565Y-44805D01*
X97555Y-44815D01*
X97537Y-44824D01*
X97499Y-44833D01*
X97452Y-44833D01*
X97415Y-44824D01*
X97396Y-44815D01*
X97387Y-44805D01*
X97377Y-44787D01*
X97299Y-45190D02*
X97299Y-45303D01*
X97299Y-45246D02*
X97102Y-45246D01*
X97130Y-45265D01*
X97149Y-45284D01*
X97159Y-45303D01*
X97102Y-45068D02*
X97102Y-45049D01*
X97112Y-45030D01*
X97121Y-45021D01*
X97140Y-45012D01*
X97177Y-45002D01*
X97224Y-45002D01*
X97262Y-45012D01*
X97280Y-45021D01*
X97290Y-45030D01*
X97299Y-45049D01*
X97299Y-45068D01*
X97290Y-45087D01*
X97280Y-45096D01*
X97262Y-45106D01*
X97224Y-45115D01*
X97177Y-45115D01*
X97140Y-45106D01*
X97121Y-45096D01*
X97112Y-45087D01*
X97102Y-45068D01*
X97102Y-44880D02*
X97102Y-44862D01*
X97112Y-44843D01*
X97121Y-44833D01*
X97140Y-44824D01*
X97177Y-44815D01*
X97224Y-44815D01*
X97262Y-44824D01*
X97280Y-44833D01*
X97290Y-44843D01*
X97299Y-44862D01*
X97299Y-44880D01*
X97290Y-44899D01*
X97280Y-44909D01*
X97262Y-44918D01*
X97224Y-44927D01*
X97177Y-44927D01*
X97140Y-44918D01*
X97121Y-44909D01*
X97112Y-44899D01*
X97102Y-44880D01*
X97168Y-44730D02*
X97299Y-44730D01*
X97187Y-44730D02*
X97177Y-44721D01*
X97168Y-44702D01*
X97168Y-44674D01*
X97177Y-44655D01*
X97196Y-44646D01*
X97299Y-44646D01*
X96294Y-47986D02*
X96200Y-48052D01*
X96294Y-48099D02*
X96097Y-48099D01*
X96097Y-48024D01*
X96107Y-48005D01*
X96116Y-47996D01*
X96135Y-47986D01*
X96163Y-47986D01*
X96182Y-47996D01*
X96191Y-48005D01*
X96200Y-48024D01*
X96200Y-48099D01*
X96294Y-47799D02*
X96294Y-47911D01*
X96294Y-47855D02*
X96097Y-47855D01*
X96125Y-47874D01*
X96144Y-47892D01*
X96154Y-47911D01*
X96097Y-47620D02*
X96097Y-47714D01*
X96191Y-47723D01*
X96182Y-47714D01*
X96172Y-47695D01*
X96172Y-47648D01*
X96182Y-47630D01*
X96191Y-47620D01*
X96210Y-47611D01*
X96257Y-47611D01*
X96275Y-47620D01*
X96285Y-47630D01*
X96294Y-47648D01*
X96294Y-47695D01*
X96285Y-47714D01*
X96275Y-47723D01*
X95841Y-48108D02*
X95832Y-48099D01*
X95822Y-48080D01*
X95822Y-48033D01*
X95832Y-48014D01*
X95841Y-48005D01*
X95860Y-47996D01*
X95879Y-47996D01*
X95907Y-48005D01*
X96019Y-48117D01*
X96019Y-47996D01*
X95841Y-47920D02*
X95832Y-47911D01*
X95822Y-47892D01*
X95822Y-47845D01*
X95832Y-47827D01*
X95841Y-47817D01*
X95860Y-47808D01*
X95879Y-47808D01*
X95907Y-47817D01*
X96019Y-47930D01*
X96019Y-47808D01*
X96019Y-47723D02*
X95822Y-47723D01*
X96019Y-47611D02*
X95907Y-47695D01*
X95822Y-47611D02*
X95935Y-47723D01*
X90130Y-45752D02*
X90140Y-45762D01*
X90149Y-45790D01*
X90149Y-45809D01*
X90140Y-45837D01*
X90121Y-45856D01*
X90102Y-45865D01*
X90065Y-45874D01*
X90037Y-45874D01*
X89999Y-45865D01*
X89980Y-45856D01*
X89962Y-45837D01*
X89952Y-45809D01*
X89952Y-45790D01*
X89962Y-45762D01*
X89971Y-45752D01*
X90149Y-45659D02*
X90149Y-45621D01*
X90140Y-45602D01*
X90130Y-45593D01*
X90102Y-45574D01*
X90065Y-45565D01*
X89990Y-45565D01*
X89971Y-45574D01*
X89962Y-45583D01*
X89952Y-45602D01*
X89952Y-45640D01*
X89962Y-45659D01*
X89971Y-45668D01*
X89990Y-45677D01*
X90037Y-45677D01*
X90055Y-45668D01*
X90065Y-45659D01*
X90074Y-45640D01*
X90074Y-45602D01*
X90065Y-45583D01*
X90055Y-45574D01*
X90037Y-45565D01*
X90529Y-45490D02*
X90529Y-45603D01*
X90529Y-45546D02*
X90332Y-45546D01*
X90360Y-45565D01*
X90379Y-45584D01*
X90389Y-45603D01*
X90332Y-45368D02*
X90332Y-45349D01*
X90342Y-45330D01*
X90351Y-45321D01*
X90370Y-45312D01*
X90407Y-45302D01*
X90454Y-45302D01*
X90492Y-45312D01*
X90510Y-45321D01*
X90520Y-45330D01*
X90529Y-45349D01*
X90529Y-45368D01*
X90520Y-45387D01*
X90510Y-45396D01*
X90492Y-45406D01*
X90454Y-45415D01*
X90407Y-45415D01*
X90370Y-45406D01*
X90351Y-45396D01*
X90342Y-45387D01*
X90332Y-45368D01*
X90332Y-45180D02*
X90332Y-45162D01*
X90342Y-45143D01*
X90351Y-45133D01*
X90370Y-45124D01*
X90407Y-45115D01*
X90454Y-45115D01*
X90492Y-45124D01*
X90510Y-45133D01*
X90520Y-45143D01*
X90529Y-45162D01*
X90529Y-45180D01*
X90520Y-45199D01*
X90510Y-45209D01*
X90492Y-45218D01*
X90454Y-45227D01*
X90407Y-45227D01*
X90370Y-45218D01*
X90351Y-45209D01*
X90342Y-45199D01*
X90332Y-45180D01*
X90398Y-45030D02*
X90529Y-45030D01*
X90417Y-45030D02*
X90407Y-45021D01*
X90398Y-45002D01*
X90398Y-44974D01*
X90407Y-44955D01*
X90426Y-44946D01*
X90529Y-44946D01*
X92414Y-45636D02*
X92320Y-45702D01*
X92414Y-45749D02*
X92217Y-45749D01*
X92217Y-45674D01*
X92227Y-45655D01*
X92236Y-45646D01*
X92255Y-45636D01*
X92283Y-45636D01*
X92302Y-45646D01*
X92311Y-45655D01*
X92320Y-45674D01*
X92320Y-45749D01*
X92414Y-45449D02*
X92414Y-45561D01*
X92414Y-45505D02*
X92217Y-45505D01*
X92245Y-45524D01*
X92264Y-45542D01*
X92274Y-45561D01*
X92283Y-45280D02*
X92414Y-45280D01*
X92208Y-45327D02*
X92349Y-45373D01*
X92349Y-45252D01*
X92689Y-45552D02*
X92689Y-45664D01*
X92689Y-45608D02*
X92492Y-45608D01*
X92520Y-45627D01*
X92539Y-45646D01*
X92549Y-45664D01*
X92689Y-45467D02*
X92492Y-45467D01*
X92689Y-45355D02*
X92577Y-45439D01*
X92492Y-45355D02*
X92605Y-45467D01*
X86363Y-47409D02*
X86297Y-47315D01*
X86250Y-47409D02*
X86250Y-47212D01*
X86325Y-47212D01*
X86344Y-47222D01*
X86353Y-47231D01*
X86363Y-47250D01*
X86363Y-47278D01*
X86353Y-47297D01*
X86344Y-47306D01*
X86325Y-47315D01*
X86250Y-47315D01*
X86550Y-47409D02*
X86438Y-47409D01*
X86494Y-47409D02*
X86494Y-47212D01*
X86475Y-47240D01*
X86457Y-47259D01*
X86438Y-47269D01*
X86626Y-47231D02*
X86635Y-47222D01*
X86654Y-47212D01*
X86701Y-47212D01*
X86719Y-47222D01*
X86729Y-47231D01*
X86738Y-47250D01*
X86738Y-47269D01*
X86729Y-47297D01*
X86616Y-47409D01*
X86738Y-47409D01*
X87005Y-47258D02*
X87005Y-47389D01*
X86958Y-47183D02*
X86911Y-47324D01*
X87033Y-47324D01*
X87089Y-47192D02*
X87220Y-47192D01*
X87136Y-47389D01*
X87296Y-47389D02*
X87296Y-47192D01*
X87408Y-47389D02*
X87324Y-47277D01*
X87408Y-47192D02*
X87296Y-47305D01*
X90023Y-46519D02*
X89957Y-46425D01*
X89910Y-46519D02*
X89910Y-46322D01*
X89985Y-46322D01*
X90004Y-46332D01*
X90013Y-46341D01*
X90023Y-46360D01*
X90023Y-46388D01*
X90013Y-46407D01*
X90004Y-46416D01*
X89985Y-46425D01*
X89910Y-46425D01*
X90210Y-46519D02*
X90098Y-46519D01*
X90154Y-46519D02*
X90154Y-46322D01*
X90135Y-46350D01*
X90117Y-46369D01*
X90098Y-46379D01*
X90276Y-46322D02*
X90398Y-46322D01*
X90332Y-46397D01*
X90361Y-46397D01*
X90379Y-46407D01*
X90389Y-46416D01*
X90398Y-46435D01*
X90398Y-46482D01*
X90389Y-46500D01*
X90379Y-46510D01*
X90361Y-46519D01*
X90304Y-46519D01*
X90286Y-46510D01*
X90276Y-46500D01*
X91210Y-46509D02*
X91097Y-46509D01*
X91153Y-46509D02*
X91153Y-46312D01*
X91135Y-46340D01*
X91116Y-46359D01*
X91097Y-46369D01*
X91332Y-46312D02*
X91350Y-46312D01*
X91369Y-46322D01*
X91379Y-46331D01*
X91388Y-46350D01*
X91397Y-46387D01*
X91397Y-46434D01*
X91388Y-46472D01*
X91379Y-46490D01*
X91369Y-46500D01*
X91350Y-46509D01*
X91332Y-46509D01*
X91313Y-46500D01*
X91303Y-46490D01*
X91294Y-46472D01*
X91285Y-46434D01*
X91285Y-46387D01*
X91294Y-46350D01*
X91303Y-46331D01*
X91313Y-46322D01*
X91332Y-46312D01*
X91519Y-46312D02*
X91538Y-46312D01*
X91557Y-46322D01*
X91566Y-46331D01*
X91576Y-46350D01*
X91585Y-46387D01*
X91585Y-46434D01*
X91576Y-46472D01*
X91566Y-46490D01*
X91557Y-46500D01*
X91538Y-46509D01*
X91519Y-46509D01*
X91500Y-46500D01*
X91491Y-46490D01*
X91482Y-46472D01*
X91472Y-46434D01*
X91472Y-46387D01*
X91482Y-46350D01*
X91491Y-46331D01*
X91500Y-46322D01*
X91519Y-46312D01*
X91669Y-46509D02*
X91669Y-46312D01*
X91782Y-46509D02*
X91697Y-46397D01*
X91782Y-46312D02*
X91669Y-46425D01*
X87659Y-46756D02*
X87565Y-46822D01*
X87659Y-46869D02*
X87462Y-46869D01*
X87462Y-46794D01*
X87472Y-46775D01*
X87481Y-46766D01*
X87500Y-46756D01*
X87528Y-46756D01*
X87547Y-46766D01*
X87556Y-46775D01*
X87565Y-46794D01*
X87565Y-46869D01*
X87659Y-46569D02*
X87659Y-46681D01*
X87659Y-46625D02*
X87462Y-46625D01*
X87490Y-46644D01*
X87509Y-46662D01*
X87519Y-46681D01*
X87659Y-46381D02*
X87659Y-46493D01*
X87659Y-46437D02*
X87462Y-46437D01*
X87490Y-46456D01*
X87509Y-46475D01*
X87519Y-46493D01*
X87462Y-46264D02*
X87462Y-46142D01*
X87537Y-46207D01*
X87537Y-46179D01*
X87547Y-46160D01*
X87556Y-46151D01*
X87575Y-46142D01*
X87622Y-46142D01*
X87640Y-46151D01*
X87650Y-46160D01*
X87659Y-46179D01*
X87659Y-46236D01*
X87650Y-46254D01*
X87640Y-46264D01*
X87659Y-46057D02*
X87462Y-46057D01*
X87659Y-45945D02*
X87547Y-46029D01*
X87462Y-45945D02*
X87575Y-46057D01*
X83919Y-50776D02*
X83825Y-50842D01*
X83919Y-50889D02*
X83722Y-50889D01*
X83722Y-50814D01*
X83732Y-50795D01*
X83741Y-50786D01*
X83760Y-50776D01*
X83788Y-50776D01*
X83807Y-50786D01*
X83816Y-50795D01*
X83825Y-50814D01*
X83825Y-50889D01*
X83919Y-50589D02*
X83919Y-50701D01*
X83919Y-50645D02*
X83722Y-50645D01*
X83750Y-50664D01*
X83769Y-50682D01*
X83779Y-50701D01*
X83722Y-50467D02*
X83722Y-50448D01*
X83732Y-50429D01*
X83741Y-50420D01*
X83760Y-50410D01*
X83797Y-50401D01*
X83844Y-50401D01*
X83882Y-50410D01*
X83900Y-50420D01*
X83910Y-50429D01*
X83919Y-50448D01*
X83919Y-50467D01*
X83910Y-50485D01*
X83900Y-50495D01*
X83882Y-50504D01*
X83844Y-50513D01*
X83797Y-50513D01*
X83760Y-50504D01*
X83741Y-50495D01*
X83732Y-50485D01*
X83722Y-50467D01*
X83869Y-50086D02*
X83869Y-50198D01*
X83869Y-50142D02*
X83672Y-50142D01*
X83700Y-50161D01*
X83719Y-50179D01*
X83729Y-50198D01*
X83672Y-49964D02*
X83672Y-49945D01*
X83682Y-49926D01*
X83691Y-49917D01*
X83710Y-49907D01*
X83747Y-49898D01*
X83794Y-49898D01*
X83832Y-49907D01*
X83850Y-49917D01*
X83860Y-49926D01*
X83869Y-49945D01*
X83869Y-49964D01*
X83860Y-49982D01*
X83850Y-49992D01*
X83832Y-50001D01*
X83794Y-50010D01*
X83747Y-50010D01*
X83710Y-50001D01*
X83691Y-49992D01*
X83682Y-49982D01*
X83672Y-49964D01*
X83869Y-49813D02*
X83672Y-49813D01*
X83869Y-49701D02*
X83757Y-49785D01*
X83672Y-49701D02*
X83785Y-49813D01*
X82027Y-42459D02*
X81961Y-42365D01*
X81914Y-42459D02*
X81914Y-42262D01*
X81989Y-42262D01*
X82008Y-42272D01*
X82017Y-42281D01*
X82027Y-42300D01*
X82027Y-42328D01*
X82017Y-42347D01*
X82008Y-42356D01*
X81989Y-42365D01*
X81914Y-42365D01*
X82214Y-42459D02*
X82102Y-42459D01*
X82158Y-42459D02*
X82158Y-42262D01*
X82139Y-42290D01*
X82120Y-42309D01*
X82102Y-42319D01*
X82579Y-42358D02*
X82579Y-42489D01*
X82533Y-42283D02*
X82486Y-42424D01*
X82608Y-42424D01*
X82692Y-42489D02*
X82730Y-42489D01*
X82748Y-42480D01*
X82758Y-42470D01*
X82776Y-42442D01*
X82786Y-42405D01*
X82786Y-42330D01*
X82776Y-42311D01*
X82767Y-42302D01*
X82748Y-42292D01*
X82711Y-42292D01*
X82692Y-42302D01*
X82683Y-42311D01*
X82673Y-42330D01*
X82673Y-42377D01*
X82683Y-42395D01*
X82692Y-42405D01*
X82711Y-42414D01*
X82748Y-42414D01*
X82767Y-42405D01*
X82776Y-42395D01*
X82786Y-42377D01*
X82880Y-42489D02*
X82917Y-42489D01*
X82936Y-42480D01*
X82945Y-42470D01*
X82964Y-42442D01*
X82973Y-42405D01*
X82973Y-42330D01*
X82964Y-42311D01*
X82955Y-42302D01*
X82936Y-42292D01*
X82898Y-42292D01*
X82880Y-42302D01*
X82870Y-42311D01*
X82861Y-42330D01*
X82861Y-42377D01*
X82870Y-42395D01*
X82880Y-42405D01*
X82898Y-42414D01*
X82936Y-42414D01*
X82955Y-42405D01*
X82964Y-42395D01*
X82973Y-42377D01*
X73852Y-49144D02*
X73786Y-49050D01*
X73739Y-49144D02*
X73739Y-48947D01*
X73814Y-48947D01*
X73833Y-48957D01*
X73842Y-48966D01*
X73852Y-48985D01*
X73852Y-49013D01*
X73842Y-49032D01*
X73833Y-49041D01*
X73814Y-49050D01*
X73739Y-49050D01*
X73945Y-49144D02*
X73983Y-49144D01*
X74002Y-49135D01*
X74011Y-49125D01*
X74030Y-49097D01*
X74039Y-49060D01*
X74039Y-48985D01*
X74030Y-48966D01*
X74021Y-48957D01*
X74002Y-48947D01*
X73964Y-48947D01*
X73945Y-48957D01*
X73936Y-48966D01*
X73927Y-48985D01*
X73927Y-49032D01*
X73936Y-49050D01*
X73945Y-49060D01*
X73964Y-49069D01*
X74002Y-49069D01*
X74021Y-49060D01*
X74030Y-49050D01*
X74039Y-49032D01*
X73842Y-49419D02*
X73730Y-49419D01*
X73786Y-49419D02*
X73786Y-49222D01*
X73767Y-49250D01*
X73748Y-49269D01*
X73730Y-49279D01*
X73927Y-49419D02*
X73927Y-49222D01*
X74039Y-49419D02*
X73955Y-49307D01*
X74039Y-49222D02*
X73927Y-49335D01*
X84999Y-42592D02*
X84905Y-42658D01*
X84999Y-42705D02*
X84802Y-42705D01*
X84802Y-42630D01*
X84812Y-42611D01*
X84821Y-42602D01*
X84840Y-42592D01*
X84868Y-42592D01*
X84887Y-42602D01*
X84896Y-42611D01*
X84905Y-42630D01*
X84905Y-42705D01*
X84802Y-42527D02*
X84802Y-42405D01*
X84877Y-42470D01*
X84877Y-42442D01*
X84887Y-42423D01*
X84896Y-42414D01*
X84915Y-42405D01*
X84962Y-42405D01*
X84980Y-42414D01*
X84990Y-42423D01*
X84999Y-42442D01*
X84999Y-42499D01*
X84990Y-42517D01*
X84980Y-42527D01*
X84868Y-42130D02*
X84999Y-42130D01*
X84793Y-42176D02*
X84934Y-42223D01*
X84934Y-42101D01*
X84999Y-42017D02*
X84999Y-41980D01*
X84990Y-41961D01*
X84980Y-41951D01*
X84952Y-41933D01*
X84915Y-41923D01*
X84840Y-41923D01*
X84821Y-41933D01*
X84812Y-41942D01*
X84802Y-41961D01*
X84802Y-41998D01*
X84812Y-42017D01*
X84821Y-42026D01*
X84840Y-42036D01*
X84887Y-42036D01*
X84905Y-42026D01*
X84915Y-42017D01*
X84924Y-41998D01*
X84924Y-41961D01*
X84915Y-41942D01*
X84905Y-41933D01*
X84887Y-41923D01*
X84999Y-41829D02*
X84999Y-41792D01*
X84990Y-41773D01*
X84980Y-41764D01*
X84952Y-41745D01*
X84915Y-41736D01*
X84840Y-41736D01*
X84821Y-41745D01*
X84812Y-41754D01*
X84802Y-41773D01*
X84802Y-41811D01*
X84812Y-41829D01*
X84821Y-41839D01*
X84840Y-41848D01*
X84887Y-41848D01*
X84905Y-41839D01*
X84915Y-41829D01*
X84924Y-41811D01*
X84924Y-41773D01*
X84915Y-41754D01*
X84905Y-41745D01*
X84887Y-41736D01*
X86429Y-42622D02*
X86335Y-42688D01*
X86429Y-42735D02*
X86232Y-42735D01*
X86232Y-42660D01*
X86242Y-42641D01*
X86251Y-42632D01*
X86270Y-42622D01*
X86298Y-42622D01*
X86317Y-42632D01*
X86326Y-42641D01*
X86335Y-42660D01*
X86335Y-42735D01*
X86298Y-42453D02*
X86429Y-42453D01*
X86223Y-42500D02*
X86364Y-42547D01*
X86364Y-42425D01*
X86288Y-42100D02*
X86419Y-42100D01*
X86213Y-42146D02*
X86354Y-42193D01*
X86354Y-42071D01*
X86419Y-41987D02*
X86419Y-41950D01*
X86410Y-41931D01*
X86400Y-41921D01*
X86372Y-41903D01*
X86335Y-41893D01*
X86260Y-41893D01*
X86241Y-41903D01*
X86232Y-41912D01*
X86222Y-41931D01*
X86222Y-41968D01*
X86232Y-41987D01*
X86241Y-41996D01*
X86260Y-42006D01*
X86307Y-42006D01*
X86325Y-41996D01*
X86335Y-41987D01*
X86344Y-41968D01*
X86344Y-41931D01*
X86335Y-41912D01*
X86325Y-41903D01*
X86307Y-41893D01*
X86419Y-41799D02*
X86419Y-41762D01*
X86410Y-41743D01*
X86400Y-41734D01*
X86372Y-41715D01*
X86335Y-41706D01*
X86260Y-41706D01*
X86241Y-41715D01*
X86232Y-41724D01*
X86222Y-41743D01*
X86222Y-41781D01*
X86232Y-41799D01*
X86241Y-41809D01*
X86260Y-41818D01*
X86307Y-41818D01*
X86325Y-41809D01*
X86335Y-41799D01*
X86344Y-41781D01*
X86344Y-41743D01*
X86335Y-41724D01*
X86325Y-41715D01*
X86307Y-41706D01*
X87869Y-42612D02*
X87775Y-42678D01*
X87869Y-42725D02*
X87672Y-42725D01*
X87672Y-42650D01*
X87682Y-42631D01*
X87691Y-42622D01*
X87710Y-42612D01*
X87738Y-42612D01*
X87757Y-42622D01*
X87766Y-42631D01*
X87775Y-42650D01*
X87775Y-42725D01*
X87672Y-42434D02*
X87672Y-42528D01*
X87766Y-42537D01*
X87757Y-42528D01*
X87747Y-42509D01*
X87747Y-42462D01*
X87757Y-42443D01*
X87766Y-42434D01*
X87785Y-42425D01*
X87832Y-42425D01*
X87850Y-42434D01*
X87860Y-42443D01*
X87869Y-42462D01*
X87869Y-42509D01*
X87860Y-42528D01*
X87850Y-42537D01*
X87748Y-42090D02*
X87879Y-42090D01*
X87673Y-42136D02*
X87814Y-42183D01*
X87814Y-42061D01*
X87879Y-41977D02*
X87879Y-41940D01*
X87870Y-41921D01*
X87860Y-41911D01*
X87832Y-41893D01*
X87795Y-41883D01*
X87720Y-41883D01*
X87701Y-41893D01*
X87692Y-41902D01*
X87682Y-41921D01*
X87682Y-41958D01*
X87692Y-41977D01*
X87701Y-41986D01*
X87720Y-41996D01*
X87767Y-41996D01*
X87785Y-41986D01*
X87795Y-41977D01*
X87804Y-41958D01*
X87804Y-41921D01*
X87795Y-41902D01*
X87785Y-41893D01*
X87767Y-41883D01*
X87879Y-41789D02*
X87879Y-41752D01*
X87870Y-41733D01*
X87860Y-41724D01*
X87832Y-41705D01*
X87795Y-41696D01*
X87720Y-41696D01*
X87701Y-41705D01*
X87692Y-41714D01*
X87682Y-41733D01*
X87682Y-41771D01*
X87692Y-41789D01*
X87701Y-41799D01*
X87720Y-41808D01*
X87767Y-41808D01*
X87785Y-41799D01*
X87795Y-41789D01*
X87804Y-41771D01*
X87804Y-41733D01*
X87795Y-41714D01*
X87785Y-41705D01*
X87767Y-41696D01*
X97374Y-55672D02*
X97280Y-55738D01*
X97374Y-55785D02*
X97177Y-55785D01*
X97177Y-55710D01*
X97187Y-55691D01*
X97196Y-55682D01*
X97215Y-55672D01*
X97243Y-55672D01*
X97262Y-55682D01*
X97271Y-55691D01*
X97280Y-55710D01*
X97280Y-55785D01*
X97262Y-55560D02*
X97252Y-55579D01*
X97243Y-55588D01*
X97224Y-55597D01*
X97215Y-55597D01*
X97196Y-55588D01*
X97187Y-55579D01*
X97177Y-55560D01*
X97177Y-55522D01*
X97187Y-55503D01*
X97196Y-55494D01*
X97215Y-55485D01*
X97224Y-55485D01*
X97243Y-55494D01*
X97252Y-55503D01*
X97262Y-55522D01*
X97262Y-55560D01*
X97271Y-55579D01*
X97280Y-55588D01*
X97299Y-55597D01*
X97337Y-55597D01*
X97355Y-55588D01*
X97365Y-55579D01*
X97374Y-55560D01*
X97374Y-55522D01*
X97365Y-55503D01*
X97355Y-55494D01*
X97337Y-55485D01*
X97299Y-55485D01*
X97280Y-55494D01*
X97271Y-55503D01*
X97262Y-55522D01*
X97471Y-55935D02*
X97462Y-55926D01*
X97452Y-55907D01*
X97452Y-55860D01*
X97462Y-55841D01*
X97471Y-55832D01*
X97490Y-55822D01*
X97509Y-55822D01*
X97537Y-55832D01*
X97649Y-55944D01*
X97649Y-55822D01*
X97630Y-55738D02*
X97640Y-55729D01*
X97649Y-55738D01*
X97640Y-55747D01*
X97630Y-55738D01*
X97649Y-55738D01*
X97471Y-55654D02*
X97462Y-55644D01*
X97452Y-55625D01*
X97452Y-55579D01*
X97462Y-55560D01*
X97471Y-55550D01*
X97490Y-55541D01*
X97509Y-55541D01*
X97537Y-55550D01*
X97649Y-55663D01*
X97649Y-55541D01*
X97649Y-55457D02*
X97452Y-55457D01*
X97649Y-55344D02*
X97537Y-55428D01*
X97452Y-55344D02*
X97565Y-55457D01*
X94967Y-41994D02*
X94901Y-41900D01*
X94854Y-41994D02*
X94854Y-41797D01*
X94929Y-41797D01*
X94948Y-41807D01*
X94957Y-41816D01*
X94967Y-41835D01*
X94967Y-41863D01*
X94957Y-41882D01*
X94948Y-41891D01*
X94929Y-41900D01*
X94854Y-41900D01*
X95032Y-41797D02*
X95164Y-41797D01*
X95079Y-41994D01*
X94849Y-41588D02*
X94849Y-41719D01*
X94803Y-41513D02*
X94756Y-41654D01*
X94878Y-41654D01*
X94962Y-41719D02*
X95000Y-41719D01*
X95018Y-41710D01*
X95028Y-41700D01*
X95046Y-41672D01*
X95056Y-41635D01*
X95056Y-41560D01*
X95046Y-41541D01*
X95037Y-41532D01*
X95018Y-41522D01*
X94981Y-41522D01*
X94962Y-41532D01*
X94953Y-41541D01*
X94943Y-41560D01*
X94943Y-41607D01*
X94953Y-41625D01*
X94962Y-41635D01*
X94981Y-41644D01*
X95018Y-41644D01*
X95037Y-41635D01*
X95046Y-41625D01*
X95056Y-41607D01*
X95150Y-41719D02*
X95187Y-41719D01*
X95206Y-41710D01*
X95215Y-41700D01*
X95234Y-41672D01*
X95243Y-41635D01*
X95243Y-41560D01*
X95234Y-41541D01*
X95225Y-41532D01*
X95206Y-41522D01*
X95168Y-41522D01*
X95150Y-41532D01*
X95140Y-41541D01*
X95131Y-41560D01*
X95131Y-41607D01*
X95140Y-41625D01*
X95150Y-41635D01*
X95168Y-41644D01*
X95206Y-41644D01*
X95225Y-41635D01*
X95234Y-41625D01*
X95243Y-41607D01*
X90767Y-42359D02*
X90701Y-42265D01*
X90654Y-42359D02*
X90654Y-42162D01*
X90729Y-42162D01*
X90748Y-42172D01*
X90757Y-42181D01*
X90767Y-42200D01*
X90767Y-42228D01*
X90757Y-42247D01*
X90748Y-42256D01*
X90729Y-42265D01*
X90654Y-42265D01*
X90936Y-42162D02*
X90898Y-42162D01*
X90879Y-42172D01*
X90870Y-42181D01*
X90851Y-42209D01*
X90842Y-42247D01*
X90842Y-42322D01*
X90851Y-42340D01*
X90860Y-42350D01*
X90879Y-42359D01*
X90917Y-42359D01*
X90936Y-42350D01*
X90945Y-42340D01*
X90954Y-42322D01*
X90954Y-42275D01*
X90945Y-42256D01*
X90936Y-42247D01*
X90917Y-42237D01*
X90879Y-42237D01*
X90860Y-42247D01*
X90851Y-42256D01*
X90842Y-42275D01*
X91309Y-42218D02*
X91309Y-42349D01*
X91263Y-42143D02*
X91216Y-42284D01*
X91338Y-42284D01*
X91422Y-42349D02*
X91460Y-42349D01*
X91478Y-42340D01*
X91488Y-42330D01*
X91506Y-42302D01*
X91516Y-42265D01*
X91516Y-42190D01*
X91506Y-42171D01*
X91497Y-42162D01*
X91478Y-42152D01*
X91441Y-42152D01*
X91422Y-42162D01*
X91413Y-42171D01*
X91403Y-42190D01*
X91403Y-42237D01*
X91413Y-42255D01*
X91422Y-42265D01*
X91441Y-42274D01*
X91478Y-42274D01*
X91497Y-42265D01*
X91506Y-42255D01*
X91516Y-42237D01*
X91610Y-42349D02*
X91647Y-42349D01*
X91666Y-42340D01*
X91675Y-42330D01*
X91694Y-42302D01*
X91703Y-42265D01*
X91703Y-42190D01*
X91694Y-42171D01*
X91685Y-42162D01*
X91666Y-42152D01*
X91628Y-42152D01*
X91610Y-42162D01*
X91600Y-42171D01*
X91591Y-42190D01*
X91591Y-42237D01*
X91600Y-42255D01*
X91610Y-42265D01*
X91628Y-42274D01*
X91666Y-42274D01*
X91685Y-42265D01*
X91694Y-42255D01*
X91703Y-42237D01*
G54D11*
X89087Y-42428D02*
X89201Y-42428D01*
X89144Y-42628D02*
X89144Y-42428D01*
X89268Y-42628D02*
X89268Y-42428D01*
X89344Y-42428D01*
X89363Y-42438D01*
X89373Y-42448D01*
X89382Y-42467D01*
X89382Y-42495D01*
X89373Y-42514D01*
X89363Y-42524D01*
X89344Y-42533D01*
X89268Y-42533D01*
X89554Y-42428D02*
X89516Y-42428D01*
X89497Y-42438D01*
X89487Y-42448D01*
X89468Y-42476D01*
X89459Y-42514D01*
X89459Y-42590D01*
X89468Y-42609D01*
X89478Y-42619D01*
X89497Y-42628D01*
X89535Y-42628D01*
X89554Y-42619D01*
X89563Y-42609D01*
X89573Y-42590D01*
X89573Y-42543D01*
X89563Y-42524D01*
X89554Y-42514D01*
X89535Y-42505D01*
X89497Y-42505D01*
X89478Y-42514D01*
X89468Y-42524D01*
X89459Y-42543D01*
G54D14*
X89261Y-41701D02*
X89318Y-41701D01*
X89290Y-41801D02*
X89290Y-41701D01*
X89351Y-41801D02*
X89351Y-41701D01*
X89390Y-41701D01*
X89399Y-41705D01*
X89404Y-41710D01*
X89409Y-41720D01*
X89409Y-41734D01*
X89404Y-41743D01*
X89399Y-41748D01*
X89390Y-41753D01*
X89351Y-41753D01*
G54D11*
X77637Y-42410D02*
X77751Y-42410D01*
X77694Y-42610D02*
X77694Y-42410D01*
X77818Y-42610D02*
X77818Y-42410D01*
X77894Y-42410D01*
X77913Y-42420D01*
X77923Y-42430D01*
X77932Y-42449D01*
X77932Y-42477D01*
X77923Y-42496D01*
X77913Y-42506D01*
X77894Y-42515D01*
X77818Y-42515D01*
X78123Y-42610D02*
X78009Y-42610D01*
X78066Y-42610D02*
X78066Y-42410D01*
X78047Y-42439D01*
X78028Y-42458D01*
X78009Y-42468D01*
G54D14*
X78131Y-41711D02*
X78188Y-41711D01*
X78160Y-41811D02*
X78160Y-41711D01*
X78221Y-41811D02*
X78221Y-41711D01*
X78260Y-41711D01*
X78269Y-41715D01*
X78274Y-41720D01*
X78279Y-41730D01*
X78279Y-41744D01*
X78274Y-41753D01*
X78269Y-41758D01*
X78260Y-41763D01*
X78221Y-41763D01*
G54D11*
X76807Y-42488D02*
X76921Y-42488D01*
X76864Y-42688D02*
X76864Y-42488D01*
X76988Y-42688D02*
X76988Y-42488D01*
X77064Y-42488D01*
X77083Y-42498D01*
X77093Y-42508D01*
X77102Y-42527D01*
X77102Y-42555D01*
X77093Y-42574D01*
X77083Y-42584D01*
X77064Y-42593D01*
X76988Y-42593D01*
X77179Y-42508D02*
X77188Y-42498D01*
X77207Y-42488D01*
X77255Y-42488D01*
X77274Y-42498D01*
X77283Y-42508D01*
X77293Y-42527D01*
X77293Y-42546D01*
X77283Y-42574D01*
X77169Y-42688D01*
X77293Y-42688D01*
G54D14*
X76981Y-41761D02*
X77038Y-41761D01*
X77010Y-41861D02*
X77010Y-41761D01*
X77071Y-41861D02*
X77071Y-41761D01*
X77110Y-41761D01*
X77119Y-41765D01*
X77124Y-41770D01*
X77129Y-41780D01*
X77129Y-41794D01*
X77124Y-41803D01*
X77119Y-41808D01*
X77110Y-41813D01*
X77071Y-41813D01*
G54D11*
X75557Y-42488D02*
X75671Y-42488D01*
X75614Y-42688D02*
X75614Y-42488D01*
X75738Y-42688D02*
X75738Y-42488D01*
X75814Y-42488D01*
X75833Y-42498D01*
X75843Y-42508D01*
X75852Y-42527D01*
X75852Y-42555D01*
X75843Y-42574D01*
X75833Y-42584D01*
X75814Y-42593D01*
X75738Y-42593D01*
X75919Y-42488D02*
X76043Y-42488D01*
X75976Y-42565D01*
X76005Y-42565D01*
X76024Y-42574D01*
X76033Y-42584D01*
X76043Y-42603D01*
X76043Y-42650D01*
X76033Y-42669D01*
X76024Y-42679D01*
X76005Y-42688D01*
X75948Y-42688D01*
X75929Y-42679D01*
X75919Y-42669D01*
G54D14*
X75731Y-41761D02*
X75788Y-41761D01*
X75760Y-41861D02*
X75760Y-41761D01*
X75821Y-41861D02*
X75821Y-41761D01*
X75860Y-41761D01*
X75869Y-41765D01*
X75874Y-41770D01*
X75879Y-41780D01*
X75879Y-41794D01*
X75874Y-41803D01*
X75869Y-41808D01*
X75860Y-41813D01*
X75821Y-41813D01*
G54D11*
X80167Y-41690D02*
X80281Y-41690D01*
X80224Y-41890D02*
X80224Y-41690D01*
X80348Y-41890D02*
X80348Y-41690D01*
X80424Y-41690D01*
X80443Y-41700D01*
X80453Y-41710D01*
X80462Y-41729D01*
X80462Y-41757D01*
X80453Y-41776D01*
X80443Y-41786D01*
X80424Y-41795D01*
X80348Y-41795D01*
X80634Y-41757D02*
X80634Y-41890D01*
X80586Y-41681D02*
X80539Y-41824D01*
X80662Y-41824D01*
G54D14*
X79481Y-41761D02*
X79538Y-41761D01*
X79510Y-41861D02*
X79510Y-41761D01*
X79571Y-41861D02*
X79571Y-41761D01*
X79610Y-41761D01*
X79619Y-41765D01*
X79624Y-41770D01*
X79629Y-41780D01*
X79629Y-41794D01*
X79624Y-41803D01*
X79619Y-41808D01*
X79610Y-41813D01*
X79571Y-41813D01*
G54D11*
X93137Y-42388D02*
X93251Y-42388D01*
X93194Y-42588D02*
X93194Y-42388D01*
X93318Y-42588D02*
X93318Y-42388D01*
X93394Y-42388D01*
X93413Y-42398D01*
X93423Y-42408D01*
X93432Y-42427D01*
X93432Y-42455D01*
X93423Y-42474D01*
X93413Y-42484D01*
X93394Y-42493D01*
X93318Y-42493D01*
X93613Y-42388D02*
X93518Y-42388D01*
X93509Y-42484D01*
X93518Y-42474D01*
X93537Y-42465D01*
X93585Y-42465D01*
X93604Y-42474D01*
X93613Y-42484D01*
X93623Y-42503D01*
X93623Y-42550D01*
X93613Y-42569D01*
X93604Y-42579D01*
X93585Y-42588D01*
X93537Y-42588D01*
X93518Y-42579D01*
X93509Y-42569D01*
G54D14*
X93311Y-41661D02*
X93368Y-41661D01*
X93340Y-41761D02*
X93340Y-41661D01*
X93401Y-41761D02*
X93401Y-41661D01*
X93440Y-41661D01*
X93449Y-41665D01*
X93454Y-41670D01*
X93459Y-41680D01*
X93459Y-41694D01*
X93454Y-41703D01*
X93449Y-41708D01*
X93440Y-41713D01*
X93401Y-41713D01*
G54D11*
X77022Y-55838D02*
X77136Y-55838D01*
X77079Y-56038D02*
X77079Y-55838D01*
X77203Y-56038D02*
X77203Y-55838D01*
X77279Y-55838D01*
X77298Y-55848D01*
X77308Y-55858D01*
X77317Y-55877D01*
X77317Y-55905D01*
X77308Y-55924D01*
X77298Y-55934D01*
X77279Y-55943D01*
X77203Y-55943D01*
X77508Y-56038D02*
X77393Y-56038D01*
X77450Y-56038D02*
X77450Y-55838D01*
X77431Y-55867D01*
X77412Y-55886D01*
X77393Y-55896D01*
X77574Y-55838D02*
X77698Y-55838D01*
X77631Y-55915D01*
X77660Y-55915D01*
X77679Y-55924D01*
X77689Y-55934D01*
X77698Y-55953D01*
X77698Y-56000D01*
X77689Y-56019D01*
X77679Y-56029D01*
X77660Y-56038D01*
X77603Y-56038D01*
X77584Y-56029D01*
X77574Y-56019D01*
G54D14*
X77158Y-55201D02*
X77153Y-55206D01*
X77139Y-55211D01*
X77129Y-55211D01*
X77115Y-55206D01*
X77105Y-55196D01*
X77100Y-55187D01*
X77096Y-55168D01*
X77096Y-55153D01*
X77100Y-55134D01*
X77105Y-55125D01*
X77115Y-55115D01*
X77129Y-55111D01*
X77139Y-55111D01*
X77153Y-55115D01*
X77158Y-55120D01*
X77220Y-55111D02*
X77239Y-55111D01*
X77248Y-55115D01*
X77258Y-55125D01*
X77262Y-55144D01*
X77262Y-55177D01*
X77258Y-55196D01*
X77248Y-55206D01*
X77239Y-55211D01*
X77220Y-55211D01*
X77210Y-55206D01*
X77200Y-55196D01*
X77196Y-55177D01*
X77196Y-55144D01*
X77200Y-55125D01*
X77210Y-55115D01*
X77220Y-55111D01*
X77305Y-55211D02*
X77305Y-55111D01*
X77362Y-55211D01*
X77362Y-55111D01*
X77410Y-55211D02*
X77410Y-55111D01*
X77467Y-55211D01*
X77467Y-55111D01*
X77491Y-55220D02*
X77567Y-55220D01*
X77643Y-55211D02*
X77586Y-55211D01*
X77615Y-55211D02*
X77615Y-55111D01*
X77605Y-55125D01*
X77596Y-55134D01*
X77586Y-55139D01*
G54D11*
X80682Y-50058D02*
X80796Y-50058D01*
X80739Y-50258D02*
X80739Y-50058D01*
X80863Y-50258D02*
X80863Y-50058D01*
X80939Y-50058D01*
X80958Y-50068D01*
X80968Y-50078D01*
X80977Y-50097D01*
X80977Y-50125D01*
X80968Y-50144D01*
X80958Y-50154D01*
X80939Y-50163D01*
X80863Y-50163D01*
X81168Y-50258D02*
X81053Y-50258D01*
X81110Y-50258D02*
X81110Y-50058D01*
X81091Y-50087D01*
X81072Y-50106D01*
X81053Y-50116D01*
X81349Y-50058D02*
X81253Y-50058D01*
X81244Y-50154D01*
X81253Y-50144D01*
X81272Y-50135D01*
X81320Y-50135D01*
X81339Y-50144D01*
X81349Y-50154D01*
X81358Y-50173D01*
X81358Y-50220D01*
X81349Y-50239D01*
X81339Y-50249D01*
X81320Y-50258D01*
X81272Y-50258D01*
X81253Y-50249D01*
X81244Y-50239D01*
G54D14*
X80818Y-49421D02*
X80813Y-49426D01*
X80799Y-49431D01*
X80789Y-49431D01*
X80775Y-49426D01*
X80765Y-49416D01*
X80760Y-49407D01*
X80756Y-49388D01*
X80756Y-49373D01*
X80760Y-49354D01*
X80765Y-49345D01*
X80775Y-49335D01*
X80789Y-49331D01*
X80799Y-49331D01*
X80813Y-49335D01*
X80818Y-49340D01*
X80880Y-49331D02*
X80899Y-49331D01*
X80908Y-49335D01*
X80918Y-49345D01*
X80922Y-49364D01*
X80922Y-49397D01*
X80918Y-49416D01*
X80908Y-49426D01*
X80899Y-49431D01*
X80880Y-49431D01*
X80870Y-49426D01*
X80860Y-49416D01*
X80856Y-49397D01*
X80856Y-49364D01*
X80860Y-49345D01*
X80870Y-49335D01*
X80880Y-49331D01*
X80965Y-49431D02*
X80965Y-49331D01*
X81022Y-49431D01*
X81022Y-49331D01*
X81070Y-49431D02*
X81070Y-49331D01*
X81127Y-49431D01*
X81127Y-49331D01*
X81151Y-49440D02*
X81227Y-49440D01*
X81303Y-49431D02*
X81246Y-49431D01*
X81275Y-49431D02*
X81275Y-49331D01*
X81265Y-49345D01*
X81256Y-49354D01*
X81246Y-49359D01*
G54D11*
X88497Y-58478D02*
X88611Y-58478D01*
X88554Y-58678D02*
X88554Y-58478D01*
X88678Y-58678D02*
X88678Y-58478D01*
X88754Y-58478D01*
X88773Y-58488D01*
X88783Y-58498D01*
X88792Y-58517D01*
X88792Y-58545D01*
X88783Y-58564D01*
X88773Y-58574D01*
X88754Y-58583D01*
X88678Y-58583D01*
X88888Y-58678D02*
X88926Y-58678D01*
X88945Y-58669D01*
X88954Y-58659D01*
X88973Y-58631D01*
X88983Y-58593D01*
X88983Y-58517D01*
X88973Y-58498D01*
X88964Y-58488D01*
X88945Y-58478D01*
X88907Y-58478D01*
X88888Y-58488D01*
X88878Y-58498D01*
X88869Y-58517D01*
X88869Y-58564D01*
X88878Y-58583D01*
X88888Y-58593D01*
X88907Y-58602D01*
X88945Y-58602D01*
X88964Y-58593D01*
X88973Y-58583D01*
X88983Y-58564D01*
G54D14*
X88538Y-57841D02*
X88533Y-57846D01*
X88519Y-57851D01*
X88509Y-57851D01*
X88495Y-57846D01*
X88485Y-57836D01*
X88480Y-57827D01*
X88476Y-57808D01*
X88476Y-57793D01*
X88480Y-57774D01*
X88485Y-57765D01*
X88495Y-57755D01*
X88509Y-57751D01*
X88519Y-57751D01*
X88533Y-57755D01*
X88538Y-57760D01*
X88600Y-57751D02*
X88619Y-57751D01*
X88628Y-57755D01*
X88638Y-57765D01*
X88642Y-57784D01*
X88642Y-57817D01*
X88638Y-57836D01*
X88628Y-57846D01*
X88619Y-57851D01*
X88600Y-57851D01*
X88590Y-57846D01*
X88580Y-57836D01*
X88576Y-57817D01*
X88576Y-57784D01*
X88580Y-57765D01*
X88590Y-57755D01*
X88600Y-57751D01*
X88685Y-57851D02*
X88685Y-57751D01*
X88742Y-57851D01*
X88742Y-57751D01*
X88790Y-57851D02*
X88790Y-57751D01*
X88847Y-57851D01*
X88847Y-57751D01*
X88871Y-57860D02*
X88947Y-57860D01*
X89023Y-57851D02*
X88966Y-57851D01*
X88995Y-57851D02*
X88995Y-57751D01*
X88985Y-57765D01*
X88976Y-57774D01*
X88966Y-57779D01*
G54D11*
X97852Y-47128D02*
X97966Y-47128D01*
X97909Y-47328D02*
X97909Y-47128D01*
X98033Y-47328D02*
X98033Y-47128D01*
X98109Y-47128D01*
X98128Y-47138D01*
X98138Y-47148D01*
X98147Y-47167D01*
X98147Y-47195D01*
X98138Y-47214D01*
X98128Y-47224D01*
X98109Y-47233D01*
X98033Y-47233D01*
X98338Y-47328D02*
X98223Y-47328D01*
X98280Y-47328D02*
X98280Y-47128D01*
X98261Y-47157D01*
X98242Y-47176D01*
X98223Y-47186D01*
X98452Y-47214D02*
X98433Y-47205D01*
X98423Y-47195D01*
X98414Y-47176D01*
X98414Y-47167D01*
X98423Y-47148D01*
X98433Y-47138D01*
X98452Y-47128D01*
X98490Y-47128D01*
X98509Y-47138D01*
X98519Y-47148D01*
X98528Y-47167D01*
X98528Y-47176D01*
X98519Y-47195D01*
X98509Y-47205D01*
X98490Y-47214D01*
X98452Y-47214D01*
X98433Y-47224D01*
X98423Y-47233D01*
X98414Y-47252D01*
X98414Y-47290D01*
X98423Y-47309D01*
X98433Y-47319D01*
X98452Y-47328D01*
X98490Y-47328D01*
X98509Y-47319D01*
X98519Y-47309D01*
X98528Y-47290D01*
X98528Y-47252D01*
X98519Y-47233D01*
X98509Y-47224D01*
X98490Y-47214D01*
G54D14*
X97988Y-46491D02*
X97983Y-46496D01*
X97969Y-46501D01*
X97959Y-46501D01*
X97945Y-46496D01*
X97935Y-46486D01*
X97930Y-46477D01*
X97926Y-46458D01*
X97926Y-46443D01*
X97930Y-46424D01*
X97935Y-46415D01*
X97945Y-46405D01*
X97959Y-46401D01*
X97969Y-46401D01*
X97983Y-46405D01*
X97988Y-46410D01*
X98050Y-46401D02*
X98069Y-46401D01*
X98078Y-46405D01*
X98088Y-46415D01*
X98092Y-46434D01*
X98092Y-46467D01*
X98088Y-46486D01*
X98078Y-46496D01*
X98069Y-46501D01*
X98050Y-46501D01*
X98040Y-46496D01*
X98030Y-46486D01*
X98026Y-46467D01*
X98026Y-46434D01*
X98030Y-46415D01*
X98040Y-46405D01*
X98050Y-46401D01*
X98135Y-46501D02*
X98135Y-46401D01*
X98192Y-46501D01*
X98192Y-46401D01*
X98240Y-46501D02*
X98240Y-46401D01*
X98297Y-46501D01*
X98297Y-46401D01*
X98321Y-46510D02*
X98397Y-46510D01*
X98473Y-46501D02*
X98416Y-46501D01*
X98445Y-46501D02*
X98445Y-46401D01*
X98435Y-46415D01*
X98426Y-46424D01*
X98416Y-46429D01*
G54D11*
X87152Y-58478D02*
X87266Y-58478D01*
X87209Y-58678D02*
X87209Y-58478D01*
X87333Y-58678D02*
X87333Y-58478D01*
X87409Y-58478D01*
X87428Y-58488D01*
X87438Y-58498D01*
X87447Y-58517D01*
X87447Y-58545D01*
X87438Y-58564D01*
X87428Y-58574D01*
X87409Y-58583D01*
X87333Y-58583D01*
X87638Y-58678D02*
X87523Y-58678D01*
X87580Y-58678D02*
X87580Y-58478D01*
X87561Y-58507D01*
X87542Y-58526D01*
X87523Y-58536D01*
X87828Y-58678D02*
X87714Y-58678D01*
X87771Y-58678D02*
X87771Y-58478D01*
X87752Y-58507D01*
X87733Y-58526D01*
X87714Y-58536D01*
G54D14*
X87288Y-57841D02*
X87283Y-57846D01*
X87269Y-57851D01*
X87259Y-57851D01*
X87245Y-57846D01*
X87235Y-57836D01*
X87230Y-57827D01*
X87226Y-57808D01*
X87226Y-57793D01*
X87230Y-57774D01*
X87235Y-57765D01*
X87245Y-57755D01*
X87259Y-57751D01*
X87269Y-57751D01*
X87283Y-57755D01*
X87288Y-57760D01*
X87350Y-57751D02*
X87369Y-57751D01*
X87378Y-57755D01*
X87388Y-57765D01*
X87392Y-57784D01*
X87392Y-57817D01*
X87388Y-57836D01*
X87378Y-57846D01*
X87369Y-57851D01*
X87350Y-57851D01*
X87340Y-57846D01*
X87330Y-57836D01*
X87326Y-57817D01*
X87326Y-57784D01*
X87330Y-57765D01*
X87340Y-57755D01*
X87350Y-57751D01*
X87435Y-57851D02*
X87435Y-57751D01*
X87492Y-57851D01*
X87492Y-57751D01*
X87540Y-57851D02*
X87540Y-57751D01*
X87597Y-57851D01*
X87597Y-57751D01*
X87621Y-57860D02*
X87697Y-57860D01*
X87773Y-57851D02*
X87716Y-57851D01*
X87745Y-57851D02*
X87745Y-57751D01*
X87735Y-57765D01*
X87726Y-57774D01*
X87716Y-57779D01*
G54D11*
X93662Y-55914D02*
X93776Y-55914D01*
X93719Y-56114D02*
X93719Y-55914D01*
X93843Y-56114D02*
X93843Y-55914D01*
X93919Y-55914D01*
X93938Y-55924D01*
X93948Y-55934D01*
X93957Y-55953D01*
X93957Y-55981D01*
X93948Y-56000D01*
X93938Y-56010D01*
X93919Y-56019D01*
X93843Y-56019D01*
X94148Y-56114D02*
X94033Y-56114D01*
X94090Y-56114D02*
X94090Y-55914D01*
X94071Y-55943D01*
X94052Y-55962D01*
X94033Y-55972D01*
X94271Y-55914D02*
X94290Y-55914D01*
X94310Y-55924D01*
X94319Y-55934D01*
X94329Y-55953D01*
X94338Y-55991D01*
X94338Y-56038D01*
X94329Y-56076D01*
X94319Y-56095D01*
X94310Y-56105D01*
X94290Y-56114D01*
X94271Y-56114D01*
X94252Y-56105D01*
X94243Y-56095D01*
X94233Y-56076D01*
X94224Y-56038D01*
X94224Y-55991D01*
X94233Y-55953D01*
X94243Y-55934D01*
X94252Y-55924D01*
X94271Y-55914D01*
G54D14*
X93798Y-55277D02*
X93793Y-55282D01*
X93779Y-55287D01*
X93769Y-55287D01*
X93755Y-55282D01*
X93745Y-55272D01*
X93740Y-55263D01*
X93736Y-55244D01*
X93736Y-55229D01*
X93740Y-55210D01*
X93745Y-55201D01*
X93755Y-55191D01*
X93769Y-55187D01*
X93779Y-55187D01*
X93793Y-55191D01*
X93798Y-55196D01*
X93860Y-55187D02*
X93879Y-55187D01*
X93888Y-55191D01*
X93898Y-55201D01*
X93902Y-55220D01*
X93902Y-55253D01*
X93898Y-55272D01*
X93888Y-55282D01*
X93879Y-55287D01*
X93860Y-55287D01*
X93850Y-55282D01*
X93840Y-55272D01*
X93836Y-55253D01*
X93836Y-55220D01*
X93840Y-55201D01*
X93850Y-55191D01*
X93860Y-55187D01*
X93945Y-55287D02*
X93945Y-55187D01*
X94002Y-55287D01*
X94002Y-55187D01*
X94050Y-55287D02*
X94050Y-55187D01*
X94107Y-55287D01*
X94107Y-55187D01*
X94131Y-55296D02*
X94207Y-55296D01*
X94283Y-55287D02*
X94226Y-55287D01*
X94255Y-55287D02*
X94255Y-55187D01*
X94245Y-55201D01*
X94236Y-55210D01*
X94226Y-55215D01*
G54D11*
X93652Y-44580D02*
X93766Y-44580D01*
X93709Y-44780D02*
X93709Y-44580D01*
X93833Y-44780D02*
X93833Y-44580D01*
X93909Y-44580D01*
X93928Y-44590D01*
X93938Y-44600D01*
X93947Y-44619D01*
X93947Y-44647D01*
X93938Y-44666D01*
X93928Y-44676D01*
X93909Y-44685D01*
X93833Y-44685D01*
X94023Y-44600D02*
X94033Y-44590D01*
X94052Y-44580D01*
X94100Y-44580D01*
X94119Y-44590D01*
X94128Y-44600D01*
X94138Y-44619D01*
X94138Y-44638D01*
X94128Y-44666D01*
X94014Y-44780D01*
X94138Y-44780D01*
X94261Y-44580D02*
X94280Y-44580D01*
X94300Y-44590D01*
X94309Y-44600D01*
X94319Y-44619D01*
X94328Y-44657D01*
X94328Y-44704D01*
X94319Y-44742D01*
X94309Y-44761D01*
X94300Y-44771D01*
X94280Y-44780D01*
X94261Y-44780D01*
X94242Y-44771D01*
X94233Y-44761D01*
X94223Y-44742D01*
X94214Y-44704D01*
X94214Y-44657D01*
X94223Y-44619D01*
X94233Y-44600D01*
X94242Y-44590D01*
X94261Y-44580D01*
G54D14*
X93288Y-44151D02*
X93283Y-44156D01*
X93269Y-44161D01*
X93259Y-44161D01*
X93245Y-44156D01*
X93235Y-44146D01*
X93230Y-44137D01*
X93226Y-44118D01*
X93226Y-44103D01*
X93230Y-44084D01*
X93235Y-44075D01*
X93245Y-44065D01*
X93259Y-44061D01*
X93269Y-44061D01*
X93283Y-44065D01*
X93288Y-44070D01*
X93350Y-44061D02*
X93369Y-44061D01*
X93378Y-44065D01*
X93388Y-44075D01*
X93392Y-44094D01*
X93392Y-44127D01*
X93388Y-44146D01*
X93378Y-44156D01*
X93369Y-44161D01*
X93350Y-44161D01*
X93340Y-44156D01*
X93330Y-44146D01*
X93326Y-44127D01*
X93326Y-44094D01*
X93330Y-44075D01*
X93340Y-44065D01*
X93350Y-44061D01*
X93435Y-44161D02*
X93435Y-44061D01*
X93492Y-44161D01*
X93492Y-44061D01*
X93540Y-44161D02*
X93540Y-44061D01*
X93597Y-44161D01*
X93597Y-44061D01*
X93621Y-44170D02*
X93697Y-44170D01*
X93773Y-44161D02*
X93716Y-44161D01*
X93745Y-44161D02*
X93745Y-44061D01*
X93735Y-44075D01*
X93726Y-44084D01*
X93716Y-44089D01*
G54D11*
X88772Y-45240D02*
X88886Y-45240D01*
X88829Y-45440D02*
X88829Y-45240D01*
X88953Y-45440D02*
X88953Y-45240D01*
X89029Y-45240D01*
X89048Y-45250D01*
X89058Y-45260D01*
X89067Y-45279D01*
X89067Y-45307D01*
X89058Y-45326D01*
X89048Y-45336D01*
X89029Y-45345D01*
X88953Y-45345D01*
X89258Y-45440D02*
X89143Y-45440D01*
X89200Y-45440D02*
X89200Y-45240D01*
X89181Y-45269D01*
X89162Y-45288D01*
X89143Y-45298D01*
X89429Y-45240D02*
X89391Y-45240D01*
X89372Y-45250D01*
X89362Y-45260D01*
X89343Y-45288D01*
X89334Y-45326D01*
X89334Y-45402D01*
X89343Y-45421D01*
X89353Y-45431D01*
X89372Y-45440D01*
X89410Y-45440D01*
X89429Y-45431D01*
X89439Y-45421D01*
X89448Y-45402D01*
X89448Y-45355D01*
X89439Y-45336D01*
X89429Y-45326D01*
X89410Y-45317D01*
X89372Y-45317D01*
X89353Y-45326D01*
X89343Y-45336D01*
X89334Y-45355D01*
G54D14*
X88818Y-46111D02*
X88813Y-46116D01*
X88799Y-46121D01*
X88789Y-46121D01*
X88775Y-46116D01*
X88765Y-46106D01*
X88760Y-46097D01*
X88756Y-46078D01*
X88756Y-46063D01*
X88760Y-46044D01*
X88765Y-46035D01*
X88775Y-46025D01*
X88789Y-46021D01*
X88799Y-46021D01*
X88813Y-46025D01*
X88818Y-46030D01*
X88880Y-46021D02*
X88899Y-46021D01*
X88908Y-46025D01*
X88918Y-46035D01*
X88922Y-46054D01*
X88922Y-46087D01*
X88918Y-46106D01*
X88908Y-46116D01*
X88899Y-46121D01*
X88880Y-46121D01*
X88870Y-46116D01*
X88860Y-46106D01*
X88856Y-46087D01*
X88856Y-46054D01*
X88860Y-46035D01*
X88870Y-46025D01*
X88880Y-46021D01*
X88965Y-46121D02*
X88965Y-46021D01*
X89022Y-46121D01*
X89022Y-46021D01*
X89070Y-46121D02*
X89070Y-46021D01*
X89127Y-46121D01*
X89127Y-46021D01*
X89151Y-46130D02*
X89227Y-46130D01*
X89303Y-46121D02*
X89246Y-46121D01*
X89275Y-46121D02*
X89275Y-46021D01*
X89265Y-46035D01*
X89256Y-46044D01*
X89246Y-46049D01*
G54D11*
X86982Y-48020D02*
X87096Y-48020D01*
X87039Y-48220D02*
X87039Y-48020D01*
X87163Y-48220D02*
X87163Y-48020D01*
X87239Y-48020D01*
X87258Y-48030D01*
X87268Y-48040D01*
X87277Y-48059D01*
X87277Y-48087D01*
X87268Y-48106D01*
X87258Y-48116D01*
X87239Y-48125D01*
X87163Y-48125D01*
X87468Y-48220D02*
X87353Y-48220D01*
X87410Y-48220D02*
X87410Y-48020D01*
X87391Y-48049D01*
X87372Y-48068D01*
X87353Y-48078D01*
X87534Y-48020D02*
X87668Y-48020D01*
X87582Y-48220D01*
G54D14*
X88058Y-47791D02*
X88053Y-47796D01*
X88039Y-47801D01*
X88029Y-47801D01*
X88015Y-47796D01*
X88005Y-47786D01*
X88000Y-47777D01*
X87996Y-47758D01*
X87996Y-47743D01*
X88000Y-47724D01*
X88005Y-47715D01*
X88015Y-47705D01*
X88029Y-47701D01*
X88039Y-47701D01*
X88053Y-47705D01*
X88058Y-47710D01*
X88120Y-47701D02*
X88139Y-47701D01*
X88148Y-47705D01*
X88158Y-47715D01*
X88162Y-47734D01*
X88162Y-47767D01*
X88158Y-47786D01*
X88148Y-47796D01*
X88139Y-47801D01*
X88120Y-47801D01*
X88110Y-47796D01*
X88100Y-47786D01*
X88096Y-47767D01*
X88096Y-47734D01*
X88100Y-47715D01*
X88110Y-47705D01*
X88120Y-47701D01*
X88205Y-47801D02*
X88205Y-47701D01*
X88262Y-47801D01*
X88262Y-47701D01*
X88310Y-47801D02*
X88310Y-47701D01*
X88367Y-47801D01*
X88367Y-47701D01*
X88391Y-47810D02*
X88467Y-47810D01*
X88543Y-47801D02*
X88486Y-47801D01*
X88515Y-47801D02*
X88515Y-47701D01*
X88505Y-47715D01*
X88496Y-47724D01*
X88486Y-47729D01*
G54D11*
X78422Y-55873D02*
X78536Y-55873D01*
X78479Y-56073D02*
X78479Y-55873D01*
X78603Y-56073D02*
X78603Y-55873D01*
X78679Y-55873D01*
X78698Y-55883D01*
X78708Y-55893D01*
X78717Y-55912D01*
X78717Y-55940D01*
X78708Y-55959D01*
X78698Y-55969D01*
X78679Y-55978D01*
X78603Y-55978D01*
X78908Y-56073D02*
X78793Y-56073D01*
X78850Y-56073D02*
X78850Y-55873D01*
X78831Y-55902D01*
X78812Y-55921D01*
X78793Y-55931D01*
X79079Y-55940D02*
X79079Y-56073D01*
X79031Y-55864D02*
X78984Y-56007D01*
X79108Y-56007D01*
G54D14*
X78558Y-55236D02*
X78553Y-55241D01*
X78539Y-55246D01*
X78529Y-55246D01*
X78515Y-55241D01*
X78505Y-55231D01*
X78500Y-55222D01*
X78496Y-55203D01*
X78496Y-55188D01*
X78500Y-55169D01*
X78505Y-55160D01*
X78515Y-55150D01*
X78529Y-55146D01*
X78539Y-55146D01*
X78553Y-55150D01*
X78558Y-55155D01*
X78620Y-55146D02*
X78639Y-55146D01*
X78648Y-55150D01*
X78658Y-55160D01*
X78662Y-55179D01*
X78662Y-55212D01*
X78658Y-55231D01*
X78648Y-55241D01*
X78639Y-55246D01*
X78620Y-55246D01*
X78610Y-55241D01*
X78600Y-55231D01*
X78596Y-55212D01*
X78596Y-55179D01*
X78600Y-55160D01*
X78610Y-55150D01*
X78620Y-55146D01*
X78705Y-55246D02*
X78705Y-55146D01*
X78762Y-55246D01*
X78762Y-55146D01*
X78810Y-55246D02*
X78810Y-55146D01*
X78867Y-55246D01*
X78867Y-55146D01*
X78891Y-55255D02*
X78967Y-55255D01*
X79043Y-55246D02*
X78986Y-55246D01*
X79015Y-55246D02*
X79015Y-55146D01*
X79005Y-55160D01*
X78996Y-55169D01*
X78986Y-55174D01*
G54D10*
X80535Y-44999D02*
X80535Y-45318D01*
X80554Y-45356D01*
X80572Y-45374D01*
X80610Y-45393D01*
X80685Y-45393D01*
X80722Y-45374D01*
X80741Y-45356D01*
X80760Y-45318D01*
X80760Y-44999D01*
X80929Y-45037D02*
X80947Y-45018D01*
X80985Y-44999D01*
X81079Y-44999D01*
X81116Y-45018D01*
X81135Y-45037D01*
X81154Y-45074D01*
X81154Y-45112D01*
X81135Y-45168D01*
X80910Y-45393D01*
X81154Y-45393D01*
X79475Y-44829D02*
X79475Y-44435D01*
X79606Y-44716D01*
X79737Y-44435D01*
X79737Y-44829D01*
X80150Y-44791D02*
X80131Y-44810D01*
X80075Y-44829D01*
X80037Y-44829D01*
X79981Y-44810D01*
X79943Y-44773D01*
X79925Y-44735D01*
X79906Y-44660D01*
X79906Y-44604D01*
X79925Y-44529D01*
X79943Y-44491D01*
X79981Y-44454D01*
X80037Y-44435D01*
X80075Y-44435D01*
X80131Y-44454D01*
X80150Y-44473D01*
X80318Y-44829D02*
X80318Y-44435D01*
X80468Y-44435D01*
X80506Y-44454D01*
X80525Y-44473D01*
X80543Y-44510D01*
X80543Y-44566D01*
X80525Y-44604D01*
X80506Y-44623D01*
X80468Y-44641D01*
X80318Y-44641D01*
X80675Y-44435D02*
X80918Y-44435D01*
X80787Y-44585D01*
X80843Y-44585D01*
X80881Y-44604D01*
X80899Y-44623D01*
X80918Y-44660D01*
X80918Y-44754D01*
X80899Y-44791D01*
X80881Y-44810D01*
X80843Y-44829D01*
X80731Y-44829D01*
X80693Y-44810D01*
X80675Y-44791D01*
X81106Y-44829D02*
X81181Y-44829D01*
X81218Y-44810D01*
X81237Y-44791D01*
X81274Y-44735D01*
X81293Y-44660D01*
X81293Y-44510D01*
X81274Y-44473D01*
X81256Y-44454D01*
X81218Y-44435D01*
X81143Y-44435D01*
X81106Y-44454D01*
X81087Y-44473D01*
X81068Y-44510D01*
X81068Y-44604D01*
X81087Y-44641D01*
X81106Y-44660D01*
X81143Y-44679D01*
X81218Y-44679D01*
X81256Y-44660D01*
X81274Y-44641D01*
X81293Y-44604D01*
X81537Y-44435D02*
X81574Y-44435D01*
X81612Y-44454D01*
X81631Y-44473D01*
X81649Y-44510D01*
X81668Y-44585D01*
X81668Y-44679D01*
X81649Y-44754D01*
X81631Y-44791D01*
X81612Y-44810D01*
X81574Y-44829D01*
X81537Y-44829D01*
X81499Y-44810D01*
X81481Y-44791D01*
X81462Y-44754D01*
X81443Y-44679D01*
X81443Y-44585D01*
X81462Y-44510D01*
X81481Y-44473D01*
X81499Y-44454D01*
X81537Y-44435D01*
X82043Y-44829D02*
X81818Y-44829D01*
X81931Y-44829D02*
X81931Y-44435D01*
X81893Y-44491D01*
X81856Y-44529D01*
X81818Y-44548D01*
X77291Y-45571D02*
X77685Y-45309D01*
X77291Y-45309D02*
X77685Y-45571D01*
X77685Y-44953D02*
X77685Y-45178D01*
X77685Y-45065D02*
X77291Y-45065D01*
X77347Y-45103D01*
X77385Y-45140D01*
X77404Y-45178D01*
X78620Y-44634D02*
X78639Y-44653D01*
X78657Y-44709D01*
X78657Y-44747D01*
X78639Y-44803D01*
X78601Y-44841D01*
X78564Y-44859D01*
X78489Y-44878D01*
X78432Y-44878D01*
X78357Y-44859D01*
X78320Y-44841D01*
X78282Y-44803D01*
X78264Y-44747D01*
X78264Y-44709D01*
X78282Y-44653D01*
X78301Y-44634D01*
X78657Y-44241D02*
X78470Y-44372D01*
X78657Y-44466D02*
X78264Y-44466D01*
X78264Y-44316D01*
X78282Y-44278D01*
X78301Y-44259D01*
X78339Y-44241D01*
X78395Y-44241D01*
X78432Y-44259D01*
X78451Y-44278D01*
X78470Y-44316D01*
X78470Y-44466D01*
X78470Y-43997D02*
X78657Y-43997D01*
X78264Y-44128D02*
X78470Y-43997D01*
X78264Y-43866D01*
X78639Y-43753D02*
X78657Y-43697D01*
X78657Y-43603D01*
X78639Y-43566D01*
X78620Y-43547D01*
X78582Y-43528D01*
X78545Y-43528D01*
X78507Y-43547D01*
X78489Y-43566D01*
X78470Y-43603D01*
X78451Y-43678D01*
X78432Y-43716D01*
X78414Y-43734D01*
X78376Y-43753D01*
X78339Y-43753D01*
X78301Y-43734D01*
X78282Y-43716D01*
X78264Y-43678D01*
X78264Y-43584D01*
X78282Y-43528D01*
X78264Y-43416D02*
X78264Y-43191D01*
X78657Y-43303D02*
X78264Y-43303D01*
X78545Y-43078D02*
X78545Y-42891D01*
X78657Y-43116D02*
X78264Y-42985D01*
X78657Y-42853D01*
X78657Y-42535D02*
X78657Y-42722D01*
X78264Y-42722D01*
X97371Y-52951D02*
X96977Y-52951D01*
X96977Y-52801D01*
X96996Y-52764D01*
X97014Y-52745D01*
X97052Y-52726D01*
X97108Y-52726D01*
X97146Y-52745D01*
X97164Y-52764D01*
X97183Y-52801D01*
X97183Y-52951D01*
X97371Y-52351D02*
X97371Y-52576D01*
X97371Y-52464D02*
X96977Y-52464D01*
X97033Y-52501D01*
X97071Y-52539D01*
X97089Y-52576D01*
X99105Y-50286D02*
X99124Y-50305D01*
X99142Y-50361D01*
X99142Y-50399D01*
X99124Y-50455D01*
X99086Y-50492D01*
X99049Y-50511D01*
X98974Y-50530D01*
X98917Y-50530D01*
X98842Y-50511D01*
X98805Y-50492D01*
X98767Y-50455D01*
X98749Y-50399D01*
X98749Y-50361D01*
X98767Y-50305D01*
X98786Y-50286D01*
X98749Y-50042D02*
X98749Y-49967D01*
X98767Y-49930D01*
X98805Y-49892D01*
X98880Y-49874D01*
X99011Y-49874D01*
X99086Y-49892D01*
X99124Y-49930D01*
X99142Y-49967D01*
X99142Y-50042D01*
X99124Y-50080D01*
X99086Y-50117D01*
X99011Y-50136D01*
X98880Y-50136D01*
X98805Y-50117D01*
X98767Y-50080D01*
X98749Y-50042D01*
X99142Y-49705D02*
X98749Y-49705D01*
X99142Y-49480D01*
X98749Y-49480D01*
X99142Y-49293D02*
X98749Y-49293D01*
X99142Y-49068D01*
X98749Y-49068D01*
X99180Y-48974D02*
X99180Y-48674D01*
X98880Y-48411D02*
X99142Y-48411D01*
X98730Y-48505D02*
X99011Y-48599D01*
X99011Y-48355D01*
G54D15*
X74920Y-54879D02*
X74920Y-54486D01*
X75070Y-54486D01*
X75107Y-54504D01*
X75126Y-54523D01*
X75145Y-54561D01*
X75145Y-54617D01*
X75126Y-54654D01*
X75107Y-54673D01*
X75070Y-54692D01*
X74920Y-54692D01*
X75295Y-54523D02*
X75314Y-54504D01*
X75351Y-54486D01*
X75445Y-54486D01*
X75482Y-54504D01*
X75501Y-54523D01*
X75520Y-54561D01*
X75520Y-54598D01*
X75501Y-54654D01*
X75276Y-54879D01*
X75520Y-54879D01*
X73819Y-52280D02*
X73912Y-52880D01*
X73987Y-52452D01*
X74062Y-52880D01*
X74156Y-52280D01*
X74475Y-52880D02*
X74475Y-52566D01*
X74456Y-52509D01*
X74419Y-52480D01*
X74344Y-52480D01*
X74306Y-52509D01*
X74475Y-52852D02*
X74437Y-52880D01*
X74344Y-52880D01*
X74306Y-52852D01*
X74287Y-52795D01*
X74287Y-52737D01*
X74306Y-52680D01*
X74344Y-52652D01*
X74437Y-52652D01*
X74475Y-52623D01*
X74719Y-52880D02*
X74681Y-52852D01*
X74662Y-52795D01*
X74662Y-52280D01*
X74925Y-52880D02*
X74887Y-52852D01*
X74869Y-52795D01*
X74869Y-52280D01*
X75037Y-52280D02*
X75131Y-52880D01*
X75206Y-52452D01*
X75281Y-52880D01*
X75375Y-52280D01*
X75693Y-52880D02*
X75693Y-52566D01*
X75675Y-52509D01*
X75637Y-52480D01*
X75562Y-52480D01*
X75525Y-52509D01*
X75693Y-52852D02*
X75656Y-52880D01*
X75562Y-52880D01*
X75525Y-52852D01*
X75506Y-52795D01*
X75506Y-52737D01*
X75525Y-52680D01*
X75562Y-52652D01*
X75656Y-52652D01*
X75693Y-52623D01*
X75881Y-52880D02*
X75881Y-52480D01*
X75881Y-52595D02*
X75900Y-52537D01*
X75918Y-52509D01*
X75956Y-52480D01*
X75993Y-52480D01*
X76068Y-52480D02*
X76218Y-52480D01*
X76125Y-52280D02*
X76125Y-52795D01*
X76143Y-52852D01*
X76181Y-52880D01*
X76218Y-52880D01*
X76350Y-52566D02*
X76481Y-52566D01*
X76537Y-52880D02*
X76350Y-52880D01*
X76350Y-52280D01*
X76537Y-52280D01*
X76668Y-52880D02*
X76875Y-52480D01*
X76668Y-52480D02*
X76875Y-52880D01*
X76968Y-52480D02*
X77118Y-52480D01*
X77025Y-52280D02*
X77025Y-52795D01*
X77043Y-52852D01*
X77081Y-52880D01*
X77118Y-52880D01*
X77400Y-52852D02*
X77362Y-52880D01*
X77287Y-52880D01*
X77250Y-52852D01*
X77231Y-52795D01*
X77231Y-52566D01*
X77250Y-52509D01*
X77287Y-52480D01*
X77362Y-52480D01*
X77400Y-52509D01*
X77418Y-52566D01*
X77418Y-52623D01*
X77231Y-52680D01*
X77587Y-52480D02*
X77587Y-52880D01*
X77587Y-52537D02*
X77606Y-52509D01*
X77643Y-52480D01*
X77699Y-52480D01*
X77737Y-52509D01*
X77756Y-52566D01*
X77756Y-52880D01*
X77924Y-52852D02*
X77962Y-52880D01*
X78037Y-52880D01*
X78074Y-52852D01*
X78093Y-52795D01*
X78093Y-52766D01*
X78074Y-52709D01*
X78037Y-52680D01*
X77981Y-52680D01*
X77943Y-52652D01*
X77924Y-52595D01*
X77924Y-52566D01*
X77943Y-52509D01*
X77981Y-52480D01*
X78037Y-52480D01*
X78074Y-52509D01*
X78262Y-52880D02*
X78262Y-52480D01*
X78262Y-52280D02*
X78243Y-52309D01*
X78262Y-52337D01*
X78281Y-52309D01*
X78262Y-52280D01*
X78262Y-52337D01*
X78506Y-52880D02*
X78468Y-52852D01*
X78449Y-52823D01*
X78431Y-52766D01*
X78431Y-52595D01*
X78449Y-52537D01*
X78468Y-52509D01*
X78506Y-52480D01*
X78562Y-52480D01*
X78599Y-52509D01*
X78618Y-52537D01*
X78637Y-52595D01*
X78637Y-52766D01*
X78618Y-52823D01*
X78599Y-52852D01*
X78562Y-52880D01*
X78506Y-52880D01*
X78806Y-52480D02*
X78806Y-52880D01*
X78806Y-52537D02*
X78824Y-52509D01*
X78862Y-52480D01*
X78918Y-52480D01*
X78956Y-52509D01*
X78974Y-52566D01*
X78974Y-52880D01*
G54D16*
X85879Y-51119D02*
X85879Y-50725D01*
X85973Y-50725D01*
X86029Y-50744D01*
X86066Y-50781D01*
X86085Y-50819D01*
X86104Y-50894D01*
X86104Y-50950D01*
X86085Y-51025D01*
X86066Y-51063D01*
X86029Y-51100D01*
X85973Y-51119D01*
X85879Y-51119D01*
X86235Y-50725D02*
X86479Y-50725D01*
X86348Y-50875D01*
X86404Y-50875D01*
X86442Y-50894D01*
X86460Y-50913D01*
X86479Y-50950D01*
X86479Y-51044D01*
X86460Y-51081D01*
X86442Y-51100D01*
X86404Y-51119D01*
X86291Y-51119D01*
X86254Y-51100D01*
X86235Y-51081D01*
X88631Y-51028D02*
X88237Y-51028D01*
X88237Y-50934D01*
X88256Y-50878D01*
X88293Y-50840D01*
X88331Y-50822D01*
X88406Y-50803D01*
X88462Y-50803D01*
X88537Y-50822D01*
X88575Y-50840D01*
X88612Y-50878D01*
X88631Y-50934D01*
X88631Y-51028D01*
X88631Y-50634D02*
X88237Y-50634D01*
X88237Y-50371D02*
X88237Y-50296D01*
X88256Y-50259D01*
X88293Y-50221D01*
X88368Y-50203D01*
X88500Y-50203D01*
X88575Y-50221D01*
X88612Y-50259D01*
X88631Y-50296D01*
X88631Y-50371D01*
X88612Y-50409D01*
X88575Y-50447D01*
X88500Y-50465D01*
X88368Y-50465D01*
X88293Y-50447D01*
X88256Y-50409D01*
X88237Y-50371D01*
X88631Y-50034D02*
X88237Y-50034D01*
X88237Y-49940D01*
X88256Y-49884D01*
X88293Y-49846D01*
X88331Y-49827D01*
X88406Y-49809D01*
X88462Y-49809D01*
X88537Y-49827D01*
X88575Y-49846D01*
X88612Y-49884D01*
X88631Y-49940D01*
X88631Y-50034D01*
X88425Y-49640D02*
X88425Y-49508D01*
X88631Y-49452D02*
X88631Y-49640D01*
X88237Y-49640D01*
X88237Y-49452D01*
X93599Y-45639D02*
X93599Y-45245D01*
X93693Y-45245D01*
X93749Y-45264D01*
X93786Y-45301D01*
X93805Y-45339D01*
X93824Y-45414D01*
X93824Y-45470D01*
X93805Y-45545D01*
X93786Y-45583D01*
X93749Y-45620D01*
X93693Y-45639D01*
X93599Y-45639D01*
X94180Y-45245D02*
X93993Y-45245D01*
X93974Y-45433D01*
X93993Y-45414D01*
X94030Y-45395D01*
X94124Y-45395D01*
X94162Y-45414D01*
X94180Y-45433D01*
X94199Y-45470D01*
X94199Y-45564D01*
X94180Y-45601D01*
X94162Y-45620D01*
X94124Y-45639D01*
X94030Y-45639D01*
X93993Y-45620D01*
X93974Y-45601D01*
X93479Y-43449D02*
X93479Y-43055D01*
X93573Y-43055D01*
X93629Y-43074D01*
X93666Y-43111D01*
X93685Y-43149D01*
X93704Y-43224D01*
X93704Y-43280D01*
X93685Y-43355D01*
X93666Y-43393D01*
X93629Y-43430D01*
X93573Y-43449D01*
X93479Y-43449D01*
X94042Y-43186D02*
X94042Y-43449D01*
X93948Y-43036D02*
X93854Y-43318D01*
X94098Y-43318D01*
X75320Y-50210D02*
X74926Y-50210D01*
X74926Y-50117D01*
X74945Y-50060D01*
X74982Y-50023D01*
X75020Y-50004D01*
X75095Y-49985D01*
X75151Y-49985D01*
X75226Y-50004D01*
X75264Y-50023D01*
X75301Y-50060D01*
X75320Y-50117D01*
X75320Y-50210D01*
X74964Y-49835D02*
X74945Y-49816D01*
X74926Y-49779D01*
X74926Y-49685D01*
X74945Y-49647D01*
X74964Y-49629D01*
X75001Y-49610D01*
X75039Y-49610D01*
X75095Y-49629D01*
X75320Y-49854D01*
X75320Y-49610D01*
X77446Y-50173D02*
X77446Y-50360D01*
X77052Y-50360D01*
X77240Y-50041D02*
X77240Y-49910D01*
X77446Y-49854D02*
X77446Y-50041D01*
X77052Y-50041D01*
X77052Y-49854D01*
X77446Y-49685D02*
X77052Y-49685D01*
X77052Y-49591D01*
X77071Y-49535D01*
X77108Y-49497D01*
X77146Y-49479D01*
X77221Y-49460D01*
X77277Y-49460D01*
X77352Y-49479D01*
X77390Y-49497D01*
X77427Y-49535D01*
X77446Y-49591D01*
X77446Y-49685D01*
X93109Y-52395D02*
X93109Y-52001D01*
X93203Y-52001D01*
X93259Y-52020D01*
X93296Y-52057D01*
X93315Y-52095D01*
X93334Y-52170D01*
X93334Y-52226D01*
X93315Y-52301D01*
X93296Y-52339D01*
X93259Y-52376D01*
X93203Y-52395D01*
X93109Y-52395D01*
X93709Y-52395D02*
X93484Y-52395D01*
X93597Y-52395D02*
X93597Y-52001D01*
X93559Y-52057D01*
X93521Y-52095D01*
X93484Y-52114D01*
X92912Y-54258D02*
X92912Y-54521D01*
X92818Y-54108D02*
X92724Y-54390D01*
X92968Y-54390D01*
X93193Y-54127D02*
X93231Y-54127D01*
X93268Y-54146D01*
X93287Y-54165D01*
X93306Y-54202D01*
X93324Y-54277D01*
X93324Y-54371D01*
X93306Y-54446D01*
X93287Y-54483D01*
X93268Y-54502D01*
X93231Y-54521D01*
X93193Y-54521D01*
X93156Y-54502D01*
X93137Y-54483D01*
X93118Y-54446D01*
X93099Y-54371D01*
X93099Y-54277D01*
X93118Y-54202D01*
X93137Y-54165D01*
X93156Y-54146D01*
X93193Y-54127D01*
X93568Y-54127D02*
X93606Y-54127D01*
X93643Y-54146D01*
X93662Y-54165D01*
X93681Y-54202D01*
X93700Y-54277D01*
X93700Y-54371D01*
X93681Y-54446D01*
X93662Y-54483D01*
X93643Y-54502D01*
X93606Y-54521D01*
X93568Y-54521D01*
X93531Y-54502D01*
X93512Y-54483D01*
X93493Y-54446D01*
X93475Y-54371D01*
X93475Y-54277D01*
X93493Y-54202D01*
X93512Y-54165D01*
X93531Y-54146D01*
X93568Y-54127D01*
X94037Y-54258D02*
X94037Y-54521D01*
X93944Y-54108D02*
X93850Y-54390D01*
X94094Y-54390D01*
G54D10*
X73215Y-40296D02*
X73403Y-40296D01*
X73178Y-40409D02*
X73309Y-40015D01*
X73440Y-40409D01*
X73797Y-40409D02*
X73665Y-40221D01*
X73572Y-40409D02*
X73572Y-40015D01*
X73722Y-40015D01*
X73759Y-40034D01*
X73778Y-40053D01*
X73797Y-40090D01*
X73797Y-40146D01*
X73778Y-40184D01*
X73759Y-40203D01*
X73722Y-40221D01*
X73572Y-40221D01*
X73965Y-40409D02*
X73965Y-40015D01*
X74059Y-40015D01*
X74115Y-40034D01*
X74153Y-40071D01*
X74171Y-40109D01*
X74190Y-40184D01*
X74190Y-40240D01*
X74171Y-40315D01*
X74153Y-40353D01*
X74115Y-40390D01*
X74059Y-40409D01*
X73965Y-40409D01*
X74359Y-40015D02*
X74359Y-40334D01*
X74378Y-40371D01*
X74396Y-40390D01*
X74434Y-40409D01*
X74509Y-40409D01*
X74546Y-40390D01*
X74565Y-40371D01*
X74584Y-40334D01*
X74584Y-40015D01*
X74771Y-40409D02*
X74771Y-40015D01*
X74959Y-40409D02*
X74959Y-40015D01*
X75184Y-40409D01*
X75184Y-40015D01*
X75446Y-40015D02*
X75521Y-40015D01*
X75559Y-40034D01*
X75596Y-40071D01*
X75615Y-40146D01*
X75615Y-40278D01*
X75596Y-40353D01*
X75559Y-40390D01*
X75521Y-40409D01*
X75446Y-40409D01*
X75409Y-40390D01*
X75371Y-40353D01*
X75353Y-40278D01*
X75353Y-40146D01*
X75371Y-40071D01*
X75409Y-40034D01*
X75446Y-40015D01*
X75784Y-40409D02*
X75784Y-40015D01*
X75934Y-40015D01*
X75971Y-40034D01*
X75990Y-40053D01*
X76009Y-40090D01*
X76009Y-40146D01*
X75990Y-40184D01*
X75971Y-40203D01*
X75934Y-40221D01*
X75784Y-40221D01*
X76177Y-40409D02*
X76177Y-40015D01*
X76365Y-40409D02*
X76365Y-40015D01*
X76590Y-40409D01*
X76590Y-40015D01*
X76759Y-40390D02*
X76815Y-40409D01*
X76909Y-40409D01*
X76946Y-40390D01*
X76965Y-40371D01*
X76984Y-40334D01*
X76984Y-40296D01*
X76965Y-40259D01*
X76946Y-40240D01*
X76909Y-40221D01*
X76834Y-40203D01*
X76796Y-40184D01*
X76777Y-40165D01*
X76759Y-40128D01*
X76759Y-40090D01*
X76777Y-40053D01*
X76796Y-40034D01*
X76834Y-40015D01*
X76927Y-40015D01*
X76984Y-40034D01*
G54D17*
X89804Y-49274D02*
X90043Y-49274D01*
X90071Y-49260D01*
X90085Y-49246D01*
X90099Y-49218D01*
X90099Y-49162D01*
X90085Y-49134D01*
X90071Y-49120D01*
X90043Y-49106D01*
X89804Y-49106D01*
X90099Y-48811D02*
X90099Y-48979D01*
X90099Y-48895D02*
X89804Y-48895D01*
X89846Y-48923D01*
X89874Y-48951D01*
X89888Y-48979D01*
X90899Y-50005D02*
X90604Y-50005D01*
X90815Y-49906D01*
X90604Y-49808D01*
X90899Y-49808D01*
X90871Y-49499D02*
X90885Y-49513D01*
X90899Y-49555D01*
X90899Y-49583D01*
X90885Y-49625D01*
X90857Y-49654D01*
X90829Y-49668D01*
X90772Y-49682D01*
X90730Y-49682D01*
X90674Y-49668D01*
X90646Y-49654D01*
X90618Y-49625D01*
X90604Y-49583D01*
X90604Y-49555D01*
X90618Y-49513D01*
X90632Y-49499D01*
X90899Y-49373D02*
X90604Y-49373D01*
X90604Y-49260D01*
X90618Y-49232D01*
X90632Y-49218D01*
X90660Y-49204D01*
X90702Y-49204D01*
X90730Y-49218D01*
X90744Y-49232D01*
X90758Y-49260D01*
X90758Y-49373D01*
X90604Y-48951D02*
X90604Y-49007D01*
X90618Y-49035D01*
X90632Y-49049D01*
X90674Y-49078D01*
X90730Y-49092D01*
X90843Y-49092D01*
X90871Y-49078D01*
X90885Y-49064D01*
X90899Y-49035D01*
X90899Y-48979D01*
X90885Y-48951D01*
X90871Y-48937D01*
X90843Y-48923D01*
X90772Y-48923D01*
X90744Y-48937D01*
X90730Y-48951D01*
X90716Y-48979D01*
X90716Y-49035D01*
X90730Y-49064D01*
X90744Y-49078D01*
X90772Y-49092D01*
X90632Y-48811D02*
X90618Y-48797D01*
X90604Y-48769D01*
X90604Y-48698D01*
X90618Y-48670D01*
X90632Y-48656D01*
X90660Y-48642D01*
X90688Y-48642D01*
X90730Y-48656D01*
X90899Y-48825D01*
X90899Y-48642D01*
X90702Y-48389D02*
X90899Y-48389D01*
X90590Y-48459D02*
X90801Y-48530D01*
X90801Y-48347D01*
X90702Y-48108D02*
X90899Y-48108D01*
X90590Y-48179D02*
X90801Y-48249D01*
X90801Y-48066D01*
G54D18*
X85250Y-54308D02*
X85226Y-54346D01*
X85178Y-54384D01*
X85107Y-54441D01*
X85083Y-54479D01*
X85083Y-54517D01*
X85202Y-54498D02*
X85178Y-54536D01*
X85130Y-54574D01*
X85035Y-54593D01*
X84869Y-54593D01*
X84773Y-54574D01*
X84726Y-54536D01*
X84702Y-54498D01*
X84702Y-54422D01*
X84726Y-54384D01*
X84773Y-54346D01*
X84869Y-54327D01*
X85035Y-54327D01*
X85130Y-54346D01*
X85178Y-54384D01*
X85202Y-54422D01*
X85202Y-54498D01*
X85202Y-53946D02*
X85202Y-54174D01*
X85202Y-54060D02*
X84702Y-54060D01*
X84773Y-54098D01*
X84821Y-54136D01*
X84845Y-54174D01*
X87911Y-55250D02*
X87911Y-55022D01*
X88311Y-55136D02*
X87911Y-55136D01*
X88311Y-54889D02*
X87911Y-54889D01*
X88311Y-54698D02*
X87911Y-54698D01*
X87911Y-54546D01*
X87930Y-54508D01*
X87950Y-54489D01*
X87988Y-54470D01*
X88045Y-54470D01*
X88083Y-54489D01*
X88102Y-54508D01*
X88121Y-54546D01*
X88121Y-54698D01*
X88311Y-54089D02*
X88311Y-54317D01*
X88311Y-54203D02*
X87911Y-54203D01*
X87969Y-54241D01*
X88007Y-54279D01*
X88026Y-54317D01*
X87950Y-53936D02*
X87930Y-53917D01*
X87911Y-53879D01*
X87911Y-53784D01*
X87930Y-53746D01*
X87950Y-53727D01*
X87988Y-53708D01*
X88026Y-53708D01*
X88083Y-53727D01*
X88311Y-53955D01*
X88311Y-53708D01*
X87950Y-53555D02*
X87930Y-53536D01*
X87911Y-53498D01*
X87911Y-53403D01*
X87930Y-53365D01*
X87950Y-53346D01*
X87988Y-53327D01*
X88026Y-53327D01*
X88083Y-53346D01*
X88311Y-53574D01*
X88311Y-53327D01*
%LPC*%
G54D19*
X81810Y-48370D03*
X83110Y-48370D03*
G54D20*
X92660Y-48185D03*
X92660Y-47435D03*
G54D21*
X77455Y-52000D03*
X78205Y-52000D03*
G54D20*
X78210Y-48895D03*
X78210Y-48145D03*
G54D21*
X79505Y-48460D03*
X80255Y-48460D03*
X75105Y-46170D03*
X75855Y-46170D03*
X75025Y-44220D03*
X75775Y-44220D03*
X77445Y-51080D03*
X78195Y-51080D03*
G54D20*
X88590Y-44435D03*
X88590Y-43685D03*
G54D21*
X82485Y-46964D03*
X83235Y-46964D03*
G54D20*
X93790Y-49095D03*
X93790Y-49845D03*
X92620Y-49805D03*
X92620Y-49055D03*
X85550Y-49555D03*
X85550Y-50305D03*
X95030Y-48205D03*
X95030Y-47455D03*
X93840Y-48185D03*
X93840Y-47435D03*
X97370Y-44595D03*
X97370Y-45345D03*
X96090Y-47485D03*
X96090Y-48235D03*
X90600Y-44895D03*
X90600Y-45645D03*
X92460Y-45885D03*
X92460Y-45135D03*
X86720Y-46095D03*
X86720Y-46845D03*
G54D21*
X90275Y-46950D03*
X91025Y-46950D03*
G54D20*
X88100Y-46125D03*
X88100Y-46875D03*
X84390Y-49545D03*
X84390Y-50295D03*
G54D21*
X82845Y-41790D03*
X82095Y-41790D03*
X73510Y-49190D03*
X74260Y-49190D03*
G54D20*
X84290Y-41615D03*
X84290Y-42365D03*
X85720Y-41705D03*
X85720Y-42455D03*
X87160Y-41715D03*
X87160Y-42465D03*
X97420Y-56015D03*
X97420Y-55265D03*
G54D21*
X95375Y-41790D03*
X94625Y-41790D03*
X91475Y-41700D03*
X90725Y-41700D03*
G54D22*
X89340Y-41800D03*
X78210Y-41810D03*
X77060Y-41860D03*
X75810Y-41860D03*
X79560Y-41860D03*
X93390Y-41760D03*
X77370Y-55210D03*
X81030Y-49430D03*
X88750Y-57850D03*
X98200Y-46500D03*
X87500Y-57850D03*
X94010Y-55286D03*
X93500Y-44160D03*
X89030Y-46120D03*
X88270Y-47800D03*
X78770Y-55245D03*
G54D23*
X79575Y-46809D03*
X79831Y-46809D03*
X80087Y-46809D03*
X80343Y-46809D03*
X80599Y-46809D03*
X80855Y-46809D03*
X81111Y-46809D03*
X81366Y-46809D03*
X81622Y-46809D03*
X81878Y-46809D03*
X81859Y-43757D03*
X81603Y-43757D03*
X81347Y-43757D03*
X81091Y-43757D03*
X80835Y-43757D03*
X80579Y-43757D03*
X80323Y-43757D03*
X80067Y-43757D03*
X79811Y-43757D03*
X79555Y-43757D03*
G54D24*
X76876Y-46150D03*
X76876Y-44229D03*
G54D22*
X98038Y-52456D03*
X98038Y-51078D03*
X98038Y-49700D03*
X98038Y-48322D03*
X75400Y-53637D03*
X76407Y-53641D03*
G54D25*
X87370Y-50998D03*
X87370Y-49502D03*
G54D26*
X96288Y-46040D03*
X94792Y-46040D03*
X94712Y-43850D03*
X96208Y-43850D03*
G54D25*
X76185Y-50668D03*
X76185Y-49172D03*
G54D26*
X92652Y-53260D03*
X94148Y-53260D03*
G54D27*
X89150Y-40400D03*
X88150Y-40400D03*
X87150Y-40400D03*
X86150Y-40400D03*
X85150Y-40400D03*
X84150Y-40400D03*
X83150Y-40400D03*
X82150Y-40400D03*
X86750Y-59400D03*
X85750Y-59400D03*
X84750Y-59400D03*
X83750Y-59400D03*
X87750Y-59400D03*
X88750Y-59400D03*
X89750Y-59400D03*
X90750Y-59400D03*
X92750Y-59400D03*
X93750Y-59400D03*
X94750Y-59400D03*
X95750Y-59400D03*
X96750Y-59400D03*
X97750Y-59400D03*
X97750Y-40400D03*
X96750Y-40400D03*
X95750Y-40400D03*
X94750Y-40400D03*
X93750Y-40400D03*
X92750Y-40400D03*
X91750Y-40400D03*
X90750Y-40400D03*
G54D28*
X91480Y-50550D03*
X91480Y-50050D03*
X91480Y-49550D03*
X91480Y-49050D03*
X91480Y-48550D03*
X91480Y-48050D03*
X91480Y-47550D03*
X89280Y-47550D03*
X89280Y-48050D03*
X89280Y-48550D03*
X89280Y-49050D03*
X89280Y-49550D03*
X89280Y-50050D03*
X89280Y-50550D03*
G54D29*
X89100Y-55170D03*
G54D30*
X86600Y-54270D03*
G54D29*
X89100Y-53370D03*
M02*
