G04 (created by PCBNEW (2013-07-07 BZR 4022)-stable) date 9/23/2014 8:39:01 AM*
%MOIN*%
G04 Gerber Fmt 3.4, Leading zero omitted, Abs format*
%FSLAX34Y34*%
G01*
G70*
G90*
G04 APERTURE LIST*
%ADD10C,0.00590551*%
%ADD11C,0.07*%
%ADD12C,0.05*%
%ADD13O,0.06X0.1*%
G04 APERTURE END LIST*
G54D10*
G54D11*
X89340Y-41800D03*
X78210Y-41810D03*
X77060Y-41860D03*
X75810Y-41860D03*
X79560Y-41860D03*
X93390Y-41760D03*
X77370Y-55210D03*
X81030Y-49430D03*
X88750Y-57850D03*
X98200Y-46500D03*
X87500Y-57850D03*
X94010Y-55286D03*
X93500Y-44160D03*
X89030Y-46120D03*
X88270Y-47800D03*
X78770Y-55245D03*
G54D12*
X76876Y-46150D03*
X76876Y-44229D03*
G54D11*
X98038Y-52456D03*
X98038Y-51078D03*
X98038Y-49700D03*
X98038Y-48322D03*
X75400Y-53637D03*
X76407Y-53641D03*
G54D13*
X89150Y-40400D03*
X88150Y-40400D03*
X87150Y-40400D03*
X86150Y-40400D03*
X85150Y-40400D03*
X84150Y-40400D03*
X83150Y-40400D03*
X82150Y-40400D03*
X86750Y-59400D03*
X85750Y-59400D03*
X84750Y-59400D03*
X83750Y-59400D03*
X87750Y-59400D03*
X88750Y-59400D03*
X89750Y-59400D03*
X90750Y-59400D03*
X92750Y-59400D03*
X93750Y-59400D03*
X94750Y-59400D03*
X95750Y-59400D03*
X96750Y-59400D03*
X97750Y-59400D03*
X97750Y-40400D03*
X96750Y-40400D03*
X95750Y-40400D03*
X94750Y-40400D03*
X93750Y-40400D03*
X92750Y-40400D03*
X91750Y-40400D03*
X90750Y-40400D03*
M02*
