G04 (created by PCBNEW (2013-07-07 BZR 4022)-stable) date 9/19/2014 12:24:50 PM*
%MOIN*%
G04 Gerber Fmt 3.4, Leading zero omitted, Abs format*
%FSLAX34Y34*%
G01*
G70*
G90*
G04 APERTURE LIST*
%ADD10C,0.00590551*%
%ADD11C,0.07*%
%ADD12C,0.05*%
%ADD13O,0.06X0.1*%
%ADD14C,0.035*%
%ADD15C,0.01*%
%ADD16C,0.019*%
G04 APERTURE END LIST*
G54D10*
G54D11*
X89340Y-41800D03*
X78210Y-41810D03*
X77060Y-41860D03*
X75810Y-41860D03*
X79560Y-41860D03*
X93390Y-41760D03*
X77370Y-55210D03*
X81030Y-49430D03*
X88750Y-57850D03*
X98200Y-46500D03*
X87500Y-57850D03*
X94010Y-55286D03*
X93500Y-44160D03*
X89030Y-46120D03*
X88270Y-47800D03*
X78770Y-55245D03*
G54D12*
X76876Y-46150D03*
X76876Y-44229D03*
G54D11*
X98038Y-52456D03*
X98038Y-51078D03*
X98038Y-49700D03*
X98038Y-48322D03*
X75400Y-53637D03*
X76407Y-53641D03*
G54D13*
X89150Y-40400D03*
X88150Y-40400D03*
X87150Y-40400D03*
X86150Y-40400D03*
X85150Y-40400D03*
X84150Y-40400D03*
X83150Y-40400D03*
X82150Y-40400D03*
X86750Y-59400D03*
X85750Y-59400D03*
X84750Y-59400D03*
X83750Y-59400D03*
X87750Y-59400D03*
X88750Y-59400D03*
X89750Y-59400D03*
X90750Y-59400D03*
X92750Y-59400D03*
X93750Y-59400D03*
X94750Y-59400D03*
X95750Y-59400D03*
X96750Y-59400D03*
X97750Y-59400D03*
X97750Y-40400D03*
X96750Y-40400D03*
X95750Y-40400D03*
X94750Y-40400D03*
X93750Y-40400D03*
X92750Y-40400D03*
X91750Y-40400D03*
X90750Y-40400D03*
G54D14*
X97960Y-58200D03*
X96370Y-58230D03*
X78770Y-42980D03*
X79110Y-43720D03*
X84442Y-46074D03*
X92100Y-50218D03*
X85022Y-50352D03*
X87370Y-45772D03*
X93676Y-46718D03*
X83120Y-43510D03*
X82650Y-41120D03*
X82200Y-44050D03*
X81970Y-47670D03*
X78150Y-49500D03*
X81210Y-47670D03*
X83110Y-47610D03*
X93184Y-49056D03*
X89916Y-49014D03*
X75240Y-45376D03*
X73816Y-48330D03*
X76786Y-51436D03*
X90246Y-53432D03*
X79730Y-45450D03*
X80450Y-44700D03*
X90640Y-46234D03*
X90616Y-47782D03*
G54D15*
X96400Y-58200D02*
X97960Y-58200D01*
X96370Y-58230D02*
X96400Y-58200D01*
X77600Y-42470D02*
X77560Y-42470D01*
X77060Y-41970D02*
X77060Y-41860D01*
X77560Y-42470D02*
X77060Y-41970D01*
X78260Y-42470D02*
X78770Y-42980D01*
X77600Y-42470D02*
X78260Y-42470D01*
X77550Y-42420D02*
X77600Y-42470D01*
X75940Y-41860D02*
X75810Y-41860D01*
X77870Y-43790D02*
X75940Y-41860D01*
X79040Y-43790D02*
X77870Y-43790D01*
X79110Y-43720D02*
X79040Y-43790D01*
X87316Y-45790D02*
X87314Y-45790D01*
X87334Y-45772D02*
X87316Y-45790D01*
X87370Y-45772D02*
X87334Y-45772D01*
X82470Y-43480D02*
X83090Y-43480D01*
X79560Y-41860D02*
X79580Y-41840D01*
X80800Y-41810D02*
X82470Y-43480D01*
X80800Y-41810D02*
X79580Y-41840D01*
X88690Y-41150D02*
X89340Y-41800D01*
X82680Y-41150D02*
X88690Y-41150D01*
X82650Y-41120D02*
X82680Y-41150D01*
X82200Y-44050D02*
X82200Y-44060D01*
X78150Y-49500D02*
X78150Y-49490D01*
X89916Y-49014D02*
X89916Y-49008D01*
X75240Y-45376D02*
X75240Y-45406D01*
X73816Y-48330D02*
X73816Y-48360D01*
X79730Y-45420D02*
X79730Y-45450D01*
X80450Y-44700D02*
X79730Y-45420D01*
X90640Y-47758D02*
X90640Y-46234D01*
X90616Y-47782D02*
X90640Y-47758D01*
G54D10*
G36*
X99420Y-53247D02*
X99306Y-58383D01*
X98683Y-59006D01*
X98683Y-52328D01*
X98585Y-52091D01*
X98404Y-51909D01*
X98167Y-51811D01*
X97910Y-51811D01*
X97673Y-51909D01*
X97492Y-52090D01*
X97393Y-52327D01*
X97393Y-52584D01*
X97491Y-52821D01*
X97672Y-53002D01*
X97909Y-53101D01*
X98166Y-53101D01*
X98403Y-53003D01*
X98585Y-52822D01*
X98683Y-52585D01*
X98683Y-52328D01*
X98683Y-59006D01*
X98520Y-59170D01*
X98449Y-59275D01*
X98441Y-59319D01*
X98345Y-59419D01*
X98345Y-59184D01*
X98299Y-58956D01*
X98170Y-58763D01*
X98030Y-58670D01*
X98053Y-58670D01*
X98225Y-58598D01*
X98358Y-58466D01*
X98429Y-58293D01*
X98430Y-58106D01*
X98358Y-57934D01*
X98226Y-57801D01*
X98053Y-57730D01*
X97866Y-57729D01*
X97694Y-57801D01*
X97640Y-57855D01*
X96659Y-57855D01*
X96636Y-57831D01*
X96463Y-57760D01*
X96276Y-57759D01*
X96104Y-57831D01*
X95971Y-57963D01*
X95900Y-58136D01*
X95899Y-58323D01*
X95971Y-58495D01*
X96103Y-58628D01*
X96276Y-58699D01*
X96424Y-58700D01*
X96329Y-58763D01*
X96249Y-58882D01*
X96170Y-58763D01*
X95977Y-58634D01*
X95750Y-58589D01*
X95522Y-58634D01*
X95329Y-58763D01*
X95249Y-58882D01*
X95170Y-58763D01*
X94977Y-58634D01*
X94750Y-58589D01*
X94655Y-58608D01*
X94655Y-55158D01*
X94557Y-54921D01*
X94375Y-54739D01*
X94138Y-54641D01*
X93882Y-54640D01*
X93645Y-54738D01*
X93463Y-54920D01*
X93365Y-55157D01*
X93364Y-55413D01*
X93462Y-55650D01*
X93644Y-55832D01*
X93881Y-55930D01*
X94137Y-55931D01*
X94374Y-55833D01*
X94556Y-55651D01*
X94654Y-55414D01*
X94655Y-55158D01*
X94655Y-58608D01*
X94522Y-58634D01*
X94329Y-58763D01*
X94249Y-58882D01*
X94170Y-58763D01*
X93977Y-58634D01*
X93750Y-58589D01*
X93522Y-58634D01*
X93329Y-58763D01*
X93249Y-58882D01*
X93170Y-58763D01*
X92977Y-58634D01*
X92750Y-58589D01*
X92522Y-58634D01*
X92329Y-58763D01*
X92200Y-58956D01*
X92155Y-59184D01*
X92155Y-59615D01*
X92200Y-59843D01*
X92329Y-60036D01*
X92387Y-60075D01*
X91112Y-60075D01*
X91170Y-60036D01*
X91299Y-59843D01*
X91345Y-59615D01*
X91345Y-59184D01*
X91299Y-58956D01*
X91170Y-58763D01*
X90977Y-58634D01*
X90750Y-58589D01*
X90522Y-58634D01*
X90329Y-58763D01*
X90249Y-58882D01*
X90170Y-58763D01*
X89977Y-58634D01*
X89750Y-58589D01*
X89522Y-58634D01*
X89398Y-58717D01*
X89398Y-57742D01*
X89308Y-57502D01*
X89284Y-57467D01*
X89166Y-57440D01*
X89159Y-57447D01*
X89159Y-57433D01*
X89132Y-57315D01*
X88898Y-57209D01*
X88642Y-57201D01*
X88402Y-57291D01*
X88367Y-57315D01*
X88340Y-57433D01*
X88750Y-57842D01*
X89159Y-57433D01*
X89159Y-57447D01*
X88757Y-57850D01*
X89166Y-58259D01*
X89284Y-58232D01*
X89390Y-57998D01*
X89398Y-57742D01*
X89398Y-58717D01*
X89329Y-58763D01*
X89244Y-58889D01*
X89167Y-58775D01*
X89159Y-58770D01*
X89159Y-58266D01*
X88750Y-57857D01*
X88742Y-57864D01*
X88742Y-57850D01*
X88333Y-57440D01*
X88215Y-57467D01*
X88123Y-57670D01*
X88047Y-57485D01*
X87865Y-57303D01*
X87628Y-57205D01*
X87372Y-57204D01*
X87135Y-57302D01*
X86953Y-57484D01*
X86855Y-57721D01*
X86854Y-57977D01*
X86952Y-58214D01*
X87134Y-58396D01*
X87371Y-58494D01*
X87627Y-58495D01*
X87864Y-58397D01*
X88046Y-58215D01*
X88126Y-58023D01*
X88191Y-58197D01*
X88215Y-58232D01*
X88333Y-58259D01*
X88742Y-57850D01*
X88742Y-57864D01*
X88340Y-58266D01*
X88367Y-58384D01*
X88601Y-58490D01*
X88857Y-58498D01*
X89097Y-58408D01*
X89132Y-58384D01*
X89159Y-58266D01*
X89159Y-58770D01*
X88973Y-58648D01*
X88848Y-58613D01*
X88755Y-58678D01*
X88755Y-59395D01*
X88762Y-59395D01*
X88762Y-59405D01*
X88755Y-59405D01*
X88755Y-59412D01*
X88745Y-59412D01*
X88745Y-59405D01*
X88737Y-59405D01*
X88737Y-59395D01*
X88745Y-59395D01*
X88745Y-58678D01*
X88651Y-58613D01*
X88526Y-58648D01*
X88332Y-58775D01*
X88255Y-58889D01*
X88170Y-58763D01*
X87977Y-58634D01*
X87750Y-58589D01*
X87522Y-58634D01*
X87329Y-58763D01*
X87249Y-58882D01*
X87170Y-58763D01*
X86977Y-58634D01*
X86750Y-58589D01*
X86522Y-58634D01*
X86329Y-58763D01*
X86249Y-58882D01*
X86170Y-58763D01*
X85977Y-58634D01*
X85750Y-58589D01*
X85522Y-58634D01*
X85329Y-58763D01*
X85249Y-58882D01*
X85170Y-58763D01*
X84977Y-58634D01*
X84750Y-58589D01*
X84522Y-58634D01*
X84329Y-58763D01*
X84249Y-58882D01*
X84170Y-58763D01*
X83977Y-58634D01*
X83750Y-58589D01*
X83522Y-58634D01*
X83329Y-58763D01*
X83200Y-58956D01*
X83155Y-59184D01*
X83155Y-59615D01*
X83200Y-59843D01*
X83329Y-60036D01*
X83387Y-60075D01*
X83044Y-60075D01*
X82995Y-52245D01*
X84249Y-52245D01*
X95688Y-52285D01*
X95814Y-50624D01*
X97599Y-50605D01*
X97492Y-50712D01*
X97393Y-50949D01*
X97393Y-51206D01*
X97491Y-51443D01*
X97672Y-51624D01*
X97909Y-51723D01*
X98166Y-51723D01*
X98403Y-51625D01*
X98585Y-51444D01*
X98683Y-51207D01*
X98683Y-50950D01*
X98585Y-50713D01*
X98468Y-50596D01*
X99420Y-50586D01*
X99420Y-53247D01*
X99420Y-53247D01*
G37*
G54D16*
X99420Y-53247D02*
X99306Y-58383D01*
X98683Y-59006D01*
X98683Y-52328D01*
X98585Y-52091D01*
X98404Y-51909D01*
X98167Y-51811D01*
X97910Y-51811D01*
X97673Y-51909D01*
X97492Y-52090D01*
X97393Y-52327D01*
X97393Y-52584D01*
X97491Y-52821D01*
X97672Y-53002D01*
X97909Y-53101D01*
X98166Y-53101D01*
X98403Y-53003D01*
X98585Y-52822D01*
X98683Y-52585D01*
X98683Y-52328D01*
X98683Y-59006D01*
X98520Y-59170D01*
X98449Y-59275D01*
X98441Y-59319D01*
X98345Y-59419D01*
X98345Y-59184D01*
X98299Y-58956D01*
X98170Y-58763D01*
X98030Y-58670D01*
X98053Y-58670D01*
X98225Y-58598D01*
X98358Y-58466D01*
X98429Y-58293D01*
X98430Y-58106D01*
X98358Y-57934D01*
X98226Y-57801D01*
X98053Y-57730D01*
X97866Y-57729D01*
X97694Y-57801D01*
X97640Y-57855D01*
X96659Y-57855D01*
X96636Y-57831D01*
X96463Y-57760D01*
X96276Y-57759D01*
X96104Y-57831D01*
X95971Y-57963D01*
X95900Y-58136D01*
X95899Y-58323D01*
X95971Y-58495D01*
X96103Y-58628D01*
X96276Y-58699D01*
X96424Y-58700D01*
X96329Y-58763D01*
X96249Y-58882D01*
X96170Y-58763D01*
X95977Y-58634D01*
X95750Y-58589D01*
X95522Y-58634D01*
X95329Y-58763D01*
X95249Y-58882D01*
X95170Y-58763D01*
X94977Y-58634D01*
X94750Y-58589D01*
X94655Y-58608D01*
X94655Y-55158D01*
X94557Y-54921D01*
X94375Y-54739D01*
X94138Y-54641D01*
X93882Y-54640D01*
X93645Y-54738D01*
X93463Y-54920D01*
X93365Y-55157D01*
X93364Y-55413D01*
X93462Y-55650D01*
X93644Y-55832D01*
X93881Y-55930D01*
X94137Y-55931D01*
X94374Y-55833D01*
X94556Y-55651D01*
X94654Y-55414D01*
X94655Y-55158D01*
X94655Y-58608D01*
X94522Y-58634D01*
X94329Y-58763D01*
X94249Y-58882D01*
X94170Y-58763D01*
X93977Y-58634D01*
X93750Y-58589D01*
X93522Y-58634D01*
X93329Y-58763D01*
X93249Y-58882D01*
X93170Y-58763D01*
X92977Y-58634D01*
X92750Y-58589D01*
X92522Y-58634D01*
X92329Y-58763D01*
X92200Y-58956D01*
X92155Y-59184D01*
X92155Y-59615D01*
X92200Y-59843D01*
X92329Y-60036D01*
X92387Y-60075D01*
X91112Y-60075D01*
X91170Y-60036D01*
X91299Y-59843D01*
X91345Y-59615D01*
X91345Y-59184D01*
X91299Y-58956D01*
X91170Y-58763D01*
X90977Y-58634D01*
X90750Y-58589D01*
X90522Y-58634D01*
X90329Y-58763D01*
X90249Y-58882D01*
X90170Y-58763D01*
X89977Y-58634D01*
X89750Y-58589D01*
X89522Y-58634D01*
X89398Y-58717D01*
X89398Y-57742D01*
X89308Y-57502D01*
X89284Y-57467D01*
X89166Y-57440D01*
X89159Y-57447D01*
X89159Y-57433D01*
X89132Y-57315D01*
X88898Y-57209D01*
X88642Y-57201D01*
X88402Y-57291D01*
X88367Y-57315D01*
X88340Y-57433D01*
X88750Y-57842D01*
X89159Y-57433D01*
X89159Y-57447D01*
X88757Y-57850D01*
X89166Y-58259D01*
X89284Y-58232D01*
X89390Y-57998D01*
X89398Y-57742D01*
X89398Y-58717D01*
X89329Y-58763D01*
X89244Y-58889D01*
X89167Y-58775D01*
X89159Y-58770D01*
X89159Y-58266D01*
X88750Y-57857D01*
X88742Y-57864D01*
X88742Y-57850D01*
X88333Y-57440D01*
X88215Y-57467D01*
X88123Y-57670D01*
X88047Y-57485D01*
X87865Y-57303D01*
X87628Y-57205D01*
X87372Y-57204D01*
X87135Y-57302D01*
X86953Y-57484D01*
X86855Y-57721D01*
X86854Y-57977D01*
X86952Y-58214D01*
X87134Y-58396D01*
X87371Y-58494D01*
X87627Y-58495D01*
X87864Y-58397D01*
X88046Y-58215D01*
X88126Y-58023D01*
X88191Y-58197D01*
X88215Y-58232D01*
X88333Y-58259D01*
X88742Y-57850D01*
X88742Y-57864D01*
X88340Y-58266D01*
X88367Y-58384D01*
X88601Y-58490D01*
X88857Y-58498D01*
X89097Y-58408D01*
X89132Y-58384D01*
X89159Y-58266D01*
X89159Y-58770D01*
X88973Y-58648D01*
X88848Y-58613D01*
X88755Y-58678D01*
X88755Y-59395D01*
X88762Y-59395D01*
X88762Y-59405D01*
X88755Y-59405D01*
X88755Y-59412D01*
X88745Y-59412D01*
X88745Y-59405D01*
X88737Y-59405D01*
X88737Y-59395D01*
X88745Y-59395D01*
X88745Y-58678D01*
X88651Y-58613D01*
X88526Y-58648D01*
X88332Y-58775D01*
X88255Y-58889D01*
X88170Y-58763D01*
X87977Y-58634D01*
X87750Y-58589D01*
X87522Y-58634D01*
X87329Y-58763D01*
X87249Y-58882D01*
X87170Y-58763D01*
X86977Y-58634D01*
X86750Y-58589D01*
X86522Y-58634D01*
X86329Y-58763D01*
X86249Y-58882D01*
X86170Y-58763D01*
X85977Y-58634D01*
X85750Y-58589D01*
X85522Y-58634D01*
X85329Y-58763D01*
X85249Y-58882D01*
X85170Y-58763D01*
X84977Y-58634D01*
X84750Y-58589D01*
X84522Y-58634D01*
X84329Y-58763D01*
X84249Y-58882D01*
X84170Y-58763D01*
X83977Y-58634D01*
X83750Y-58589D01*
X83522Y-58634D01*
X83329Y-58763D01*
X83200Y-58956D01*
X83155Y-59184D01*
X83155Y-59615D01*
X83200Y-59843D01*
X83329Y-60036D01*
X83387Y-60075D01*
X83044Y-60075D01*
X82995Y-52245D01*
X84249Y-52245D01*
X95688Y-52285D01*
X95814Y-50624D01*
X97599Y-50605D01*
X97492Y-50712D01*
X97393Y-50949D01*
X97393Y-51206D01*
X97491Y-51443D01*
X97672Y-51624D01*
X97909Y-51723D01*
X98166Y-51723D01*
X98403Y-51625D01*
X98585Y-51444D01*
X98683Y-51207D01*
X98683Y-50950D01*
X98585Y-50713D01*
X98468Y-50596D01*
X99420Y-50586D01*
X99420Y-53247D01*
G54D10*
G36*
X99420Y-48391D02*
X99413Y-49991D01*
X98845Y-49995D01*
X98845Y-46372D01*
X98747Y-46135D01*
X98565Y-45953D01*
X98328Y-45855D01*
X98072Y-45854D01*
X97835Y-45952D01*
X97653Y-46134D01*
X97555Y-46371D01*
X97554Y-46627D01*
X97652Y-46864D01*
X97834Y-47046D01*
X98071Y-47144D01*
X98327Y-47145D01*
X98564Y-47047D01*
X98746Y-46865D01*
X98844Y-46628D01*
X98845Y-46372D01*
X98845Y-49995D01*
X98612Y-49996D01*
X98679Y-49849D01*
X98687Y-49592D01*
X98683Y-49582D01*
X98683Y-48194D01*
X98585Y-47957D01*
X98404Y-47775D01*
X98167Y-47677D01*
X97910Y-47677D01*
X97673Y-47775D01*
X97492Y-47956D01*
X97393Y-48193D01*
X97393Y-48450D01*
X97491Y-48687D01*
X97672Y-48868D01*
X97909Y-48967D01*
X98166Y-48967D01*
X98403Y-48869D01*
X98585Y-48688D01*
X98683Y-48451D01*
X98683Y-48194D01*
X98683Y-49582D01*
X98596Y-49352D01*
X98573Y-49317D01*
X98454Y-49291D01*
X98447Y-49298D01*
X98447Y-49284D01*
X98421Y-49165D01*
X98187Y-49059D01*
X97930Y-49051D01*
X97690Y-49142D01*
X97656Y-49165D01*
X97629Y-49284D01*
X98038Y-49693D01*
X98447Y-49284D01*
X98447Y-49298D01*
X98045Y-49700D01*
X98051Y-49705D01*
X98044Y-49713D01*
X98038Y-49707D01*
X98033Y-49713D01*
X98025Y-49705D01*
X98031Y-49700D01*
X97622Y-49291D01*
X97503Y-49317D01*
X97397Y-49551D01*
X97389Y-49808D01*
X97463Y-50004D01*
X95089Y-50019D01*
X94933Y-51347D01*
X94145Y-51354D01*
X94145Y-44032D01*
X94047Y-43795D01*
X93865Y-43613D01*
X93628Y-43515D01*
X93372Y-43514D01*
X93135Y-43612D01*
X92953Y-43794D01*
X92855Y-44031D01*
X92854Y-44287D01*
X92952Y-44524D01*
X93134Y-44706D01*
X93371Y-44804D01*
X93627Y-44805D01*
X93864Y-44707D01*
X94046Y-44525D01*
X94144Y-44288D01*
X94145Y-44032D01*
X94145Y-51354D01*
X83101Y-51448D01*
X83186Y-49773D01*
X93744Y-49888D01*
X93717Y-48431D01*
X93379Y-48383D01*
X91110Y-48354D01*
X91110Y-46140D01*
X91038Y-45968D01*
X90906Y-45835D01*
X90733Y-45764D01*
X90546Y-45763D01*
X90374Y-45835D01*
X90241Y-45967D01*
X90170Y-46140D01*
X90169Y-46327D01*
X90241Y-46499D01*
X90295Y-46553D01*
X90295Y-47438D01*
X90217Y-47515D01*
X90146Y-47688D01*
X90145Y-47875D01*
X90217Y-48047D01*
X90349Y-48180D01*
X90522Y-48251D01*
X90709Y-48252D01*
X90881Y-48180D01*
X91014Y-48048D01*
X91085Y-47875D01*
X91086Y-47688D01*
X91014Y-47516D01*
X90985Y-47486D01*
X90985Y-46553D01*
X91038Y-46500D01*
X91109Y-46327D01*
X91110Y-46140D01*
X91110Y-48354D01*
X89675Y-48336D01*
X89675Y-45992D01*
X89577Y-45755D01*
X89395Y-45573D01*
X89158Y-45475D01*
X88902Y-45474D01*
X88665Y-45572D01*
X88483Y-45754D01*
X88385Y-45991D01*
X88384Y-46247D01*
X88482Y-46484D01*
X88664Y-46666D01*
X88901Y-46764D01*
X89157Y-46765D01*
X89394Y-46667D01*
X89576Y-46485D01*
X89674Y-46248D01*
X89675Y-45992D01*
X89675Y-48336D01*
X88658Y-48323D01*
X88816Y-48165D01*
X88914Y-47928D01*
X88915Y-47672D01*
X88817Y-47435D01*
X88635Y-47253D01*
X88398Y-47155D01*
X88142Y-47154D01*
X87905Y-47252D01*
X87723Y-47434D01*
X87625Y-47671D01*
X87624Y-47927D01*
X87722Y-48164D01*
X87871Y-48313D01*
X84012Y-48264D01*
X84192Y-41495D01*
X88547Y-41495D01*
X88703Y-41651D01*
X88695Y-41671D01*
X88694Y-41927D01*
X88792Y-42164D01*
X88974Y-42346D01*
X89211Y-42444D01*
X89467Y-42445D01*
X89704Y-42347D01*
X89886Y-42165D01*
X89984Y-41928D01*
X89985Y-41672D01*
X89887Y-41436D01*
X92824Y-41439D01*
X92745Y-41631D01*
X92744Y-41887D01*
X92842Y-42124D01*
X93024Y-42306D01*
X93261Y-42404D01*
X93517Y-42405D01*
X93754Y-42307D01*
X93936Y-42125D01*
X94034Y-41888D01*
X94035Y-41632D01*
X93956Y-41441D01*
X98375Y-41446D01*
X98375Y-44882D01*
X99420Y-45762D01*
X99420Y-48391D01*
X99420Y-48391D01*
G37*
G54D16*
X99420Y-48391D02*
X99413Y-49991D01*
X98845Y-49995D01*
X98845Y-46372D01*
X98747Y-46135D01*
X98565Y-45953D01*
X98328Y-45855D01*
X98072Y-45854D01*
X97835Y-45952D01*
X97653Y-46134D01*
X97555Y-46371D01*
X97554Y-46627D01*
X97652Y-46864D01*
X97834Y-47046D01*
X98071Y-47144D01*
X98327Y-47145D01*
X98564Y-47047D01*
X98746Y-46865D01*
X98844Y-46628D01*
X98845Y-46372D01*
X98845Y-49995D01*
X98612Y-49996D01*
X98679Y-49849D01*
X98687Y-49592D01*
X98683Y-49582D01*
X98683Y-48194D01*
X98585Y-47957D01*
X98404Y-47775D01*
X98167Y-47677D01*
X97910Y-47677D01*
X97673Y-47775D01*
X97492Y-47956D01*
X97393Y-48193D01*
X97393Y-48450D01*
X97491Y-48687D01*
X97672Y-48868D01*
X97909Y-48967D01*
X98166Y-48967D01*
X98403Y-48869D01*
X98585Y-48688D01*
X98683Y-48451D01*
X98683Y-48194D01*
X98683Y-49582D01*
X98596Y-49352D01*
X98573Y-49317D01*
X98454Y-49291D01*
X98447Y-49298D01*
X98447Y-49284D01*
X98421Y-49165D01*
X98187Y-49059D01*
X97930Y-49051D01*
X97690Y-49142D01*
X97656Y-49165D01*
X97629Y-49284D01*
X98038Y-49693D01*
X98447Y-49284D01*
X98447Y-49298D01*
X98045Y-49700D01*
X98051Y-49705D01*
X98044Y-49713D01*
X98038Y-49707D01*
X98033Y-49713D01*
X98025Y-49705D01*
X98031Y-49700D01*
X97622Y-49291D01*
X97503Y-49317D01*
X97397Y-49551D01*
X97389Y-49808D01*
X97463Y-50004D01*
X95089Y-50019D01*
X94933Y-51347D01*
X94145Y-51354D01*
X94145Y-44032D01*
X94047Y-43795D01*
X93865Y-43613D01*
X93628Y-43515D01*
X93372Y-43514D01*
X93135Y-43612D01*
X92953Y-43794D01*
X92855Y-44031D01*
X92854Y-44287D01*
X92952Y-44524D01*
X93134Y-44706D01*
X93371Y-44804D01*
X93627Y-44805D01*
X93864Y-44707D01*
X94046Y-44525D01*
X94144Y-44288D01*
X94145Y-44032D01*
X94145Y-51354D01*
X83101Y-51448D01*
X83186Y-49773D01*
X93744Y-49888D01*
X93717Y-48431D01*
X93379Y-48383D01*
X91110Y-48354D01*
X91110Y-46140D01*
X91038Y-45968D01*
X90906Y-45835D01*
X90733Y-45764D01*
X90546Y-45763D01*
X90374Y-45835D01*
X90241Y-45967D01*
X90170Y-46140D01*
X90169Y-46327D01*
X90241Y-46499D01*
X90295Y-46553D01*
X90295Y-47438D01*
X90217Y-47515D01*
X90146Y-47688D01*
X90145Y-47875D01*
X90217Y-48047D01*
X90349Y-48180D01*
X90522Y-48251D01*
X90709Y-48252D01*
X90881Y-48180D01*
X91014Y-48048D01*
X91085Y-47875D01*
X91086Y-47688D01*
X91014Y-47516D01*
X90985Y-47486D01*
X90985Y-46553D01*
X91038Y-46500D01*
X91109Y-46327D01*
X91110Y-46140D01*
X91110Y-48354D01*
X89675Y-48336D01*
X89675Y-45992D01*
X89577Y-45755D01*
X89395Y-45573D01*
X89158Y-45475D01*
X88902Y-45474D01*
X88665Y-45572D01*
X88483Y-45754D01*
X88385Y-45991D01*
X88384Y-46247D01*
X88482Y-46484D01*
X88664Y-46666D01*
X88901Y-46764D01*
X89157Y-46765D01*
X89394Y-46667D01*
X89576Y-46485D01*
X89674Y-46248D01*
X89675Y-45992D01*
X89675Y-48336D01*
X88658Y-48323D01*
X88816Y-48165D01*
X88914Y-47928D01*
X88915Y-47672D01*
X88817Y-47435D01*
X88635Y-47253D01*
X88398Y-47155D01*
X88142Y-47154D01*
X87905Y-47252D01*
X87723Y-47434D01*
X87625Y-47671D01*
X87624Y-47927D01*
X87722Y-48164D01*
X87871Y-48313D01*
X84012Y-48264D01*
X84192Y-41495D01*
X88547Y-41495D01*
X88703Y-41651D01*
X88695Y-41671D01*
X88694Y-41927D01*
X88792Y-42164D01*
X88974Y-42346D01*
X89211Y-42444D01*
X89467Y-42445D01*
X89704Y-42347D01*
X89886Y-42165D01*
X89984Y-41928D01*
X89985Y-41672D01*
X89887Y-41436D01*
X92824Y-41439D01*
X92745Y-41631D01*
X92744Y-41887D01*
X92842Y-42124D01*
X93024Y-42306D01*
X93261Y-42404D01*
X93517Y-42405D01*
X93754Y-42307D01*
X93936Y-42125D01*
X94034Y-41888D01*
X94035Y-41632D01*
X93956Y-41441D01*
X98375Y-41446D01*
X98375Y-44882D01*
X99420Y-45762D01*
X99420Y-48391D01*
G54D10*
G36*
X83736Y-41394D02*
X83715Y-41393D01*
X83716Y-41376D01*
X83736Y-41394D01*
X83736Y-41394D01*
G37*
G54D16*
X83736Y-41394D02*
X83715Y-41393D01*
X83716Y-41376D01*
X83736Y-41394D01*
G54D10*
G36*
X93303Y-49476D02*
X82062Y-49178D01*
X82118Y-56674D01*
X81675Y-56670D01*
X81675Y-49302D01*
X81577Y-49065D01*
X81395Y-48883D01*
X81158Y-48785D01*
X80920Y-48784D01*
X80920Y-44606D01*
X80848Y-44434D01*
X80716Y-44301D01*
X80543Y-44230D01*
X80356Y-44229D01*
X80184Y-44301D01*
X80051Y-44433D01*
X79980Y-44606D01*
X79980Y-44682D01*
X79682Y-44979D01*
X79636Y-44979D01*
X79464Y-45051D01*
X79331Y-45183D01*
X79260Y-45356D01*
X79259Y-45543D01*
X79331Y-45715D01*
X79463Y-45848D01*
X79636Y-45919D01*
X79823Y-45920D01*
X79995Y-45848D01*
X80128Y-45716D01*
X80199Y-45543D01*
X80200Y-45437D01*
X80467Y-45170D01*
X80543Y-45170D01*
X80715Y-45098D01*
X80848Y-44966D01*
X80919Y-44793D01*
X80920Y-44606D01*
X80920Y-48784D01*
X80902Y-48784D01*
X80665Y-48882D01*
X80483Y-49064D01*
X80385Y-49301D01*
X80384Y-49557D01*
X80482Y-49794D01*
X80664Y-49976D01*
X80901Y-50074D01*
X81157Y-50075D01*
X81394Y-49977D01*
X81576Y-49795D01*
X81674Y-49558D01*
X81675Y-49302D01*
X81675Y-56670D01*
X79415Y-56652D01*
X79415Y-55117D01*
X79317Y-54880D01*
X79135Y-54698D01*
X78898Y-54600D01*
X78642Y-54599D01*
X78405Y-54697D01*
X78223Y-54879D01*
X78125Y-55116D01*
X78124Y-55372D01*
X78222Y-55609D01*
X78404Y-55791D01*
X78641Y-55889D01*
X78897Y-55890D01*
X79134Y-55792D01*
X79316Y-55610D01*
X79414Y-55373D01*
X79415Y-55117D01*
X79415Y-56652D01*
X78018Y-56641D01*
X78018Y-55102D01*
X77928Y-54862D01*
X77904Y-54827D01*
X77786Y-54800D01*
X77779Y-54807D01*
X77779Y-54793D01*
X77752Y-54675D01*
X77518Y-54569D01*
X77421Y-54566D01*
X77421Y-46042D01*
X77421Y-44121D01*
X77338Y-43921D01*
X77185Y-43767D01*
X76985Y-43684D01*
X76768Y-43684D01*
X76568Y-43767D01*
X76414Y-43920D01*
X76331Y-44120D01*
X76331Y-44337D01*
X76414Y-44537D01*
X76567Y-44691D01*
X76767Y-44774D01*
X76984Y-44774D01*
X77184Y-44691D01*
X77338Y-44538D01*
X77421Y-44338D01*
X77421Y-44121D01*
X77421Y-46042D01*
X77338Y-45842D01*
X77185Y-45689D01*
X76985Y-45605D01*
X76768Y-45605D01*
X76568Y-45688D01*
X76414Y-45841D01*
X76331Y-46041D01*
X76331Y-46258D01*
X76414Y-46459D01*
X76567Y-46612D01*
X76767Y-46695D01*
X76984Y-46695D01*
X77184Y-46613D01*
X77338Y-46459D01*
X77421Y-46259D01*
X77421Y-46042D01*
X77421Y-54566D01*
X77262Y-54561D01*
X77052Y-54640D01*
X77052Y-53514D01*
X76954Y-53276D01*
X76773Y-53095D01*
X76536Y-52996D01*
X76280Y-52996D01*
X76042Y-53094D01*
X75891Y-53245D01*
X75816Y-53228D01*
X75809Y-53235D01*
X75809Y-53221D01*
X75782Y-53102D01*
X75548Y-52997D01*
X75292Y-52989D01*
X75052Y-53079D01*
X75017Y-53102D01*
X74990Y-53221D01*
X75400Y-53630D01*
X75809Y-53221D01*
X75809Y-53235D01*
X75407Y-53637D01*
X75816Y-54047D01*
X75885Y-54031D01*
X76042Y-54188D01*
X76279Y-54286D01*
X76535Y-54286D01*
X76772Y-54188D01*
X76954Y-54007D01*
X77052Y-53770D01*
X77052Y-53514D01*
X77052Y-54640D01*
X77022Y-54651D01*
X76987Y-54675D01*
X76960Y-54793D01*
X77370Y-55202D01*
X77779Y-54793D01*
X77779Y-54807D01*
X77377Y-55210D01*
X77786Y-55619D01*
X77904Y-55592D01*
X78010Y-55358D01*
X78018Y-55102D01*
X78018Y-56641D01*
X77779Y-56639D01*
X77779Y-55626D01*
X77370Y-55217D01*
X77362Y-55224D01*
X77362Y-55210D01*
X76953Y-54800D01*
X76835Y-54827D01*
X76729Y-55061D01*
X76721Y-55317D01*
X76811Y-55557D01*
X76835Y-55592D01*
X76953Y-55619D01*
X77362Y-55210D01*
X77362Y-55224D01*
X76960Y-55626D01*
X76987Y-55744D01*
X77221Y-55850D01*
X77477Y-55858D01*
X77717Y-55768D01*
X77752Y-55744D01*
X77779Y-55626D01*
X77779Y-56639D01*
X75809Y-56623D01*
X75809Y-54054D01*
X75400Y-53644D01*
X75392Y-53652D01*
X75392Y-53637D01*
X74983Y-53228D01*
X74865Y-53255D01*
X74759Y-53489D01*
X74751Y-53745D01*
X74841Y-53985D01*
X74865Y-54020D01*
X74983Y-54047D01*
X75392Y-53637D01*
X75392Y-53652D01*
X74990Y-54054D01*
X75017Y-54172D01*
X75251Y-54278D01*
X75507Y-54286D01*
X75747Y-54195D01*
X75782Y-54172D01*
X75809Y-54054D01*
X75809Y-56623D01*
X73075Y-56601D01*
X73075Y-52545D01*
X73128Y-41435D01*
X75311Y-41446D01*
X75263Y-41494D01*
X75165Y-41731D01*
X75164Y-41987D01*
X75262Y-42224D01*
X75444Y-42406D01*
X75681Y-42504D01*
X75937Y-42505D01*
X76050Y-42458D01*
X77626Y-44033D01*
X77626Y-44033D01*
X77709Y-44089D01*
X77737Y-44108D01*
X77737Y-44108D01*
X77837Y-44128D01*
X77869Y-44135D01*
X77869Y-44134D01*
X77870Y-44135D01*
X78883Y-44135D01*
X79016Y-44189D01*
X79203Y-44190D01*
X79375Y-44118D01*
X79508Y-43986D01*
X79579Y-43813D01*
X79580Y-43626D01*
X79508Y-43454D01*
X79376Y-43321D01*
X79203Y-43250D01*
X79164Y-43250D01*
X79168Y-43246D01*
X79239Y-43073D01*
X79240Y-42886D01*
X79168Y-42714D01*
X79036Y-42581D01*
X78863Y-42510D01*
X78787Y-42510D01*
X78604Y-42327D01*
X78756Y-42175D01*
X78854Y-41938D01*
X78855Y-41682D01*
X78764Y-41463D01*
X79042Y-41465D01*
X79013Y-41494D01*
X78915Y-41731D01*
X78914Y-41987D01*
X79012Y-42224D01*
X79194Y-42406D01*
X79431Y-42504D01*
X79687Y-42505D01*
X79924Y-42407D01*
X80106Y-42225D01*
X80128Y-42171D01*
X80660Y-42158D01*
X82226Y-43723D01*
X82337Y-43798D01*
X82337Y-43798D01*
X82470Y-43825D01*
X82770Y-43825D01*
X82853Y-43908D01*
X83026Y-43979D01*
X83213Y-43980D01*
X83385Y-43908D01*
X83518Y-43776D01*
X83586Y-43611D01*
X83509Y-48683D01*
X93303Y-48813D01*
X93303Y-49476D01*
X93303Y-49476D01*
G37*
G54D16*
X93303Y-49476D02*
X82062Y-49178D01*
X82118Y-56674D01*
X81675Y-56670D01*
X81675Y-49302D01*
X81577Y-49065D01*
X81395Y-48883D01*
X81158Y-48785D01*
X80920Y-48784D01*
X80920Y-44606D01*
X80848Y-44434D01*
X80716Y-44301D01*
X80543Y-44230D01*
X80356Y-44229D01*
X80184Y-44301D01*
X80051Y-44433D01*
X79980Y-44606D01*
X79980Y-44682D01*
X79682Y-44979D01*
X79636Y-44979D01*
X79464Y-45051D01*
X79331Y-45183D01*
X79260Y-45356D01*
X79259Y-45543D01*
X79331Y-45715D01*
X79463Y-45848D01*
X79636Y-45919D01*
X79823Y-45920D01*
X79995Y-45848D01*
X80128Y-45716D01*
X80199Y-45543D01*
X80200Y-45437D01*
X80467Y-45170D01*
X80543Y-45170D01*
X80715Y-45098D01*
X80848Y-44966D01*
X80919Y-44793D01*
X80920Y-44606D01*
X80920Y-48784D01*
X80902Y-48784D01*
X80665Y-48882D01*
X80483Y-49064D01*
X80385Y-49301D01*
X80384Y-49557D01*
X80482Y-49794D01*
X80664Y-49976D01*
X80901Y-50074D01*
X81157Y-50075D01*
X81394Y-49977D01*
X81576Y-49795D01*
X81674Y-49558D01*
X81675Y-49302D01*
X81675Y-56670D01*
X79415Y-56652D01*
X79415Y-55117D01*
X79317Y-54880D01*
X79135Y-54698D01*
X78898Y-54600D01*
X78642Y-54599D01*
X78405Y-54697D01*
X78223Y-54879D01*
X78125Y-55116D01*
X78124Y-55372D01*
X78222Y-55609D01*
X78404Y-55791D01*
X78641Y-55889D01*
X78897Y-55890D01*
X79134Y-55792D01*
X79316Y-55610D01*
X79414Y-55373D01*
X79415Y-55117D01*
X79415Y-56652D01*
X78018Y-56641D01*
X78018Y-55102D01*
X77928Y-54862D01*
X77904Y-54827D01*
X77786Y-54800D01*
X77779Y-54807D01*
X77779Y-54793D01*
X77752Y-54675D01*
X77518Y-54569D01*
X77421Y-54566D01*
X77421Y-46042D01*
X77421Y-44121D01*
X77338Y-43921D01*
X77185Y-43767D01*
X76985Y-43684D01*
X76768Y-43684D01*
X76568Y-43767D01*
X76414Y-43920D01*
X76331Y-44120D01*
X76331Y-44337D01*
X76414Y-44537D01*
X76567Y-44691D01*
X76767Y-44774D01*
X76984Y-44774D01*
X77184Y-44691D01*
X77338Y-44538D01*
X77421Y-44338D01*
X77421Y-44121D01*
X77421Y-46042D01*
X77338Y-45842D01*
X77185Y-45689D01*
X76985Y-45605D01*
X76768Y-45605D01*
X76568Y-45688D01*
X76414Y-45841D01*
X76331Y-46041D01*
X76331Y-46258D01*
X76414Y-46459D01*
X76567Y-46612D01*
X76767Y-46695D01*
X76984Y-46695D01*
X77184Y-46613D01*
X77338Y-46459D01*
X77421Y-46259D01*
X77421Y-46042D01*
X77421Y-54566D01*
X77262Y-54561D01*
X77052Y-54640D01*
X77052Y-53514D01*
X76954Y-53276D01*
X76773Y-53095D01*
X76536Y-52996D01*
X76280Y-52996D01*
X76042Y-53094D01*
X75891Y-53245D01*
X75816Y-53228D01*
X75809Y-53235D01*
X75809Y-53221D01*
X75782Y-53102D01*
X75548Y-52997D01*
X75292Y-52989D01*
X75052Y-53079D01*
X75017Y-53102D01*
X74990Y-53221D01*
X75400Y-53630D01*
X75809Y-53221D01*
X75809Y-53235D01*
X75407Y-53637D01*
X75816Y-54047D01*
X75885Y-54031D01*
X76042Y-54188D01*
X76279Y-54286D01*
X76535Y-54286D01*
X76772Y-54188D01*
X76954Y-54007D01*
X77052Y-53770D01*
X77052Y-53514D01*
X77052Y-54640D01*
X77022Y-54651D01*
X76987Y-54675D01*
X76960Y-54793D01*
X77370Y-55202D01*
X77779Y-54793D01*
X77779Y-54807D01*
X77377Y-55210D01*
X77786Y-55619D01*
X77904Y-55592D01*
X78010Y-55358D01*
X78018Y-55102D01*
X78018Y-56641D01*
X77779Y-56639D01*
X77779Y-55626D01*
X77370Y-55217D01*
X77362Y-55224D01*
X77362Y-55210D01*
X76953Y-54800D01*
X76835Y-54827D01*
X76729Y-55061D01*
X76721Y-55317D01*
X76811Y-55557D01*
X76835Y-55592D01*
X76953Y-55619D01*
X77362Y-55210D01*
X77362Y-55224D01*
X76960Y-55626D01*
X76987Y-55744D01*
X77221Y-55850D01*
X77477Y-55858D01*
X77717Y-55768D01*
X77752Y-55744D01*
X77779Y-55626D01*
X77779Y-56639D01*
X75809Y-56623D01*
X75809Y-54054D01*
X75400Y-53644D01*
X75392Y-53652D01*
X75392Y-53637D01*
X74983Y-53228D01*
X74865Y-53255D01*
X74759Y-53489D01*
X74751Y-53745D01*
X74841Y-53985D01*
X74865Y-54020D01*
X74983Y-54047D01*
X75392Y-53637D01*
X75392Y-53652D01*
X74990Y-54054D01*
X75017Y-54172D01*
X75251Y-54278D01*
X75507Y-54286D01*
X75747Y-54195D01*
X75782Y-54172D01*
X75809Y-54054D01*
X75809Y-56623D01*
X73075Y-56601D01*
X73075Y-52545D01*
X73128Y-41435D01*
X75311Y-41446D01*
X75263Y-41494D01*
X75165Y-41731D01*
X75164Y-41987D01*
X75262Y-42224D01*
X75444Y-42406D01*
X75681Y-42504D01*
X75937Y-42505D01*
X76050Y-42458D01*
X77626Y-44033D01*
X77626Y-44033D01*
X77709Y-44089D01*
X77737Y-44108D01*
X77737Y-44108D01*
X77837Y-44128D01*
X77869Y-44135D01*
X77869Y-44134D01*
X77870Y-44135D01*
X78883Y-44135D01*
X79016Y-44189D01*
X79203Y-44190D01*
X79375Y-44118D01*
X79508Y-43986D01*
X79579Y-43813D01*
X79580Y-43626D01*
X79508Y-43454D01*
X79376Y-43321D01*
X79203Y-43250D01*
X79164Y-43250D01*
X79168Y-43246D01*
X79239Y-43073D01*
X79240Y-42886D01*
X79168Y-42714D01*
X79036Y-42581D01*
X78863Y-42510D01*
X78787Y-42510D01*
X78604Y-42327D01*
X78756Y-42175D01*
X78854Y-41938D01*
X78855Y-41682D01*
X78764Y-41463D01*
X79042Y-41465D01*
X79013Y-41494D01*
X78915Y-41731D01*
X78914Y-41987D01*
X79012Y-42224D01*
X79194Y-42406D01*
X79431Y-42504D01*
X79687Y-42505D01*
X79924Y-42407D01*
X80106Y-42225D01*
X80128Y-42171D01*
X80660Y-42158D01*
X82226Y-43723D01*
X82337Y-43798D01*
X82337Y-43798D01*
X82470Y-43825D01*
X82770Y-43825D01*
X82853Y-43908D01*
X83026Y-43979D01*
X83213Y-43980D01*
X83385Y-43908D01*
X83518Y-43776D01*
X83586Y-43611D01*
X83509Y-48683D01*
X93303Y-48813D01*
X93303Y-49476D01*
M02*
