G04 (created by PCBNEW (2013-07-07 BZR 4022)-stable) date 9/23/2014 8:39:01 AM*
%MOIN*%
G04 Gerber Fmt 3.4, Leading zero omitted, Abs format*
%FSLAX34Y34*%
G01*
G70*
G90*
G04 APERTURE LIST*
%ADD10C,0.00590551*%
%ADD11C,0.005*%
%ADD12C,0.0039*%
%ADD13C,0.0043*%
%ADD14C,0.0025*%
%ADD15C,0.00984252*%
%ADD16C,0.0047*%
%ADD17C,0.0059*%
%ADD18C,0.008*%
%ADD19R,0.06X0.08*%
%ADD20R,0.055X0.035*%
%ADD21R,0.035X0.055*%
%ADD22C,0.07*%
%ADD23R,0.011811X0.0984252*%
%ADD24C,0.05*%
%ADD25R,0.0866X0.063*%
%ADD26R,0.063X0.0866*%
%ADD27O,0.06X0.1*%
%ADD28R,0.05X0.025*%
%ADD29R,0.12X0.065*%
%ADD30R,0.24X0.24*%
G04 APERTURE END LIST*
G54D10*
G54D11*
X81460Y-47920D02*
X81460Y-48820D01*
X81460Y-48820D02*
X82110Y-48820D01*
X82810Y-47920D02*
X83460Y-47920D01*
X83460Y-47920D02*
X83460Y-48820D01*
X83460Y-48820D02*
X82810Y-48820D01*
X82110Y-47920D02*
X81460Y-47920D01*
G54D12*
X93010Y-48460D02*
G75*
G03X93010Y-48460I-50J0D01*
G74*
G01*
X92960Y-48010D02*
X92960Y-48410D01*
X92960Y-48410D02*
X92360Y-48410D01*
X92360Y-48410D02*
X92360Y-48010D01*
X92360Y-47610D02*
X92360Y-47210D01*
X92360Y-47210D02*
X92960Y-47210D01*
X92960Y-47210D02*
X92960Y-47610D01*
X77230Y-52300D02*
G75*
G03X77230Y-52300I-50J0D01*
G74*
G01*
X77630Y-52300D02*
X77230Y-52300D01*
X77230Y-52300D02*
X77230Y-51700D01*
X77230Y-51700D02*
X77630Y-51700D01*
X78030Y-51700D02*
X78430Y-51700D01*
X78430Y-51700D02*
X78430Y-52300D01*
X78430Y-52300D02*
X78030Y-52300D01*
X78560Y-49170D02*
G75*
G03X78560Y-49170I-50J0D01*
G74*
G01*
X78510Y-48720D02*
X78510Y-49120D01*
X78510Y-49120D02*
X77910Y-49120D01*
X77910Y-49120D02*
X77910Y-48720D01*
X77910Y-48320D02*
X77910Y-47920D01*
X77910Y-47920D02*
X78510Y-47920D01*
X78510Y-47920D02*
X78510Y-48320D01*
X79280Y-48760D02*
G75*
G03X79280Y-48760I-50J0D01*
G74*
G01*
X79680Y-48760D02*
X79280Y-48760D01*
X79280Y-48760D02*
X79280Y-48160D01*
X79280Y-48160D02*
X79680Y-48160D01*
X80080Y-48160D02*
X80480Y-48160D01*
X80480Y-48160D02*
X80480Y-48760D01*
X80480Y-48760D02*
X80080Y-48760D01*
X74220Y-46930D02*
G75*
G03X74220Y-46930I-50J0D01*
G74*
G01*
X74620Y-46930D02*
X74220Y-46930D01*
X74220Y-46930D02*
X74220Y-46330D01*
X74220Y-46330D02*
X74620Y-46330D01*
X75020Y-46330D02*
X75420Y-46330D01*
X75420Y-46330D02*
X75420Y-46930D01*
X75420Y-46930D02*
X75020Y-46930D01*
X74370Y-43930D02*
G75*
G03X74370Y-43930I-50J0D01*
G74*
G01*
X74770Y-43930D02*
X74370Y-43930D01*
X74370Y-43930D02*
X74370Y-43330D01*
X74370Y-43330D02*
X74770Y-43330D01*
X75170Y-43330D02*
X75570Y-43330D01*
X75570Y-43330D02*
X75570Y-43930D01*
X75570Y-43930D02*
X75170Y-43930D01*
X77220Y-51380D02*
G75*
G03X77220Y-51380I-50J0D01*
G74*
G01*
X77620Y-51380D02*
X77220Y-51380D01*
X77220Y-51380D02*
X77220Y-50780D01*
X77220Y-50780D02*
X77620Y-50780D01*
X78020Y-50780D02*
X78420Y-50780D01*
X78420Y-50780D02*
X78420Y-51380D01*
X78420Y-51380D02*
X78020Y-51380D01*
X88940Y-44710D02*
G75*
G03X88940Y-44710I-50J0D01*
G74*
G01*
X88890Y-44260D02*
X88890Y-44660D01*
X88890Y-44660D02*
X88290Y-44660D01*
X88290Y-44660D02*
X88290Y-44260D01*
X88290Y-43860D02*
X88290Y-43460D01*
X88290Y-43460D02*
X88890Y-43460D01*
X88890Y-43460D02*
X88890Y-43860D01*
X82260Y-47264D02*
G75*
G03X82260Y-47264I-50J0D01*
G74*
G01*
X82660Y-47264D02*
X82260Y-47264D01*
X82260Y-47264D02*
X82260Y-46664D01*
X82260Y-46664D02*
X82660Y-46664D01*
X83060Y-46664D02*
X83460Y-46664D01*
X83460Y-46664D02*
X83460Y-47264D01*
X83460Y-47264D02*
X83060Y-47264D01*
X93540Y-48820D02*
G75*
G03X93540Y-48820I-50J0D01*
G74*
G01*
X93490Y-49270D02*
X93490Y-48870D01*
X93490Y-48870D02*
X94090Y-48870D01*
X94090Y-48870D02*
X94090Y-49270D01*
X94090Y-49670D02*
X94090Y-50070D01*
X94090Y-50070D02*
X93490Y-50070D01*
X93490Y-50070D02*
X93490Y-49670D01*
X92970Y-50080D02*
G75*
G03X92970Y-50080I-50J0D01*
G74*
G01*
X92920Y-49630D02*
X92920Y-50030D01*
X92920Y-50030D02*
X92320Y-50030D01*
X92320Y-50030D02*
X92320Y-49630D01*
X92320Y-49230D02*
X92320Y-48830D01*
X92320Y-48830D02*
X92920Y-48830D01*
X92920Y-48830D02*
X92920Y-49230D01*
X85300Y-49280D02*
G75*
G03X85300Y-49280I-50J0D01*
G74*
G01*
X85250Y-49730D02*
X85250Y-49330D01*
X85250Y-49330D02*
X85850Y-49330D01*
X85850Y-49330D02*
X85850Y-49730D01*
X85850Y-50130D02*
X85850Y-50530D01*
X85850Y-50530D02*
X85250Y-50530D01*
X85250Y-50530D02*
X85250Y-50130D01*
X95380Y-48480D02*
G75*
G03X95380Y-48480I-50J0D01*
G74*
G01*
X95330Y-48030D02*
X95330Y-48430D01*
X95330Y-48430D02*
X94730Y-48430D01*
X94730Y-48430D02*
X94730Y-48030D01*
X94730Y-47630D02*
X94730Y-47230D01*
X94730Y-47230D02*
X95330Y-47230D01*
X95330Y-47230D02*
X95330Y-47630D01*
X94190Y-48460D02*
G75*
G03X94190Y-48460I-50J0D01*
G74*
G01*
X94140Y-48010D02*
X94140Y-48410D01*
X94140Y-48410D02*
X93540Y-48410D01*
X93540Y-48410D02*
X93540Y-48010D01*
X93540Y-47610D02*
X93540Y-47210D01*
X93540Y-47210D02*
X94140Y-47210D01*
X94140Y-47210D02*
X94140Y-47610D01*
X97120Y-44320D02*
G75*
G03X97120Y-44320I-50J0D01*
G74*
G01*
X97070Y-44770D02*
X97070Y-44370D01*
X97070Y-44370D02*
X97670Y-44370D01*
X97670Y-44370D02*
X97670Y-44770D01*
X97670Y-45170D02*
X97670Y-45570D01*
X97670Y-45570D02*
X97070Y-45570D01*
X97070Y-45570D02*
X97070Y-45170D01*
X95840Y-47210D02*
G75*
G03X95840Y-47210I-50J0D01*
G74*
G01*
X95790Y-47660D02*
X95790Y-47260D01*
X95790Y-47260D02*
X96390Y-47260D01*
X96390Y-47260D02*
X96390Y-47660D01*
X96390Y-48060D02*
X96390Y-48460D01*
X96390Y-48460D02*
X95790Y-48460D01*
X95790Y-48460D02*
X95790Y-48060D01*
X90350Y-44620D02*
G75*
G03X90350Y-44620I-50J0D01*
G74*
G01*
X90300Y-45070D02*
X90300Y-44670D01*
X90300Y-44670D02*
X90900Y-44670D01*
X90900Y-44670D02*
X90900Y-45070D01*
X90900Y-45470D02*
X90900Y-45870D01*
X90900Y-45870D02*
X90300Y-45870D01*
X90300Y-45870D02*
X90300Y-45470D01*
X92810Y-46160D02*
G75*
G03X92810Y-46160I-50J0D01*
G74*
G01*
X92760Y-45710D02*
X92760Y-46110D01*
X92760Y-46110D02*
X92160Y-46110D01*
X92160Y-46110D02*
X92160Y-45710D01*
X92160Y-45310D02*
X92160Y-44910D01*
X92160Y-44910D02*
X92760Y-44910D01*
X92760Y-44910D02*
X92760Y-45310D01*
X86470Y-45820D02*
G75*
G03X86470Y-45820I-50J0D01*
G74*
G01*
X86420Y-46270D02*
X86420Y-45870D01*
X86420Y-45870D02*
X87020Y-45870D01*
X87020Y-45870D02*
X87020Y-46270D01*
X87020Y-46670D02*
X87020Y-47070D01*
X87020Y-47070D02*
X86420Y-47070D01*
X86420Y-47070D02*
X86420Y-46670D01*
X90050Y-47250D02*
G75*
G03X90050Y-47250I-50J0D01*
G74*
G01*
X90450Y-47250D02*
X90050Y-47250D01*
X90050Y-47250D02*
X90050Y-46650D01*
X90050Y-46650D02*
X90450Y-46650D01*
X90850Y-46650D02*
X91250Y-46650D01*
X91250Y-46650D02*
X91250Y-47250D01*
X91250Y-47250D02*
X90850Y-47250D01*
X87850Y-45850D02*
G75*
G03X87850Y-45850I-50J0D01*
G74*
G01*
X87800Y-46300D02*
X87800Y-45900D01*
X87800Y-45900D02*
X88400Y-45900D01*
X88400Y-45900D02*
X88400Y-46300D01*
X88400Y-46700D02*
X88400Y-47100D01*
X88400Y-47100D02*
X87800Y-47100D01*
X87800Y-47100D02*
X87800Y-46700D01*
X84140Y-49270D02*
G75*
G03X84140Y-49270I-50J0D01*
G74*
G01*
X84090Y-49720D02*
X84090Y-49320D01*
X84090Y-49320D02*
X84690Y-49320D01*
X84690Y-49320D02*
X84690Y-49720D01*
X84690Y-50120D02*
X84690Y-50520D01*
X84690Y-50520D02*
X84090Y-50520D01*
X84090Y-50520D02*
X84090Y-50120D01*
X83170Y-41490D02*
G75*
G03X83170Y-41490I-50J0D01*
G74*
G01*
X82670Y-41490D02*
X83070Y-41490D01*
X83070Y-41490D02*
X83070Y-42090D01*
X83070Y-42090D02*
X82670Y-42090D01*
X82270Y-42090D02*
X81870Y-42090D01*
X81870Y-42090D02*
X81870Y-41490D01*
X81870Y-41490D02*
X82270Y-41490D01*
X73285Y-49490D02*
G75*
G03X73285Y-49490I-50J0D01*
G74*
G01*
X73685Y-49490D02*
X73285Y-49490D01*
X73285Y-49490D02*
X73285Y-48890D01*
X73285Y-48890D02*
X73685Y-48890D01*
X74085Y-48890D02*
X74485Y-48890D01*
X74485Y-48890D02*
X74485Y-49490D01*
X74485Y-49490D02*
X74085Y-49490D01*
X84040Y-41340D02*
G75*
G03X84040Y-41340I-50J0D01*
G74*
G01*
X83990Y-41790D02*
X83990Y-41390D01*
X83990Y-41390D02*
X84590Y-41390D01*
X84590Y-41390D02*
X84590Y-41790D01*
X84590Y-42190D02*
X84590Y-42590D01*
X84590Y-42590D02*
X83990Y-42590D01*
X83990Y-42590D02*
X83990Y-42190D01*
X85470Y-41430D02*
G75*
G03X85470Y-41430I-50J0D01*
G74*
G01*
X85420Y-41880D02*
X85420Y-41480D01*
X85420Y-41480D02*
X86020Y-41480D01*
X86020Y-41480D02*
X86020Y-41880D01*
X86020Y-42280D02*
X86020Y-42680D01*
X86020Y-42680D02*
X85420Y-42680D01*
X85420Y-42680D02*
X85420Y-42280D01*
X86910Y-41440D02*
G75*
G03X86910Y-41440I-50J0D01*
G74*
G01*
X86860Y-41890D02*
X86860Y-41490D01*
X86860Y-41490D02*
X87460Y-41490D01*
X87460Y-41490D02*
X87460Y-41890D01*
X87460Y-42290D02*
X87460Y-42690D01*
X87460Y-42690D02*
X86860Y-42690D01*
X86860Y-42690D02*
X86860Y-42290D01*
X97770Y-56290D02*
G75*
G03X97770Y-56290I-50J0D01*
G74*
G01*
X97720Y-55840D02*
X97720Y-56240D01*
X97720Y-56240D02*
X97120Y-56240D01*
X97120Y-56240D02*
X97120Y-55840D01*
X97120Y-55440D02*
X97120Y-55040D01*
X97120Y-55040D02*
X97720Y-55040D01*
X97720Y-55040D02*
X97720Y-55440D01*
X95700Y-41490D02*
G75*
G03X95700Y-41490I-50J0D01*
G74*
G01*
X95200Y-41490D02*
X95600Y-41490D01*
X95600Y-41490D02*
X95600Y-42090D01*
X95600Y-42090D02*
X95200Y-42090D01*
X94800Y-42090D02*
X94400Y-42090D01*
X94400Y-42090D02*
X94400Y-41490D01*
X94400Y-41490D02*
X94800Y-41490D01*
X91800Y-41400D02*
G75*
G03X91800Y-41400I-50J0D01*
G74*
G01*
X91300Y-41400D02*
X91700Y-41400D01*
X91700Y-41400D02*
X91700Y-42000D01*
X91700Y-42000D02*
X91300Y-42000D01*
X90900Y-42000D02*
X90500Y-42000D01*
X90500Y-42000D02*
X90500Y-41400D01*
X90500Y-41400D02*
X90900Y-41400D01*
G54D10*
X79697Y-45687D02*
G75*
G03X79697Y-45687I-141J0D01*
G74*
G01*
X79319Y-44230D02*
X82154Y-44230D01*
X82154Y-44230D02*
X82154Y-46316D01*
X82154Y-46316D02*
X79319Y-46316D01*
X79319Y-46316D02*
X79319Y-44230D01*
X75931Y-43079D02*
X76128Y-42922D01*
X77900Y-43079D02*
X77663Y-42922D01*
X77703Y-47450D02*
X76128Y-47450D01*
X77703Y-47450D02*
X77900Y-47292D01*
X76128Y-47450D02*
X75931Y-47253D01*
X77900Y-47292D02*
X77900Y-43079D01*
X77663Y-42922D02*
X76128Y-42922D01*
X75931Y-43079D02*
X75931Y-47253D01*
X96700Y-53350D02*
X96700Y-47490D01*
X96700Y-47483D02*
X99455Y-47483D01*
X99455Y-53350D02*
X99455Y-47490D01*
X99455Y-53350D02*
X96700Y-53350D01*
X74400Y-54130D02*
X77400Y-54130D01*
X77400Y-54130D02*
X77400Y-53145D01*
X77400Y-53145D02*
X74400Y-53145D01*
X74400Y-53145D02*
X74400Y-54130D01*
G54D11*
X87370Y-50550D02*
X87370Y-50630D01*
X86620Y-51150D02*
X86620Y-49350D01*
X86620Y-49350D02*
X86870Y-49350D01*
X88120Y-49990D02*
X86620Y-49990D01*
X88120Y-49860D02*
X86620Y-49860D01*
X87870Y-51150D02*
X88120Y-51150D01*
X88120Y-51150D02*
X88120Y-49350D01*
X88120Y-49350D02*
X87870Y-49350D01*
X86870Y-51150D02*
X86620Y-51150D01*
X87370Y-50300D02*
X87183Y-50550D01*
X87183Y-50550D02*
X87370Y-50550D01*
X87370Y-50550D02*
X87557Y-50550D01*
X87557Y-50550D02*
X87370Y-50300D01*
X87370Y-50300D02*
X87245Y-50300D01*
X87245Y-50300D02*
X87183Y-50362D01*
X87370Y-50300D02*
X87495Y-50300D01*
X87495Y-50300D02*
X87557Y-50238D01*
X87370Y-50300D02*
X87370Y-49863D01*
X95840Y-46040D02*
X95920Y-46040D01*
X96440Y-46790D02*
X94640Y-46790D01*
X94640Y-46790D02*
X94640Y-46540D01*
X95280Y-45290D02*
X95280Y-46790D01*
X95150Y-45290D02*
X95150Y-46790D01*
X96440Y-45540D02*
X96440Y-45290D01*
X96440Y-45290D02*
X94640Y-45290D01*
X94640Y-45290D02*
X94640Y-45540D01*
X96440Y-46540D02*
X96440Y-46790D01*
X95590Y-46040D02*
X95840Y-46227D01*
X95840Y-46227D02*
X95840Y-46040D01*
X95840Y-46040D02*
X95840Y-45853D01*
X95840Y-45853D02*
X95590Y-46040D01*
X95590Y-46040D02*
X95590Y-46165D01*
X95590Y-46165D02*
X95652Y-46227D01*
X95590Y-46040D02*
X95590Y-45915D01*
X95590Y-45915D02*
X95528Y-45853D01*
X95590Y-46040D02*
X95153Y-46040D01*
X95160Y-43850D02*
X95080Y-43850D01*
X94560Y-43100D02*
X96360Y-43100D01*
X96360Y-43100D02*
X96360Y-43350D01*
X95720Y-44600D02*
X95720Y-43100D01*
X95850Y-44600D02*
X95850Y-43100D01*
X94560Y-44350D02*
X94560Y-44600D01*
X94560Y-44600D02*
X96360Y-44600D01*
X96360Y-44600D02*
X96360Y-44350D01*
X94560Y-43350D02*
X94560Y-43100D01*
X95410Y-43850D02*
X95160Y-43663D01*
X95160Y-43663D02*
X95160Y-43850D01*
X95160Y-43850D02*
X95160Y-44037D01*
X95160Y-44037D02*
X95410Y-43850D01*
X95410Y-43850D02*
X95410Y-43725D01*
X95410Y-43725D02*
X95348Y-43663D01*
X95410Y-43850D02*
X95410Y-43975D01*
X95410Y-43975D02*
X95472Y-44037D01*
X95410Y-43850D02*
X95847Y-43850D01*
X76185Y-50220D02*
X76185Y-50300D01*
X75435Y-50820D02*
X75435Y-49020D01*
X75435Y-49020D02*
X75685Y-49020D01*
X76935Y-49660D02*
X75435Y-49660D01*
X76935Y-49530D02*
X75435Y-49530D01*
X76685Y-50820D02*
X76935Y-50820D01*
X76935Y-50820D02*
X76935Y-49020D01*
X76935Y-49020D02*
X76685Y-49020D01*
X75685Y-50820D02*
X75435Y-50820D01*
X76185Y-49970D02*
X75998Y-50220D01*
X75998Y-50220D02*
X76185Y-50220D01*
X76185Y-50220D02*
X76372Y-50220D01*
X76372Y-50220D02*
X76185Y-49970D01*
X76185Y-49970D02*
X76060Y-49970D01*
X76060Y-49970D02*
X75998Y-50032D01*
X76185Y-49970D02*
X76310Y-49970D01*
X76310Y-49970D02*
X76372Y-49908D01*
X76185Y-49970D02*
X76185Y-49533D01*
X93100Y-53260D02*
X93020Y-53260D01*
X92500Y-52510D02*
X94300Y-52510D01*
X94300Y-52510D02*
X94300Y-52760D01*
X93660Y-54010D02*
X93660Y-52510D01*
X93790Y-54010D02*
X93790Y-52510D01*
X92500Y-53760D02*
X92500Y-54010D01*
X92500Y-54010D02*
X94300Y-54010D01*
X94300Y-54010D02*
X94300Y-53760D01*
X92500Y-52760D02*
X92500Y-52510D01*
X93350Y-53260D02*
X93100Y-53073D01*
X93100Y-53073D02*
X93100Y-53260D01*
X93100Y-53260D02*
X93100Y-53447D01*
X93100Y-53447D02*
X93350Y-53260D01*
X93350Y-53260D02*
X93350Y-53135D01*
X93350Y-53135D02*
X93288Y-53073D01*
X93350Y-53260D02*
X93350Y-53385D01*
X93350Y-53385D02*
X93412Y-53447D01*
X93350Y-53260D02*
X93787Y-53260D01*
X89600Y-50750D02*
X91160Y-50750D01*
X91160Y-50750D02*
X91160Y-47350D01*
X91160Y-47350D02*
X89600Y-47350D01*
X89600Y-47350D02*
X89600Y-50750D01*
X89600Y-50050D02*
X89170Y-50050D01*
X89600Y-49550D02*
X89170Y-49550D01*
X89600Y-49050D02*
X89170Y-49050D01*
X89600Y-50550D02*
X89170Y-50550D01*
X89170Y-48550D02*
X89600Y-48550D01*
X89170Y-48050D02*
X89600Y-48050D01*
X89170Y-47550D02*
X89600Y-47550D01*
X91160Y-47550D02*
X91590Y-47550D01*
X91160Y-48050D02*
X91590Y-48050D01*
X91160Y-50550D02*
X91590Y-50550D01*
X91590Y-50050D02*
X91160Y-50050D01*
X91590Y-48550D02*
X91160Y-48550D01*
X91590Y-49050D02*
X91160Y-49050D01*
X91590Y-49550D02*
X91160Y-49550D01*
X91056Y-50460D02*
G75*
G03X91056Y-50460I-186J0D01*
G74*
G01*
X88500Y-53720D02*
X89750Y-53720D01*
X89750Y-53720D02*
X89750Y-53020D01*
X89750Y-53020D02*
X88500Y-53020D01*
X88500Y-55520D02*
X89750Y-55520D01*
X89750Y-55520D02*
X89750Y-54820D01*
X89750Y-54820D02*
X88500Y-54820D01*
X86100Y-52920D02*
X88500Y-52920D01*
X88500Y-52920D02*
X88500Y-55620D01*
X88500Y-55620D02*
X85400Y-55620D01*
X85350Y-55620D02*
X85350Y-52920D01*
X85400Y-52920D02*
X86100Y-52920D01*
X82110Y-49252D02*
X82095Y-49267D01*
X82052Y-49281D01*
X82024Y-49281D01*
X81981Y-49267D01*
X81952Y-49238D01*
X81938Y-49210D01*
X81924Y-49152D01*
X81924Y-49110D01*
X81938Y-49052D01*
X81952Y-49024D01*
X81981Y-48995D01*
X82024Y-48981D01*
X82052Y-48981D01*
X82095Y-48995D01*
X82110Y-49010D01*
X82395Y-49281D02*
X82224Y-49281D01*
X82310Y-49281D02*
X82310Y-48981D01*
X82281Y-49024D01*
X82252Y-49052D01*
X82224Y-49067D01*
G54D13*
X92199Y-48306D02*
X92105Y-48372D01*
X92199Y-48419D02*
X92002Y-48419D01*
X92002Y-48344D01*
X92012Y-48325D01*
X92021Y-48316D01*
X92040Y-48306D01*
X92068Y-48306D01*
X92087Y-48316D01*
X92096Y-48325D01*
X92105Y-48344D01*
X92105Y-48419D01*
X92199Y-48119D02*
X92199Y-48231D01*
X92199Y-48175D02*
X92002Y-48175D01*
X92030Y-48194D01*
X92049Y-48212D01*
X92059Y-48231D01*
X92199Y-48025D02*
X92199Y-47987D01*
X92190Y-47968D01*
X92180Y-47959D01*
X92152Y-47940D01*
X92115Y-47931D01*
X92040Y-47931D01*
X92021Y-47940D01*
X92012Y-47950D01*
X92002Y-47968D01*
X92002Y-48006D01*
X92012Y-48025D01*
X92021Y-48034D01*
X92040Y-48043D01*
X92087Y-48043D01*
X92105Y-48034D01*
X92115Y-48025D01*
X92124Y-48006D01*
X92124Y-47968D01*
X92115Y-47950D01*
X92105Y-47940D01*
X92087Y-47931D01*
X92139Y-47462D02*
X92139Y-47574D01*
X92139Y-47518D02*
X91942Y-47518D01*
X91970Y-47537D01*
X91989Y-47556D01*
X91999Y-47574D01*
X92139Y-47377D02*
X91942Y-47377D01*
X92139Y-47265D02*
X92027Y-47349D01*
X91942Y-47265D02*
X92055Y-47377D01*
X78777Y-52130D02*
X78767Y-52140D01*
X78739Y-52149D01*
X78720Y-52149D01*
X78692Y-52140D01*
X78673Y-52121D01*
X78664Y-52102D01*
X78655Y-52065D01*
X78655Y-52037D01*
X78664Y-51999D01*
X78673Y-51980D01*
X78692Y-51962D01*
X78720Y-51952D01*
X78739Y-51952D01*
X78767Y-51962D01*
X78777Y-51971D01*
X78889Y-52037D02*
X78870Y-52027D01*
X78861Y-52018D01*
X78852Y-51999D01*
X78852Y-51990D01*
X78861Y-51971D01*
X78870Y-51962D01*
X78889Y-51952D01*
X78927Y-51952D01*
X78946Y-51962D01*
X78955Y-51971D01*
X78964Y-51990D01*
X78964Y-51999D01*
X78955Y-52018D01*
X78946Y-52027D01*
X78927Y-52037D01*
X78889Y-52037D01*
X78870Y-52046D01*
X78861Y-52055D01*
X78852Y-52074D01*
X78852Y-52112D01*
X78861Y-52130D01*
X78870Y-52140D01*
X78889Y-52149D01*
X78927Y-52149D01*
X78946Y-52140D01*
X78955Y-52130D01*
X78964Y-52112D01*
X78964Y-52074D01*
X78955Y-52055D01*
X78946Y-52046D01*
X78927Y-52037D01*
X79453Y-52159D02*
X79340Y-52159D01*
X79397Y-52159D02*
X79397Y-51962D01*
X79378Y-51990D01*
X79359Y-52009D01*
X79340Y-52019D01*
X79575Y-51962D02*
X79594Y-51962D01*
X79612Y-51972D01*
X79622Y-51981D01*
X79631Y-52000D01*
X79640Y-52037D01*
X79640Y-52084D01*
X79631Y-52122D01*
X79622Y-52140D01*
X79612Y-52150D01*
X79594Y-52159D01*
X79575Y-52159D01*
X79556Y-52150D01*
X79547Y-52140D01*
X79537Y-52122D01*
X79528Y-52084D01*
X79528Y-52037D01*
X79537Y-52000D01*
X79547Y-51981D01*
X79556Y-51972D01*
X79575Y-51962D01*
X79809Y-52028D02*
X79809Y-52159D01*
X79725Y-52028D02*
X79725Y-52131D01*
X79734Y-52150D01*
X79753Y-52159D01*
X79781Y-52159D01*
X79800Y-52150D01*
X79809Y-52140D01*
X77610Y-48922D02*
X77620Y-48932D01*
X77629Y-48960D01*
X77629Y-48979D01*
X77620Y-49007D01*
X77601Y-49026D01*
X77582Y-49035D01*
X77545Y-49044D01*
X77517Y-49044D01*
X77479Y-49035D01*
X77460Y-49026D01*
X77442Y-49007D01*
X77432Y-48979D01*
X77432Y-48960D01*
X77442Y-48932D01*
X77451Y-48922D01*
X77432Y-48857D02*
X77432Y-48725D01*
X77629Y-48810D01*
X77569Y-48272D02*
X77569Y-48385D01*
X77569Y-48329D02*
X77372Y-48329D01*
X77400Y-48347D01*
X77419Y-48366D01*
X77429Y-48385D01*
X77438Y-48103D02*
X77569Y-48103D01*
X77438Y-48188D02*
X77541Y-48188D01*
X77560Y-48179D01*
X77569Y-48160D01*
X77569Y-48132D01*
X77560Y-48113D01*
X77550Y-48103D01*
X79307Y-49179D02*
X79213Y-49179D01*
X79213Y-48982D01*
X79466Y-48982D02*
X79372Y-48982D01*
X79363Y-49076D01*
X79372Y-49067D01*
X79391Y-49057D01*
X79438Y-49057D01*
X79457Y-49067D01*
X79466Y-49076D01*
X79476Y-49095D01*
X79476Y-49142D01*
X79466Y-49160D01*
X79457Y-49170D01*
X79438Y-49179D01*
X79391Y-49179D01*
X79372Y-49170D01*
X79363Y-49160D01*
X79873Y-49189D02*
X79760Y-49189D01*
X79816Y-49189D02*
X79816Y-48992D01*
X79798Y-49020D01*
X79779Y-49039D01*
X79760Y-49049D01*
X79957Y-48992D02*
X79957Y-49152D01*
X79966Y-49170D01*
X79976Y-49180D01*
X79995Y-49189D01*
X80032Y-49189D01*
X80051Y-49180D01*
X80060Y-49170D01*
X80070Y-49152D01*
X80070Y-48992D01*
X74187Y-47290D02*
X74177Y-47300D01*
X74149Y-47309D01*
X74130Y-47309D01*
X74102Y-47300D01*
X74083Y-47281D01*
X74074Y-47262D01*
X74065Y-47225D01*
X74065Y-47197D01*
X74074Y-47159D01*
X74083Y-47140D01*
X74102Y-47122D01*
X74130Y-47112D01*
X74149Y-47112D01*
X74177Y-47122D01*
X74187Y-47131D01*
X74365Y-47112D02*
X74271Y-47112D01*
X74262Y-47206D01*
X74271Y-47197D01*
X74290Y-47187D01*
X74337Y-47187D01*
X74356Y-47197D01*
X74365Y-47206D01*
X74374Y-47225D01*
X74374Y-47272D01*
X74365Y-47290D01*
X74356Y-47300D01*
X74337Y-47309D01*
X74290Y-47309D01*
X74271Y-47300D01*
X74262Y-47290D01*
X74693Y-47309D02*
X74580Y-47309D01*
X74637Y-47309D02*
X74637Y-47112D01*
X74618Y-47140D01*
X74599Y-47159D01*
X74580Y-47169D01*
X74805Y-47197D02*
X74787Y-47187D01*
X74777Y-47178D01*
X74768Y-47159D01*
X74768Y-47150D01*
X74777Y-47131D01*
X74787Y-47122D01*
X74805Y-47112D01*
X74843Y-47112D01*
X74862Y-47122D01*
X74871Y-47131D01*
X74880Y-47150D01*
X74880Y-47159D01*
X74871Y-47178D01*
X74862Y-47187D01*
X74843Y-47197D01*
X74805Y-47197D01*
X74787Y-47206D01*
X74777Y-47215D01*
X74768Y-47234D01*
X74768Y-47272D01*
X74777Y-47290D01*
X74787Y-47300D01*
X74805Y-47309D01*
X74843Y-47309D01*
X74862Y-47300D01*
X74871Y-47290D01*
X74880Y-47272D01*
X74880Y-47234D01*
X74871Y-47215D01*
X74862Y-47206D01*
X74843Y-47197D01*
X74965Y-47178D02*
X74965Y-47375D01*
X74965Y-47187D02*
X74984Y-47178D01*
X75021Y-47178D01*
X75040Y-47187D01*
X75049Y-47197D01*
X75059Y-47215D01*
X75059Y-47272D01*
X75049Y-47290D01*
X75040Y-47300D01*
X75021Y-47309D01*
X74984Y-47309D01*
X74965Y-47300D01*
X74447Y-43050D02*
X74437Y-43060D01*
X74409Y-43069D01*
X74390Y-43069D01*
X74362Y-43060D01*
X74343Y-43041D01*
X74334Y-43022D01*
X74325Y-42985D01*
X74325Y-42957D01*
X74334Y-42919D01*
X74343Y-42900D01*
X74362Y-42882D01*
X74390Y-42872D01*
X74409Y-42872D01*
X74437Y-42882D01*
X74447Y-42891D01*
X74616Y-42938D02*
X74616Y-43069D01*
X74569Y-42863D02*
X74522Y-43004D01*
X74644Y-43004D01*
X74913Y-43059D02*
X74800Y-43059D01*
X74857Y-43059D02*
X74857Y-42862D01*
X74838Y-42890D01*
X74819Y-42909D01*
X74800Y-42919D01*
X75025Y-42947D02*
X75007Y-42937D01*
X74997Y-42928D01*
X74988Y-42909D01*
X74988Y-42900D01*
X74997Y-42881D01*
X75007Y-42872D01*
X75025Y-42862D01*
X75063Y-42862D01*
X75082Y-42872D01*
X75091Y-42881D01*
X75100Y-42900D01*
X75100Y-42909D01*
X75091Y-42928D01*
X75082Y-42937D01*
X75063Y-42947D01*
X75025Y-42947D01*
X75007Y-42956D01*
X74997Y-42965D01*
X74988Y-42984D01*
X74988Y-43022D01*
X74997Y-43040D01*
X75007Y-43050D01*
X75025Y-43059D01*
X75063Y-43059D01*
X75082Y-43050D01*
X75091Y-43040D01*
X75100Y-43022D01*
X75100Y-42984D01*
X75091Y-42965D01*
X75082Y-42956D01*
X75063Y-42947D01*
X75185Y-42928D02*
X75185Y-43125D01*
X75185Y-42937D02*
X75204Y-42928D01*
X75241Y-42928D01*
X75260Y-42937D01*
X75269Y-42947D01*
X75279Y-42965D01*
X75279Y-43022D01*
X75269Y-43040D01*
X75260Y-43050D01*
X75241Y-43059D01*
X75204Y-43059D01*
X75185Y-43050D01*
X78717Y-51210D02*
X78707Y-51220D01*
X78679Y-51229D01*
X78660Y-51229D01*
X78632Y-51220D01*
X78613Y-51201D01*
X78604Y-51182D01*
X78595Y-51145D01*
X78595Y-51117D01*
X78604Y-51079D01*
X78613Y-51060D01*
X78632Y-51042D01*
X78660Y-51032D01*
X78679Y-51032D01*
X78707Y-51042D01*
X78717Y-51051D01*
X78886Y-51032D02*
X78848Y-51032D01*
X78829Y-51042D01*
X78820Y-51051D01*
X78801Y-51079D01*
X78792Y-51117D01*
X78792Y-51192D01*
X78801Y-51210D01*
X78810Y-51220D01*
X78829Y-51229D01*
X78867Y-51229D01*
X78886Y-51220D01*
X78895Y-51210D01*
X78904Y-51192D01*
X78904Y-51145D01*
X78895Y-51126D01*
X78886Y-51117D01*
X78867Y-51107D01*
X78829Y-51107D01*
X78810Y-51117D01*
X78801Y-51126D01*
X78792Y-51145D01*
X79257Y-51170D02*
X79266Y-51180D01*
X79257Y-51189D01*
X79247Y-51180D01*
X79257Y-51170D01*
X79257Y-51189D01*
X79454Y-51189D02*
X79341Y-51189D01*
X79397Y-51189D02*
X79397Y-50992D01*
X79379Y-51020D01*
X79360Y-51039D01*
X79341Y-51049D01*
X79622Y-51058D02*
X79622Y-51189D01*
X79538Y-51058D02*
X79538Y-51161D01*
X79547Y-51180D01*
X79566Y-51189D01*
X79594Y-51189D01*
X79613Y-51180D01*
X79622Y-51170D01*
X89279Y-44682D02*
X89185Y-44748D01*
X89279Y-44795D02*
X89082Y-44795D01*
X89082Y-44720D01*
X89092Y-44701D01*
X89101Y-44692D01*
X89120Y-44682D01*
X89148Y-44682D01*
X89167Y-44692D01*
X89176Y-44701D01*
X89185Y-44720D01*
X89185Y-44795D01*
X89101Y-44607D02*
X89092Y-44598D01*
X89082Y-44579D01*
X89082Y-44532D01*
X89092Y-44513D01*
X89101Y-44504D01*
X89120Y-44495D01*
X89139Y-44495D01*
X89167Y-44504D01*
X89279Y-44617D01*
X89279Y-44495D01*
X89249Y-44142D02*
X89249Y-44254D01*
X89249Y-44198D02*
X89052Y-44198D01*
X89080Y-44217D01*
X89099Y-44236D01*
X89109Y-44254D01*
X89249Y-44057D02*
X89052Y-44057D01*
X89249Y-43945D02*
X89137Y-44029D01*
X89052Y-43945D02*
X89165Y-44057D01*
X82387Y-46430D02*
X82377Y-46440D01*
X82349Y-46449D01*
X82330Y-46449D01*
X82302Y-46440D01*
X82283Y-46421D01*
X82274Y-46402D01*
X82265Y-46365D01*
X82265Y-46337D01*
X82274Y-46299D01*
X82283Y-46280D01*
X82302Y-46262D01*
X82330Y-46252D01*
X82349Y-46252D01*
X82377Y-46262D01*
X82387Y-46271D01*
X82462Y-46271D02*
X82471Y-46262D01*
X82490Y-46252D01*
X82537Y-46252D01*
X82556Y-46262D01*
X82565Y-46271D01*
X82574Y-46290D01*
X82574Y-46309D01*
X82565Y-46337D01*
X82452Y-46449D01*
X82574Y-46449D01*
X82867Y-46420D02*
X82876Y-46430D01*
X82867Y-46439D01*
X82857Y-46430D01*
X82867Y-46420D01*
X82867Y-46439D01*
X83064Y-46439D02*
X82951Y-46439D01*
X83007Y-46439D02*
X83007Y-46242D01*
X82989Y-46270D01*
X82970Y-46289D01*
X82951Y-46299D01*
X83232Y-46308D02*
X83232Y-46439D01*
X83148Y-46308D02*
X83148Y-46411D01*
X83157Y-46430D01*
X83176Y-46439D01*
X83204Y-46439D01*
X83223Y-46430D01*
X83232Y-46420D01*
X94519Y-50246D02*
X94425Y-50312D01*
X94519Y-50359D02*
X94322Y-50359D01*
X94322Y-50284D01*
X94332Y-50265D01*
X94341Y-50256D01*
X94360Y-50246D01*
X94388Y-50246D01*
X94407Y-50256D01*
X94416Y-50265D01*
X94425Y-50284D01*
X94425Y-50359D01*
X94519Y-50059D02*
X94519Y-50171D01*
X94519Y-50115D02*
X94322Y-50115D01*
X94350Y-50134D01*
X94369Y-50152D01*
X94379Y-50171D01*
X94322Y-49993D02*
X94322Y-49862D01*
X94519Y-49946D01*
X94509Y-49472D02*
X94509Y-49584D01*
X94509Y-49528D02*
X94312Y-49528D01*
X94340Y-49547D01*
X94359Y-49566D01*
X94369Y-49584D01*
X94509Y-49387D02*
X94312Y-49387D01*
X94509Y-49275D02*
X94397Y-49359D01*
X94312Y-49275D02*
X94425Y-49387D01*
X92719Y-50606D02*
X92625Y-50672D01*
X92719Y-50719D02*
X92522Y-50719D01*
X92522Y-50644D01*
X92532Y-50625D01*
X92541Y-50616D01*
X92560Y-50606D01*
X92588Y-50606D01*
X92607Y-50616D01*
X92616Y-50625D01*
X92625Y-50644D01*
X92625Y-50719D01*
X92719Y-50419D02*
X92719Y-50531D01*
X92719Y-50475D02*
X92522Y-50475D01*
X92550Y-50494D01*
X92569Y-50512D01*
X92579Y-50531D01*
X92607Y-50306D02*
X92597Y-50325D01*
X92588Y-50334D01*
X92569Y-50343D01*
X92560Y-50343D01*
X92541Y-50334D01*
X92532Y-50325D01*
X92522Y-50306D01*
X92522Y-50268D01*
X92532Y-50250D01*
X92541Y-50240D01*
X92560Y-50231D01*
X92569Y-50231D01*
X92588Y-50240D01*
X92597Y-50250D01*
X92607Y-50268D01*
X92607Y-50306D01*
X92616Y-50325D01*
X92625Y-50334D01*
X92644Y-50343D01*
X92682Y-50343D01*
X92700Y-50334D01*
X92710Y-50325D01*
X92719Y-50306D01*
X92719Y-50268D01*
X92710Y-50250D01*
X92700Y-50240D01*
X92682Y-50231D01*
X92644Y-50231D01*
X92625Y-50240D01*
X92616Y-50250D01*
X92607Y-50268D01*
X93099Y-50522D02*
X93099Y-50634D01*
X93099Y-50578D02*
X92902Y-50578D01*
X92930Y-50597D01*
X92949Y-50616D01*
X92959Y-50634D01*
X93099Y-50437D02*
X92902Y-50437D01*
X93099Y-50325D02*
X92987Y-50409D01*
X92902Y-50325D02*
X93015Y-50437D01*
X86160Y-50392D02*
X86170Y-50402D01*
X86179Y-50430D01*
X86179Y-50449D01*
X86170Y-50477D01*
X86151Y-50496D01*
X86132Y-50505D01*
X86095Y-50514D01*
X86067Y-50514D01*
X86029Y-50505D01*
X86010Y-50496D01*
X85992Y-50477D01*
X85982Y-50449D01*
X85982Y-50430D01*
X85992Y-50402D01*
X86001Y-50392D01*
X85982Y-50327D02*
X85982Y-50205D01*
X86057Y-50270D01*
X86057Y-50242D01*
X86067Y-50223D01*
X86076Y-50214D01*
X86095Y-50205D01*
X86142Y-50205D01*
X86160Y-50214D01*
X86170Y-50223D01*
X86179Y-50242D01*
X86179Y-50299D01*
X86170Y-50317D01*
X86160Y-50327D01*
X86209Y-49852D02*
X86209Y-49965D01*
X86209Y-49909D02*
X86012Y-49909D01*
X86040Y-49927D01*
X86059Y-49946D01*
X86069Y-49965D01*
X86078Y-49683D02*
X86209Y-49683D01*
X86078Y-49768D02*
X86181Y-49768D01*
X86200Y-49759D01*
X86209Y-49740D01*
X86209Y-49712D01*
X86200Y-49693D01*
X86190Y-49683D01*
X95029Y-49076D02*
X94935Y-49142D01*
X95029Y-49189D02*
X94832Y-49189D01*
X94832Y-49114D01*
X94842Y-49095D01*
X94851Y-49086D01*
X94870Y-49076D01*
X94898Y-49076D01*
X94917Y-49086D01*
X94926Y-49095D01*
X94935Y-49114D01*
X94935Y-49189D01*
X95029Y-48889D02*
X95029Y-49001D01*
X95029Y-48945D02*
X94832Y-48945D01*
X94860Y-48964D01*
X94879Y-48982D01*
X94889Y-49001D01*
X94832Y-48720D02*
X94832Y-48757D01*
X94842Y-48776D01*
X94851Y-48785D01*
X94879Y-48804D01*
X94917Y-48813D01*
X94992Y-48813D01*
X95010Y-48804D01*
X95020Y-48795D01*
X95029Y-48776D01*
X95029Y-48738D01*
X95020Y-48720D01*
X95010Y-48710D01*
X94992Y-48701D01*
X94945Y-48701D01*
X94926Y-48710D01*
X94917Y-48720D01*
X94907Y-48738D01*
X94907Y-48776D01*
X94917Y-48795D01*
X94926Y-48804D01*
X94945Y-48813D01*
X95389Y-49086D02*
X95389Y-49198D01*
X95389Y-49142D02*
X95192Y-49142D01*
X95220Y-49161D01*
X95239Y-49179D01*
X95249Y-49198D01*
X95192Y-48964D02*
X95192Y-48945D01*
X95202Y-48926D01*
X95211Y-48917D01*
X95230Y-48907D01*
X95267Y-48898D01*
X95314Y-48898D01*
X95352Y-48907D01*
X95370Y-48917D01*
X95380Y-48926D01*
X95389Y-48945D01*
X95389Y-48964D01*
X95380Y-48982D01*
X95370Y-48992D01*
X95352Y-49001D01*
X95314Y-49010D01*
X95267Y-49010D01*
X95230Y-49001D01*
X95211Y-48992D01*
X95202Y-48982D01*
X95192Y-48964D01*
X95389Y-48813D02*
X95192Y-48813D01*
X95389Y-48701D02*
X95277Y-48785D01*
X95192Y-48701D02*
X95305Y-48813D01*
X93260Y-48306D02*
X93270Y-48316D01*
X93279Y-48344D01*
X93279Y-48362D01*
X93270Y-48391D01*
X93251Y-48409D01*
X93232Y-48419D01*
X93195Y-48428D01*
X93167Y-48428D01*
X93129Y-48419D01*
X93110Y-48409D01*
X93092Y-48391D01*
X93082Y-48362D01*
X93082Y-48344D01*
X93092Y-48316D01*
X93101Y-48306D01*
X93279Y-48119D02*
X93279Y-48231D01*
X93279Y-48175D02*
X93082Y-48175D01*
X93110Y-48194D01*
X93129Y-48212D01*
X93139Y-48231D01*
X93279Y-47931D02*
X93279Y-48043D01*
X93279Y-47987D02*
X93082Y-47987D01*
X93110Y-48006D01*
X93129Y-48025D01*
X93139Y-48043D01*
X93319Y-47370D02*
X93319Y-47483D01*
X93319Y-47426D02*
X93122Y-47426D01*
X93150Y-47445D01*
X93169Y-47464D01*
X93179Y-47483D01*
X93122Y-47248D02*
X93122Y-47229D01*
X93132Y-47210D01*
X93141Y-47201D01*
X93160Y-47192D01*
X93197Y-47182D01*
X93244Y-47182D01*
X93282Y-47192D01*
X93300Y-47201D01*
X93310Y-47210D01*
X93319Y-47229D01*
X93319Y-47248D01*
X93310Y-47267D01*
X93300Y-47276D01*
X93282Y-47286D01*
X93244Y-47295D01*
X93197Y-47295D01*
X93160Y-47286D01*
X93141Y-47276D01*
X93132Y-47267D01*
X93122Y-47248D01*
X93122Y-47060D02*
X93122Y-47042D01*
X93132Y-47023D01*
X93141Y-47013D01*
X93160Y-47004D01*
X93197Y-46995D01*
X93244Y-46995D01*
X93282Y-47004D01*
X93300Y-47013D01*
X93310Y-47023D01*
X93319Y-47042D01*
X93319Y-47060D01*
X93310Y-47079D01*
X93300Y-47089D01*
X93282Y-47098D01*
X93244Y-47107D01*
X93197Y-47107D01*
X93160Y-47098D01*
X93141Y-47089D01*
X93132Y-47079D01*
X93122Y-47060D01*
X93188Y-46910D02*
X93319Y-46910D01*
X93207Y-46910D02*
X93197Y-46901D01*
X93188Y-46882D01*
X93188Y-46854D01*
X93197Y-46835D01*
X93216Y-46826D01*
X93319Y-46826D01*
X96840Y-45326D02*
X96850Y-45336D01*
X96859Y-45364D01*
X96859Y-45382D01*
X96850Y-45411D01*
X96831Y-45429D01*
X96812Y-45439D01*
X96775Y-45448D01*
X96747Y-45448D01*
X96709Y-45439D01*
X96690Y-45429D01*
X96672Y-45411D01*
X96662Y-45382D01*
X96662Y-45364D01*
X96672Y-45336D01*
X96681Y-45326D01*
X96859Y-45139D02*
X96859Y-45251D01*
X96859Y-45195D02*
X96662Y-45195D01*
X96690Y-45214D01*
X96709Y-45232D01*
X96719Y-45251D01*
X96662Y-45017D02*
X96662Y-44998D01*
X96672Y-44979D01*
X96681Y-44970D01*
X96700Y-44960D01*
X96737Y-44951D01*
X96784Y-44951D01*
X96822Y-44960D01*
X96840Y-44970D01*
X96850Y-44979D01*
X96859Y-44998D01*
X96859Y-45017D01*
X96850Y-45035D01*
X96840Y-45045D01*
X96822Y-45054D01*
X96784Y-45063D01*
X96737Y-45063D01*
X96700Y-45054D01*
X96681Y-45045D01*
X96672Y-45035D01*
X96662Y-45017D01*
X96879Y-44650D02*
X96879Y-44763D01*
X96879Y-44706D02*
X96682Y-44706D01*
X96710Y-44725D01*
X96729Y-44744D01*
X96739Y-44763D01*
X96682Y-44528D02*
X96682Y-44509D01*
X96692Y-44490D01*
X96701Y-44481D01*
X96720Y-44472D01*
X96757Y-44462D01*
X96804Y-44462D01*
X96842Y-44472D01*
X96860Y-44481D01*
X96870Y-44490D01*
X96879Y-44509D01*
X96879Y-44528D01*
X96870Y-44547D01*
X96860Y-44556D01*
X96842Y-44566D01*
X96804Y-44575D01*
X96757Y-44575D01*
X96720Y-44566D01*
X96701Y-44556D01*
X96692Y-44547D01*
X96682Y-44528D01*
X96682Y-44340D02*
X96682Y-44322D01*
X96692Y-44303D01*
X96701Y-44293D01*
X96720Y-44284D01*
X96757Y-44275D01*
X96804Y-44275D01*
X96842Y-44284D01*
X96860Y-44293D01*
X96870Y-44303D01*
X96879Y-44322D01*
X96879Y-44340D01*
X96870Y-44359D01*
X96860Y-44369D01*
X96842Y-44378D01*
X96804Y-44387D01*
X96757Y-44387D01*
X96720Y-44378D01*
X96701Y-44369D01*
X96692Y-44359D01*
X96682Y-44340D01*
X96748Y-44190D02*
X96879Y-44190D01*
X96767Y-44190D02*
X96757Y-44181D01*
X96748Y-44162D01*
X96748Y-44134D01*
X96757Y-44115D01*
X96776Y-44106D01*
X96879Y-44106D01*
X96769Y-47196D02*
X96675Y-47262D01*
X96769Y-47309D02*
X96572Y-47309D01*
X96572Y-47234D01*
X96582Y-47215D01*
X96591Y-47206D01*
X96610Y-47196D01*
X96638Y-47196D01*
X96657Y-47206D01*
X96666Y-47215D01*
X96675Y-47234D01*
X96675Y-47309D01*
X96769Y-47009D02*
X96769Y-47121D01*
X96769Y-47065D02*
X96572Y-47065D01*
X96600Y-47084D01*
X96619Y-47102D01*
X96629Y-47121D01*
X96572Y-46830D02*
X96572Y-46924D01*
X96666Y-46933D01*
X96657Y-46924D01*
X96647Y-46905D01*
X96647Y-46858D01*
X96657Y-46840D01*
X96666Y-46830D01*
X96685Y-46821D01*
X96732Y-46821D01*
X96750Y-46830D01*
X96760Y-46840D01*
X96769Y-46858D01*
X96769Y-46905D01*
X96760Y-46924D01*
X96750Y-46933D01*
X96941Y-47318D02*
X96932Y-47309D01*
X96922Y-47290D01*
X96922Y-47243D01*
X96932Y-47224D01*
X96941Y-47215D01*
X96960Y-47206D01*
X96979Y-47206D01*
X97007Y-47215D01*
X97119Y-47327D01*
X97119Y-47206D01*
X96941Y-47130D02*
X96932Y-47121D01*
X96922Y-47102D01*
X96922Y-47055D01*
X96932Y-47037D01*
X96941Y-47027D01*
X96960Y-47018D01*
X96979Y-47018D01*
X97007Y-47027D01*
X97119Y-47140D01*
X97119Y-47018D01*
X97119Y-46933D02*
X96922Y-46933D01*
X97119Y-46821D02*
X97007Y-46905D01*
X96922Y-46821D02*
X97035Y-46933D01*
X90130Y-45752D02*
X90140Y-45762D01*
X90149Y-45790D01*
X90149Y-45809D01*
X90140Y-45837D01*
X90121Y-45856D01*
X90102Y-45865D01*
X90065Y-45874D01*
X90037Y-45874D01*
X89999Y-45865D01*
X89980Y-45856D01*
X89962Y-45837D01*
X89952Y-45809D01*
X89952Y-45790D01*
X89962Y-45762D01*
X89971Y-45752D01*
X90149Y-45659D02*
X90149Y-45621D01*
X90140Y-45602D01*
X90130Y-45593D01*
X90102Y-45574D01*
X90065Y-45565D01*
X89990Y-45565D01*
X89971Y-45574D01*
X89962Y-45583D01*
X89952Y-45602D01*
X89952Y-45640D01*
X89962Y-45659D01*
X89971Y-45668D01*
X89990Y-45677D01*
X90037Y-45677D01*
X90055Y-45668D01*
X90065Y-45659D01*
X90074Y-45640D01*
X90074Y-45602D01*
X90065Y-45583D01*
X90055Y-45574D01*
X90037Y-45565D01*
X90109Y-45280D02*
X90109Y-45393D01*
X90109Y-45336D02*
X89912Y-45336D01*
X89940Y-45355D01*
X89959Y-45374D01*
X89969Y-45393D01*
X89912Y-45158D02*
X89912Y-45139D01*
X89922Y-45120D01*
X89931Y-45111D01*
X89950Y-45102D01*
X89987Y-45092D01*
X90034Y-45092D01*
X90072Y-45102D01*
X90090Y-45111D01*
X90100Y-45120D01*
X90109Y-45139D01*
X90109Y-45158D01*
X90100Y-45177D01*
X90090Y-45186D01*
X90072Y-45196D01*
X90034Y-45205D01*
X89987Y-45205D01*
X89950Y-45196D01*
X89931Y-45186D01*
X89922Y-45177D01*
X89912Y-45158D01*
X89912Y-44970D02*
X89912Y-44952D01*
X89922Y-44933D01*
X89931Y-44923D01*
X89950Y-44914D01*
X89987Y-44905D01*
X90034Y-44905D01*
X90072Y-44914D01*
X90090Y-44923D01*
X90100Y-44933D01*
X90109Y-44952D01*
X90109Y-44970D01*
X90100Y-44989D01*
X90090Y-44999D01*
X90072Y-45008D01*
X90034Y-45017D01*
X89987Y-45017D01*
X89950Y-45008D01*
X89931Y-44999D01*
X89922Y-44989D01*
X89912Y-44970D01*
X89978Y-44820D02*
X90109Y-44820D01*
X89997Y-44820D02*
X89987Y-44811D01*
X89978Y-44792D01*
X89978Y-44764D01*
X89987Y-44745D01*
X90006Y-44736D01*
X90109Y-44736D01*
X91929Y-46046D02*
X91835Y-46112D01*
X91929Y-46159D02*
X91732Y-46159D01*
X91732Y-46084D01*
X91742Y-46065D01*
X91751Y-46056D01*
X91770Y-46046D01*
X91798Y-46046D01*
X91817Y-46056D01*
X91826Y-46065D01*
X91835Y-46084D01*
X91835Y-46159D01*
X91929Y-45859D02*
X91929Y-45971D01*
X91929Y-45915D02*
X91732Y-45915D01*
X91760Y-45934D01*
X91779Y-45952D01*
X91789Y-45971D01*
X91798Y-45690D02*
X91929Y-45690D01*
X91723Y-45737D02*
X91864Y-45783D01*
X91864Y-45662D01*
X91879Y-45392D02*
X91879Y-45504D01*
X91879Y-45448D02*
X91682Y-45448D01*
X91710Y-45467D01*
X91729Y-45486D01*
X91739Y-45504D01*
X91879Y-45307D02*
X91682Y-45307D01*
X91879Y-45195D02*
X91767Y-45279D01*
X91682Y-45195D02*
X91795Y-45307D01*
X86363Y-47409D02*
X86297Y-47315D01*
X86250Y-47409D02*
X86250Y-47212D01*
X86325Y-47212D01*
X86344Y-47222D01*
X86353Y-47231D01*
X86363Y-47250D01*
X86363Y-47278D01*
X86353Y-47297D01*
X86344Y-47306D01*
X86325Y-47315D01*
X86250Y-47315D01*
X86550Y-47409D02*
X86438Y-47409D01*
X86494Y-47409D02*
X86494Y-47212D01*
X86475Y-47240D01*
X86457Y-47259D01*
X86438Y-47269D01*
X86626Y-47231D02*
X86635Y-47222D01*
X86654Y-47212D01*
X86701Y-47212D01*
X86719Y-47222D01*
X86729Y-47231D01*
X86738Y-47250D01*
X86738Y-47269D01*
X86729Y-47297D01*
X86616Y-47409D01*
X86738Y-47409D01*
X87005Y-47258D02*
X87005Y-47389D01*
X86958Y-47183D02*
X86911Y-47324D01*
X87033Y-47324D01*
X87089Y-47192D02*
X87220Y-47192D01*
X87136Y-47389D01*
X87296Y-47389D02*
X87296Y-47192D01*
X87408Y-47389D02*
X87324Y-47277D01*
X87408Y-47192D02*
X87296Y-47305D01*
X90023Y-46519D02*
X89957Y-46425D01*
X89910Y-46519D02*
X89910Y-46322D01*
X89985Y-46322D01*
X90004Y-46332D01*
X90013Y-46341D01*
X90023Y-46360D01*
X90023Y-46388D01*
X90013Y-46407D01*
X90004Y-46416D01*
X89985Y-46425D01*
X89910Y-46425D01*
X90210Y-46519D02*
X90098Y-46519D01*
X90154Y-46519D02*
X90154Y-46322D01*
X90135Y-46350D01*
X90117Y-46369D01*
X90098Y-46379D01*
X90276Y-46322D02*
X90398Y-46322D01*
X90332Y-46397D01*
X90361Y-46397D01*
X90379Y-46407D01*
X90389Y-46416D01*
X90398Y-46435D01*
X90398Y-46482D01*
X90389Y-46500D01*
X90379Y-46510D01*
X90361Y-46519D01*
X90304Y-46519D01*
X90286Y-46510D01*
X90276Y-46500D01*
X91210Y-46509D02*
X91097Y-46509D01*
X91153Y-46509D02*
X91153Y-46312D01*
X91135Y-46340D01*
X91116Y-46359D01*
X91097Y-46369D01*
X91332Y-46312D02*
X91350Y-46312D01*
X91369Y-46322D01*
X91379Y-46331D01*
X91388Y-46350D01*
X91397Y-46387D01*
X91397Y-46434D01*
X91388Y-46472D01*
X91379Y-46490D01*
X91369Y-46500D01*
X91350Y-46509D01*
X91332Y-46509D01*
X91313Y-46500D01*
X91303Y-46490D01*
X91294Y-46472D01*
X91285Y-46434D01*
X91285Y-46387D01*
X91294Y-46350D01*
X91303Y-46331D01*
X91313Y-46322D01*
X91332Y-46312D01*
X91519Y-46312D02*
X91538Y-46312D01*
X91557Y-46322D01*
X91566Y-46331D01*
X91576Y-46350D01*
X91585Y-46387D01*
X91585Y-46434D01*
X91576Y-46472D01*
X91566Y-46490D01*
X91557Y-46500D01*
X91538Y-46509D01*
X91519Y-46509D01*
X91500Y-46500D01*
X91491Y-46490D01*
X91482Y-46472D01*
X91472Y-46434D01*
X91472Y-46387D01*
X91482Y-46350D01*
X91491Y-46331D01*
X91500Y-46322D01*
X91519Y-46312D01*
X91669Y-46509D02*
X91669Y-46312D01*
X91782Y-46509D02*
X91697Y-46397D01*
X91782Y-46312D02*
X91669Y-46425D01*
X87659Y-46756D02*
X87565Y-46822D01*
X87659Y-46869D02*
X87462Y-46869D01*
X87462Y-46794D01*
X87472Y-46775D01*
X87481Y-46766D01*
X87500Y-46756D01*
X87528Y-46756D01*
X87547Y-46766D01*
X87556Y-46775D01*
X87565Y-46794D01*
X87565Y-46869D01*
X87659Y-46569D02*
X87659Y-46681D01*
X87659Y-46625D02*
X87462Y-46625D01*
X87490Y-46644D01*
X87509Y-46662D01*
X87519Y-46681D01*
X87659Y-46381D02*
X87659Y-46493D01*
X87659Y-46437D02*
X87462Y-46437D01*
X87490Y-46456D01*
X87509Y-46475D01*
X87519Y-46493D01*
X87462Y-46264D02*
X87462Y-46142D01*
X87537Y-46207D01*
X87537Y-46179D01*
X87547Y-46160D01*
X87556Y-46151D01*
X87575Y-46142D01*
X87622Y-46142D01*
X87640Y-46151D01*
X87650Y-46160D01*
X87659Y-46179D01*
X87659Y-46236D01*
X87650Y-46254D01*
X87640Y-46264D01*
X87659Y-46057D02*
X87462Y-46057D01*
X87659Y-45945D02*
X87547Y-46029D01*
X87462Y-45945D02*
X87575Y-46057D01*
X83919Y-50776D02*
X83825Y-50842D01*
X83919Y-50889D02*
X83722Y-50889D01*
X83722Y-50814D01*
X83732Y-50795D01*
X83741Y-50786D01*
X83760Y-50776D01*
X83788Y-50776D01*
X83807Y-50786D01*
X83816Y-50795D01*
X83825Y-50814D01*
X83825Y-50889D01*
X83919Y-50589D02*
X83919Y-50701D01*
X83919Y-50645D02*
X83722Y-50645D01*
X83750Y-50664D01*
X83769Y-50682D01*
X83779Y-50701D01*
X83722Y-50467D02*
X83722Y-50448D01*
X83732Y-50429D01*
X83741Y-50420D01*
X83760Y-50410D01*
X83797Y-50401D01*
X83844Y-50401D01*
X83882Y-50410D01*
X83900Y-50420D01*
X83910Y-50429D01*
X83919Y-50448D01*
X83919Y-50467D01*
X83910Y-50485D01*
X83900Y-50495D01*
X83882Y-50504D01*
X83844Y-50513D01*
X83797Y-50513D01*
X83760Y-50504D01*
X83741Y-50495D01*
X83732Y-50485D01*
X83722Y-50467D01*
X83869Y-50086D02*
X83869Y-50198D01*
X83869Y-50142D02*
X83672Y-50142D01*
X83700Y-50161D01*
X83719Y-50179D01*
X83729Y-50198D01*
X83672Y-49964D02*
X83672Y-49945D01*
X83682Y-49926D01*
X83691Y-49917D01*
X83710Y-49907D01*
X83747Y-49898D01*
X83794Y-49898D01*
X83832Y-49907D01*
X83850Y-49917D01*
X83860Y-49926D01*
X83869Y-49945D01*
X83869Y-49964D01*
X83860Y-49982D01*
X83850Y-49992D01*
X83832Y-50001D01*
X83794Y-50010D01*
X83747Y-50010D01*
X83710Y-50001D01*
X83691Y-49992D01*
X83682Y-49982D01*
X83672Y-49964D01*
X83869Y-49813D02*
X83672Y-49813D01*
X83869Y-49701D02*
X83757Y-49785D01*
X83672Y-49701D02*
X83785Y-49813D01*
X82027Y-42459D02*
X81961Y-42365D01*
X81914Y-42459D02*
X81914Y-42262D01*
X81989Y-42262D01*
X82008Y-42272D01*
X82017Y-42281D01*
X82027Y-42300D01*
X82027Y-42328D01*
X82017Y-42347D01*
X82008Y-42356D01*
X81989Y-42365D01*
X81914Y-42365D01*
X82214Y-42459D02*
X82102Y-42459D01*
X82158Y-42459D02*
X82158Y-42262D01*
X82139Y-42290D01*
X82120Y-42309D01*
X82102Y-42319D01*
X82579Y-42358D02*
X82579Y-42489D01*
X82533Y-42283D02*
X82486Y-42424D01*
X82608Y-42424D01*
X82692Y-42489D02*
X82730Y-42489D01*
X82748Y-42480D01*
X82758Y-42470D01*
X82776Y-42442D01*
X82786Y-42405D01*
X82786Y-42330D01*
X82776Y-42311D01*
X82767Y-42302D01*
X82748Y-42292D01*
X82711Y-42292D01*
X82692Y-42302D01*
X82683Y-42311D01*
X82673Y-42330D01*
X82673Y-42377D01*
X82683Y-42395D01*
X82692Y-42405D01*
X82711Y-42414D01*
X82748Y-42414D01*
X82767Y-42405D01*
X82776Y-42395D01*
X82786Y-42377D01*
X82880Y-42489D02*
X82917Y-42489D01*
X82936Y-42480D01*
X82945Y-42470D01*
X82964Y-42442D01*
X82973Y-42405D01*
X82973Y-42330D01*
X82964Y-42311D01*
X82955Y-42302D01*
X82936Y-42292D01*
X82898Y-42292D01*
X82880Y-42302D01*
X82870Y-42311D01*
X82861Y-42330D01*
X82861Y-42377D01*
X82870Y-42395D01*
X82880Y-42405D01*
X82898Y-42414D01*
X82936Y-42414D01*
X82955Y-42405D01*
X82964Y-42395D01*
X82973Y-42377D01*
X73467Y-49969D02*
X73401Y-49875D01*
X73354Y-49969D02*
X73354Y-49772D01*
X73429Y-49772D01*
X73448Y-49782D01*
X73457Y-49791D01*
X73467Y-49810D01*
X73467Y-49838D01*
X73457Y-49857D01*
X73448Y-49866D01*
X73429Y-49875D01*
X73354Y-49875D01*
X73560Y-49969D02*
X73598Y-49969D01*
X73617Y-49960D01*
X73626Y-49950D01*
X73645Y-49922D01*
X73654Y-49885D01*
X73654Y-49810D01*
X73645Y-49791D01*
X73636Y-49782D01*
X73617Y-49772D01*
X73579Y-49772D01*
X73560Y-49782D01*
X73551Y-49791D01*
X73542Y-49810D01*
X73542Y-49857D01*
X73551Y-49875D01*
X73560Y-49885D01*
X73579Y-49894D01*
X73617Y-49894D01*
X73636Y-49885D01*
X73645Y-49875D01*
X73654Y-49857D01*
X74087Y-49969D02*
X73975Y-49969D01*
X74031Y-49969D02*
X74031Y-49772D01*
X74012Y-49800D01*
X73993Y-49819D01*
X73975Y-49829D01*
X74172Y-49969D02*
X74172Y-49772D01*
X74284Y-49969D02*
X74200Y-49857D01*
X74284Y-49772D02*
X74172Y-49885D01*
X84999Y-42592D02*
X84905Y-42658D01*
X84999Y-42705D02*
X84802Y-42705D01*
X84802Y-42630D01*
X84812Y-42611D01*
X84821Y-42602D01*
X84840Y-42592D01*
X84868Y-42592D01*
X84887Y-42602D01*
X84896Y-42611D01*
X84905Y-42630D01*
X84905Y-42705D01*
X84802Y-42527D02*
X84802Y-42405D01*
X84877Y-42470D01*
X84877Y-42442D01*
X84887Y-42423D01*
X84896Y-42414D01*
X84915Y-42405D01*
X84962Y-42405D01*
X84980Y-42414D01*
X84990Y-42423D01*
X84999Y-42442D01*
X84999Y-42499D01*
X84990Y-42517D01*
X84980Y-42527D01*
X84868Y-42130D02*
X84999Y-42130D01*
X84793Y-42176D02*
X84934Y-42223D01*
X84934Y-42101D01*
X84999Y-42017D02*
X84999Y-41980D01*
X84990Y-41961D01*
X84980Y-41951D01*
X84952Y-41933D01*
X84915Y-41923D01*
X84840Y-41923D01*
X84821Y-41933D01*
X84812Y-41942D01*
X84802Y-41961D01*
X84802Y-41998D01*
X84812Y-42017D01*
X84821Y-42026D01*
X84840Y-42036D01*
X84887Y-42036D01*
X84905Y-42026D01*
X84915Y-42017D01*
X84924Y-41998D01*
X84924Y-41961D01*
X84915Y-41942D01*
X84905Y-41933D01*
X84887Y-41923D01*
X84999Y-41829D02*
X84999Y-41792D01*
X84990Y-41773D01*
X84980Y-41764D01*
X84952Y-41745D01*
X84915Y-41736D01*
X84840Y-41736D01*
X84821Y-41745D01*
X84812Y-41754D01*
X84802Y-41773D01*
X84802Y-41811D01*
X84812Y-41829D01*
X84821Y-41839D01*
X84840Y-41848D01*
X84887Y-41848D01*
X84905Y-41839D01*
X84915Y-41829D01*
X84924Y-41811D01*
X84924Y-41773D01*
X84915Y-41754D01*
X84905Y-41745D01*
X84887Y-41736D01*
X86429Y-42622D02*
X86335Y-42688D01*
X86429Y-42735D02*
X86232Y-42735D01*
X86232Y-42660D01*
X86242Y-42641D01*
X86251Y-42632D01*
X86270Y-42622D01*
X86298Y-42622D01*
X86317Y-42632D01*
X86326Y-42641D01*
X86335Y-42660D01*
X86335Y-42735D01*
X86298Y-42453D02*
X86429Y-42453D01*
X86223Y-42500D02*
X86364Y-42547D01*
X86364Y-42425D01*
X86288Y-42100D02*
X86419Y-42100D01*
X86213Y-42146D02*
X86354Y-42193D01*
X86354Y-42071D01*
X86419Y-41987D02*
X86419Y-41950D01*
X86410Y-41931D01*
X86400Y-41921D01*
X86372Y-41903D01*
X86335Y-41893D01*
X86260Y-41893D01*
X86241Y-41903D01*
X86232Y-41912D01*
X86222Y-41931D01*
X86222Y-41968D01*
X86232Y-41987D01*
X86241Y-41996D01*
X86260Y-42006D01*
X86307Y-42006D01*
X86325Y-41996D01*
X86335Y-41987D01*
X86344Y-41968D01*
X86344Y-41931D01*
X86335Y-41912D01*
X86325Y-41903D01*
X86307Y-41893D01*
X86419Y-41799D02*
X86419Y-41762D01*
X86410Y-41743D01*
X86400Y-41734D01*
X86372Y-41715D01*
X86335Y-41706D01*
X86260Y-41706D01*
X86241Y-41715D01*
X86232Y-41724D01*
X86222Y-41743D01*
X86222Y-41781D01*
X86232Y-41799D01*
X86241Y-41809D01*
X86260Y-41818D01*
X86307Y-41818D01*
X86325Y-41809D01*
X86335Y-41799D01*
X86344Y-41781D01*
X86344Y-41743D01*
X86335Y-41724D01*
X86325Y-41715D01*
X86307Y-41706D01*
X87869Y-42612D02*
X87775Y-42678D01*
X87869Y-42725D02*
X87672Y-42725D01*
X87672Y-42650D01*
X87682Y-42631D01*
X87691Y-42622D01*
X87710Y-42612D01*
X87738Y-42612D01*
X87757Y-42622D01*
X87766Y-42631D01*
X87775Y-42650D01*
X87775Y-42725D01*
X87672Y-42434D02*
X87672Y-42528D01*
X87766Y-42537D01*
X87757Y-42528D01*
X87747Y-42509D01*
X87747Y-42462D01*
X87757Y-42443D01*
X87766Y-42434D01*
X87785Y-42425D01*
X87832Y-42425D01*
X87850Y-42434D01*
X87860Y-42443D01*
X87869Y-42462D01*
X87869Y-42509D01*
X87860Y-42528D01*
X87850Y-42537D01*
X87748Y-42090D02*
X87879Y-42090D01*
X87673Y-42136D02*
X87814Y-42183D01*
X87814Y-42061D01*
X87879Y-41977D02*
X87879Y-41940D01*
X87870Y-41921D01*
X87860Y-41911D01*
X87832Y-41893D01*
X87795Y-41883D01*
X87720Y-41883D01*
X87701Y-41893D01*
X87692Y-41902D01*
X87682Y-41921D01*
X87682Y-41958D01*
X87692Y-41977D01*
X87701Y-41986D01*
X87720Y-41996D01*
X87767Y-41996D01*
X87785Y-41986D01*
X87795Y-41977D01*
X87804Y-41958D01*
X87804Y-41921D01*
X87795Y-41902D01*
X87785Y-41893D01*
X87767Y-41883D01*
X87879Y-41789D02*
X87879Y-41752D01*
X87870Y-41733D01*
X87860Y-41724D01*
X87832Y-41705D01*
X87795Y-41696D01*
X87720Y-41696D01*
X87701Y-41705D01*
X87692Y-41714D01*
X87682Y-41733D01*
X87682Y-41771D01*
X87692Y-41789D01*
X87701Y-41799D01*
X87720Y-41808D01*
X87767Y-41808D01*
X87785Y-41799D01*
X87795Y-41789D01*
X87804Y-41771D01*
X87804Y-41733D01*
X87795Y-41714D01*
X87785Y-41705D01*
X87767Y-41696D01*
X98179Y-56132D02*
X98085Y-56198D01*
X98179Y-56245D02*
X97982Y-56245D01*
X97982Y-56170D01*
X97992Y-56151D01*
X98001Y-56142D01*
X98020Y-56132D01*
X98048Y-56132D01*
X98067Y-56142D01*
X98076Y-56151D01*
X98085Y-56170D01*
X98085Y-56245D01*
X98067Y-56020D02*
X98057Y-56039D01*
X98048Y-56048D01*
X98029Y-56057D01*
X98020Y-56057D01*
X98001Y-56048D01*
X97992Y-56039D01*
X97982Y-56020D01*
X97982Y-55982D01*
X97992Y-55963D01*
X98001Y-55954D01*
X98020Y-55945D01*
X98029Y-55945D01*
X98048Y-55954D01*
X98057Y-55963D01*
X98067Y-55982D01*
X98067Y-56020D01*
X98076Y-56039D01*
X98085Y-56048D01*
X98104Y-56057D01*
X98142Y-56057D01*
X98160Y-56048D01*
X98170Y-56039D01*
X98179Y-56020D01*
X98179Y-55982D01*
X98170Y-55963D01*
X98160Y-55954D01*
X98142Y-55945D01*
X98104Y-55945D01*
X98085Y-55954D01*
X98076Y-55963D01*
X98067Y-55982D01*
X97961Y-55675D02*
X97952Y-55666D01*
X97942Y-55647D01*
X97942Y-55600D01*
X97952Y-55581D01*
X97961Y-55572D01*
X97980Y-55562D01*
X97999Y-55562D01*
X98027Y-55572D01*
X98139Y-55684D01*
X98139Y-55562D01*
X98120Y-55478D02*
X98130Y-55469D01*
X98139Y-55478D01*
X98130Y-55487D01*
X98120Y-55478D01*
X98139Y-55478D01*
X97961Y-55394D02*
X97952Y-55384D01*
X97942Y-55365D01*
X97942Y-55319D01*
X97952Y-55300D01*
X97961Y-55290D01*
X97980Y-55281D01*
X97999Y-55281D01*
X98027Y-55290D01*
X98139Y-55403D01*
X98139Y-55281D01*
X98139Y-55197D02*
X97942Y-55197D01*
X98139Y-55084D02*
X98027Y-55168D01*
X97942Y-55084D02*
X98055Y-55197D01*
X95397Y-42559D02*
X95331Y-42465D01*
X95284Y-42559D02*
X95284Y-42362D01*
X95359Y-42362D01*
X95378Y-42372D01*
X95387Y-42381D01*
X95397Y-42400D01*
X95397Y-42428D01*
X95387Y-42447D01*
X95378Y-42456D01*
X95359Y-42465D01*
X95284Y-42465D01*
X95462Y-42362D02*
X95594Y-42362D01*
X95509Y-42559D01*
X94469Y-42388D02*
X94469Y-42519D01*
X94423Y-42313D02*
X94376Y-42454D01*
X94498Y-42454D01*
X94582Y-42519D02*
X94620Y-42519D01*
X94638Y-42510D01*
X94648Y-42500D01*
X94666Y-42472D01*
X94676Y-42435D01*
X94676Y-42360D01*
X94666Y-42341D01*
X94657Y-42332D01*
X94638Y-42322D01*
X94601Y-42322D01*
X94582Y-42332D01*
X94573Y-42341D01*
X94563Y-42360D01*
X94563Y-42407D01*
X94573Y-42425D01*
X94582Y-42435D01*
X94601Y-42444D01*
X94638Y-42444D01*
X94657Y-42435D01*
X94666Y-42425D01*
X94676Y-42407D01*
X94770Y-42519D02*
X94807Y-42519D01*
X94826Y-42510D01*
X94835Y-42500D01*
X94854Y-42472D01*
X94863Y-42435D01*
X94863Y-42360D01*
X94854Y-42341D01*
X94845Y-42332D01*
X94826Y-42322D01*
X94788Y-42322D01*
X94770Y-42332D01*
X94760Y-42341D01*
X94751Y-42360D01*
X94751Y-42407D01*
X94760Y-42425D01*
X94770Y-42435D01*
X94788Y-42444D01*
X94826Y-42444D01*
X94845Y-42435D01*
X94854Y-42425D01*
X94863Y-42407D01*
X90767Y-42359D02*
X90701Y-42265D01*
X90654Y-42359D02*
X90654Y-42162D01*
X90729Y-42162D01*
X90748Y-42172D01*
X90757Y-42181D01*
X90767Y-42200D01*
X90767Y-42228D01*
X90757Y-42247D01*
X90748Y-42256D01*
X90729Y-42265D01*
X90654Y-42265D01*
X90936Y-42162D02*
X90898Y-42162D01*
X90879Y-42172D01*
X90870Y-42181D01*
X90851Y-42209D01*
X90842Y-42247D01*
X90842Y-42322D01*
X90851Y-42340D01*
X90860Y-42350D01*
X90879Y-42359D01*
X90917Y-42359D01*
X90936Y-42350D01*
X90945Y-42340D01*
X90954Y-42322D01*
X90954Y-42275D01*
X90945Y-42256D01*
X90936Y-42247D01*
X90917Y-42237D01*
X90879Y-42237D01*
X90860Y-42247D01*
X90851Y-42256D01*
X90842Y-42275D01*
X91309Y-42218D02*
X91309Y-42349D01*
X91263Y-42143D02*
X91216Y-42284D01*
X91338Y-42284D01*
X91422Y-42349D02*
X91460Y-42349D01*
X91478Y-42340D01*
X91488Y-42330D01*
X91506Y-42302D01*
X91516Y-42265D01*
X91516Y-42190D01*
X91506Y-42171D01*
X91497Y-42162D01*
X91478Y-42152D01*
X91441Y-42152D01*
X91422Y-42162D01*
X91413Y-42171D01*
X91403Y-42190D01*
X91403Y-42237D01*
X91413Y-42255D01*
X91422Y-42265D01*
X91441Y-42274D01*
X91478Y-42274D01*
X91497Y-42265D01*
X91506Y-42255D01*
X91516Y-42237D01*
X91610Y-42349D02*
X91647Y-42349D01*
X91666Y-42340D01*
X91675Y-42330D01*
X91694Y-42302D01*
X91703Y-42265D01*
X91703Y-42190D01*
X91694Y-42171D01*
X91685Y-42162D01*
X91666Y-42152D01*
X91628Y-42152D01*
X91610Y-42162D01*
X91600Y-42171D01*
X91591Y-42190D01*
X91591Y-42237D01*
X91600Y-42255D01*
X91610Y-42265D01*
X91628Y-42274D01*
X91666Y-42274D01*
X91685Y-42265D01*
X91694Y-42255D01*
X91703Y-42237D01*
G54D11*
X89087Y-42428D02*
X89201Y-42428D01*
X89144Y-42628D02*
X89144Y-42428D01*
X89268Y-42628D02*
X89268Y-42428D01*
X89344Y-42428D01*
X89363Y-42438D01*
X89373Y-42448D01*
X89382Y-42467D01*
X89382Y-42495D01*
X89373Y-42514D01*
X89363Y-42524D01*
X89344Y-42533D01*
X89268Y-42533D01*
X89554Y-42428D02*
X89516Y-42428D01*
X89497Y-42438D01*
X89487Y-42448D01*
X89468Y-42476D01*
X89459Y-42514D01*
X89459Y-42590D01*
X89468Y-42609D01*
X89478Y-42619D01*
X89497Y-42628D01*
X89535Y-42628D01*
X89554Y-42619D01*
X89563Y-42609D01*
X89573Y-42590D01*
X89573Y-42543D01*
X89563Y-42524D01*
X89554Y-42514D01*
X89535Y-42505D01*
X89497Y-42505D01*
X89478Y-42514D01*
X89468Y-42524D01*
X89459Y-42543D01*
G54D14*
X89261Y-41701D02*
X89318Y-41701D01*
X89290Y-41801D02*
X89290Y-41701D01*
X89351Y-41801D02*
X89351Y-41701D01*
X89390Y-41701D01*
X89399Y-41705D01*
X89404Y-41710D01*
X89409Y-41720D01*
X89409Y-41734D01*
X89404Y-41743D01*
X89399Y-41748D01*
X89390Y-41753D01*
X89351Y-41753D01*
G54D11*
X77637Y-42410D02*
X77751Y-42410D01*
X77694Y-42610D02*
X77694Y-42410D01*
X77818Y-42610D02*
X77818Y-42410D01*
X77894Y-42410D01*
X77913Y-42420D01*
X77923Y-42430D01*
X77932Y-42449D01*
X77932Y-42477D01*
X77923Y-42496D01*
X77913Y-42506D01*
X77894Y-42515D01*
X77818Y-42515D01*
X78123Y-42610D02*
X78009Y-42610D01*
X78066Y-42610D02*
X78066Y-42410D01*
X78047Y-42439D01*
X78028Y-42458D01*
X78009Y-42468D01*
G54D14*
X78131Y-41711D02*
X78188Y-41711D01*
X78160Y-41811D02*
X78160Y-41711D01*
X78221Y-41811D02*
X78221Y-41711D01*
X78260Y-41711D01*
X78269Y-41715D01*
X78274Y-41720D01*
X78279Y-41730D01*
X78279Y-41744D01*
X78274Y-41753D01*
X78269Y-41758D01*
X78260Y-41763D01*
X78221Y-41763D01*
G54D11*
X76807Y-42488D02*
X76921Y-42488D01*
X76864Y-42688D02*
X76864Y-42488D01*
X76988Y-42688D02*
X76988Y-42488D01*
X77064Y-42488D01*
X77083Y-42498D01*
X77093Y-42508D01*
X77102Y-42527D01*
X77102Y-42555D01*
X77093Y-42574D01*
X77083Y-42584D01*
X77064Y-42593D01*
X76988Y-42593D01*
X77179Y-42508D02*
X77188Y-42498D01*
X77207Y-42488D01*
X77255Y-42488D01*
X77274Y-42498D01*
X77283Y-42508D01*
X77293Y-42527D01*
X77293Y-42546D01*
X77283Y-42574D01*
X77169Y-42688D01*
X77293Y-42688D01*
G54D14*
X76981Y-41761D02*
X77038Y-41761D01*
X77010Y-41861D02*
X77010Y-41761D01*
X77071Y-41861D02*
X77071Y-41761D01*
X77110Y-41761D01*
X77119Y-41765D01*
X77124Y-41770D01*
X77129Y-41780D01*
X77129Y-41794D01*
X77124Y-41803D01*
X77119Y-41808D01*
X77110Y-41813D01*
X77071Y-41813D01*
G54D11*
X75557Y-42488D02*
X75671Y-42488D01*
X75614Y-42688D02*
X75614Y-42488D01*
X75738Y-42688D02*
X75738Y-42488D01*
X75814Y-42488D01*
X75833Y-42498D01*
X75843Y-42508D01*
X75852Y-42527D01*
X75852Y-42555D01*
X75843Y-42574D01*
X75833Y-42584D01*
X75814Y-42593D01*
X75738Y-42593D01*
X75919Y-42488D02*
X76043Y-42488D01*
X75976Y-42565D01*
X76005Y-42565D01*
X76024Y-42574D01*
X76033Y-42584D01*
X76043Y-42603D01*
X76043Y-42650D01*
X76033Y-42669D01*
X76024Y-42679D01*
X76005Y-42688D01*
X75948Y-42688D01*
X75929Y-42679D01*
X75919Y-42669D01*
G54D14*
X75731Y-41761D02*
X75788Y-41761D01*
X75760Y-41861D02*
X75760Y-41761D01*
X75821Y-41861D02*
X75821Y-41761D01*
X75860Y-41761D01*
X75869Y-41765D01*
X75874Y-41770D01*
X75879Y-41780D01*
X75879Y-41794D01*
X75874Y-41803D01*
X75869Y-41808D01*
X75860Y-41813D01*
X75821Y-41813D01*
G54D11*
X80167Y-41690D02*
X80281Y-41690D01*
X80224Y-41890D02*
X80224Y-41690D01*
X80348Y-41890D02*
X80348Y-41690D01*
X80424Y-41690D01*
X80443Y-41700D01*
X80453Y-41710D01*
X80462Y-41729D01*
X80462Y-41757D01*
X80453Y-41776D01*
X80443Y-41786D01*
X80424Y-41795D01*
X80348Y-41795D01*
X80634Y-41757D02*
X80634Y-41890D01*
X80586Y-41681D02*
X80539Y-41824D01*
X80662Y-41824D01*
G54D14*
X79481Y-41761D02*
X79538Y-41761D01*
X79510Y-41861D02*
X79510Y-41761D01*
X79571Y-41861D02*
X79571Y-41761D01*
X79610Y-41761D01*
X79619Y-41765D01*
X79624Y-41770D01*
X79629Y-41780D01*
X79629Y-41794D01*
X79624Y-41803D01*
X79619Y-41808D01*
X79610Y-41813D01*
X79571Y-41813D01*
G54D11*
X93137Y-42388D02*
X93251Y-42388D01*
X93194Y-42588D02*
X93194Y-42388D01*
X93318Y-42588D02*
X93318Y-42388D01*
X93394Y-42388D01*
X93413Y-42398D01*
X93423Y-42408D01*
X93432Y-42427D01*
X93432Y-42455D01*
X93423Y-42474D01*
X93413Y-42484D01*
X93394Y-42493D01*
X93318Y-42493D01*
X93613Y-42388D02*
X93518Y-42388D01*
X93509Y-42484D01*
X93518Y-42474D01*
X93537Y-42465D01*
X93585Y-42465D01*
X93604Y-42474D01*
X93613Y-42484D01*
X93623Y-42503D01*
X93623Y-42550D01*
X93613Y-42569D01*
X93604Y-42579D01*
X93585Y-42588D01*
X93537Y-42588D01*
X93518Y-42579D01*
X93509Y-42569D01*
G54D14*
X93311Y-41661D02*
X93368Y-41661D01*
X93340Y-41761D02*
X93340Y-41661D01*
X93401Y-41761D02*
X93401Y-41661D01*
X93440Y-41661D01*
X93449Y-41665D01*
X93454Y-41670D01*
X93459Y-41680D01*
X93459Y-41694D01*
X93454Y-41703D01*
X93449Y-41708D01*
X93440Y-41713D01*
X93401Y-41713D01*
G54D11*
X77022Y-55838D02*
X77136Y-55838D01*
X77079Y-56038D02*
X77079Y-55838D01*
X77203Y-56038D02*
X77203Y-55838D01*
X77279Y-55838D01*
X77298Y-55848D01*
X77308Y-55858D01*
X77317Y-55877D01*
X77317Y-55905D01*
X77308Y-55924D01*
X77298Y-55934D01*
X77279Y-55943D01*
X77203Y-55943D01*
X77508Y-56038D02*
X77393Y-56038D01*
X77450Y-56038D02*
X77450Y-55838D01*
X77431Y-55867D01*
X77412Y-55886D01*
X77393Y-55896D01*
X77574Y-55838D02*
X77698Y-55838D01*
X77631Y-55915D01*
X77660Y-55915D01*
X77679Y-55924D01*
X77689Y-55934D01*
X77698Y-55953D01*
X77698Y-56000D01*
X77689Y-56019D01*
X77679Y-56029D01*
X77660Y-56038D01*
X77603Y-56038D01*
X77584Y-56029D01*
X77574Y-56019D01*
G54D14*
X77158Y-55201D02*
X77153Y-55206D01*
X77139Y-55211D01*
X77129Y-55211D01*
X77115Y-55206D01*
X77105Y-55196D01*
X77100Y-55187D01*
X77096Y-55168D01*
X77096Y-55153D01*
X77100Y-55134D01*
X77105Y-55125D01*
X77115Y-55115D01*
X77129Y-55111D01*
X77139Y-55111D01*
X77153Y-55115D01*
X77158Y-55120D01*
X77220Y-55111D02*
X77239Y-55111D01*
X77248Y-55115D01*
X77258Y-55125D01*
X77262Y-55144D01*
X77262Y-55177D01*
X77258Y-55196D01*
X77248Y-55206D01*
X77239Y-55211D01*
X77220Y-55211D01*
X77210Y-55206D01*
X77200Y-55196D01*
X77196Y-55177D01*
X77196Y-55144D01*
X77200Y-55125D01*
X77210Y-55115D01*
X77220Y-55111D01*
X77305Y-55211D02*
X77305Y-55111D01*
X77362Y-55211D01*
X77362Y-55111D01*
X77410Y-55211D02*
X77410Y-55111D01*
X77467Y-55211D01*
X77467Y-55111D01*
X77491Y-55220D02*
X77567Y-55220D01*
X77643Y-55211D02*
X77586Y-55211D01*
X77615Y-55211D02*
X77615Y-55111D01*
X77605Y-55125D01*
X77596Y-55134D01*
X77586Y-55139D01*
G54D11*
X80682Y-50058D02*
X80796Y-50058D01*
X80739Y-50258D02*
X80739Y-50058D01*
X80863Y-50258D02*
X80863Y-50058D01*
X80939Y-50058D01*
X80958Y-50068D01*
X80968Y-50078D01*
X80977Y-50097D01*
X80977Y-50125D01*
X80968Y-50144D01*
X80958Y-50154D01*
X80939Y-50163D01*
X80863Y-50163D01*
X81168Y-50258D02*
X81053Y-50258D01*
X81110Y-50258D02*
X81110Y-50058D01*
X81091Y-50087D01*
X81072Y-50106D01*
X81053Y-50116D01*
X81349Y-50058D02*
X81253Y-50058D01*
X81244Y-50154D01*
X81253Y-50144D01*
X81272Y-50135D01*
X81320Y-50135D01*
X81339Y-50144D01*
X81349Y-50154D01*
X81358Y-50173D01*
X81358Y-50220D01*
X81349Y-50239D01*
X81339Y-50249D01*
X81320Y-50258D01*
X81272Y-50258D01*
X81253Y-50249D01*
X81244Y-50239D01*
G54D14*
X80818Y-49421D02*
X80813Y-49426D01*
X80799Y-49431D01*
X80789Y-49431D01*
X80775Y-49426D01*
X80765Y-49416D01*
X80760Y-49407D01*
X80756Y-49388D01*
X80756Y-49373D01*
X80760Y-49354D01*
X80765Y-49345D01*
X80775Y-49335D01*
X80789Y-49331D01*
X80799Y-49331D01*
X80813Y-49335D01*
X80818Y-49340D01*
X80880Y-49331D02*
X80899Y-49331D01*
X80908Y-49335D01*
X80918Y-49345D01*
X80922Y-49364D01*
X80922Y-49397D01*
X80918Y-49416D01*
X80908Y-49426D01*
X80899Y-49431D01*
X80880Y-49431D01*
X80870Y-49426D01*
X80860Y-49416D01*
X80856Y-49397D01*
X80856Y-49364D01*
X80860Y-49345D01*
X80870Y-49335D01*
X80880Y-49331D01*
X80965Y-49431D02*
X80965Y-49331D01*
X81022Y-49431D01*
X81022Y-49331D01*
X81070Y-49431D02*
X81070Y-49331D01*
X81127Y-49431D01*
X81127Y-49331D01*
X81151Y-49440D02*
X81227Y-49440D01*
X81303Y-49431D02*
X81246Y-49431D01*
X81275Y-49431D02*
X81275Y-49331D01*
X81265Y-49345D01*
X81256Y-49354D01*
X81246Y-49359D01*
G54D11*
X88497Y-58478D02*
X88611Y-58478D01*
X88554Y-58678D02*
X88554Y-58478D01*
X88678Y-58678D02*
X88678Y-58478D01*
X88754Y-58478D01*
X88773Y-58488D01*
X88783Y-58498D01*
X88792Y-58517D01*
X88792Y-58545D01*
X88783Y-58564D01*
X88773Y-58574D01*
X88754Y-58583D01*
X88678Y-58583D01*
X88888Y-58678D02*
X88926Y-58678D01*
X88945Y-58669D01*
X88954Y-58659D01*
X88973Y-58631D01*
X88983Y-58593D01*
X88983Y-58517D01*
X88973Y-58498D01*
X88964Y-58488D01*
X88945Y-58478D01*
X88907Y-58478D01*
X88888Y-58488D01*
X88878Y-58498D01*
X88869Y-58517D01*
X88869Y-58564D01*
X88878Y-58583D01*
X88888Y-58593D01*
X88907Y-58602D01*
X88945Y-58602D01*
X88964Y-58593D01*
X88973Y-58583D01*
X88983Y-58564D01*
G54D14*
X88538Y-57841D02*
X88533Y-57846D01*
X88519Y-57851D01*
X88509Y-57851D01*
X88495Y-57846D01*
X88485Y-57836D01*
X88480Y-57827D01*
X88476Y-57808D01*
X88476Y-57793D01*
X88480Y-57774D01*
X88485Y-57765D01*
X88495Y-57755D01*
X88509Y-57751D01*
X88519Y-57751D01*
X88533Y-57755D01*
X88538Y-57760D01*
X88600Y-57751D02*
X88619Y-57751D01*
X88628Y-57755D01*
X88638Y-57765D01*
X88642Y-57784D01*
X88642Y-57817D01*
X88638Y-57836D01*
X88628Y-57846D01*
X88619Y-57851D01*
X88600Y-57851D01*
X88590Y-57846D01*
X88580Y-57836D01*
X88576Y-57817D01*
X88576Y-57784D01*
X88580Y-57765D01*
X88590Y-57755D01*
X88600Y-57751D01*
X88685Y-57851D02*
X88685Y-57751D01*
X88742Y-57851D01*
X88742Y-57751D01*
X88790Y-57851D02*
X88790Y-57751D01*
X88847Y-57851D01*
X88847Y-57751D01*
X88871Y-57860D02*
X88947Y-57860D01*
X89023Y-57851D02*
X88966Y-57851D01*
X88995Y-57851D02*
X88995Y-57751D01*
X88985Y-57765D01*
X88976Y-57774D01*
X88966Y-57779D01*
G54D11*
X98652Y-45800D02*
X98766Y-45800D01*
X98709Y-46000D02*
X98709Y-45800D01*
X98833Y-46000D02*
X98833Y-45800D01*
X98909Y-45800D01*
X98928Y-45810D01*
X98938Y-45820D01*
X98947Y-45839D01*
X98947Y-45867D01*
X98938Y-45886D01*
X98928Y-45896D01*
X98909Y-45905D01*
X98833Y-45905D01*
X99138Y-46000D02*
X99023Y-46000D01*
X99080Y-46000D02*
X99080Y-45800D01*
X99061Y-45829D01*
X99042Y-45848D01*
X99023Y-45858D01*
X99252Y-45886D02*
X99233Y-45877D01*
X99223Y-45867D01*
X99214Y-45848D01*
X99214Y-45839D01*
X99223Y-45820D01*
X99233Y-45810D01*
X99252Y-45800D01*
X99290Y-45800D01*
X99309Y-45810D01*
X99319Y-45820D01*
X99328Y-45839D01*
X99328Y-45848D01*
X99319Y-45867D01*
X99309Y-45877D01*
X99290Y-45886D01*
X99252Y-45886D01*
X99233Y-45896D01*
X99223Y-45905D01*
X99214Y-45924D01*
X99214Y-45962D01*
X99223Y-45981D01*
X99233Y-45991D01*
X99252Y-46000D01*
X99290Y-46000D01*
X99309Y-45991D01*
X99319Y-45981D01*
X99328Y-45962D01*
X99328Y-45924D01*
X99319Y-45905D01*
X99309Y-45896D01*
X99290Y-45886D01*
G54D14*
X97988Y-46491D02*
X97983Y-46496D01*
X97969Y-46501D01*
X97959Y-46501D01*
X97945Y-46496D01*
X97935Y-46486D01*
X97930Y-46477D01*
X97926Y-46458D01*
X97926Y-46443D01*
X97930Y-46424D01*
X97935Y-46415D01*
X97945Y-46405D01*
X97959Y-46401D01*
X97969Y-46401D01*
X97983Y-46405D01*
X97988Y-46410D01*
X98050Y-46401D02*
X98069Y-46401D01*
X98078Y-46405D01*
X98088Y-46415D01*
X98092Y-46434D01*
X98092Y-46467D01*
X98088Y-46486D01*
X98078Y-46496D01*
X98069Y-46501D01*
X98050Y-46501D01*
X98040Y-46496D01*
X98030Y-46486D01*
X98026Y-46467D01*
X98026Y-46434D01*
X98030Y-46415D01*
X98040Y-46405D01*
X98050Y-46401D01*
X98135Y-46501D02*
X98135Y-46401D01*
X98192Y-46501D01*
X98192Y-46401D01*
X98240Y-46501D02*
X98240Y-46401D01*
X98297Y-46501D01*
X98297Y-46401D01*
X98321Y-46510D02*
X98397Y-46510D01*
X98473Y-46501D02*
X98416Y-46501D01*
X98445Y-46501D02*
X98445Y-46401D01*
X98435Y-46415D01*
X98426Y-46424D01*
X98416Y-46429D01*
G54D11*
X87152Y-58478D02*
X87266Y-58478D01*
X87209Y-58678D02*
X87209Y-58478D01*
X87333Y-58678D02*
X87333Y-58478D01*
X87409Y-58478D01*
X87428Y-58488D01*
X87438Y-58498D01*
X87447Y-58517D01*
X87447Y-58545D01*
X87438Y-58564D01*
X87428Y-58574D01*
X87409Y-58583D01*
X87333Y-58583D01*
X87638Y-58678D02*
X87523Y-58678D01*
X87580Y-58678D02*
X87580Y-58478D01*
X87561Y-58507D01*
X87542Y-58526D01*
X87523Y-58536D01*
X87828Y-58678D02*
X87714Y-58678D01*
X87771Y-58678D02*
X87771Y-58478D01*
X87752Y-58507D01*
X87733Y-58526D01*
X87714Y-58536D01*
G54D14*
X87288Y-57841D02*
X87283Y-57846D01*
X87269Y-57851D01*
X87259Y-57851D01*
X87245Y-57846D01*
X87235Y-57836D01*
X87230Y-57827D01*
X87226Y-57808D01*
X87226Y-57793D01*
X87230Y-57774D01*
X87235Y-57765D01*
X87245Y-57755D01*
X87259Y-57751D01*
X87269Y-57751D01*
X87283Y-57755D01*
X87288Y-57760D01*
X87350Y-57751D02*
X87369Y-57751D01*
X87378Y-57755D01*
X87388Y-57765D01*
X87392Y-57784D01*
X87392Y-57817D01*
X87388Y-57836D01*
X87378Y-57846D01*
X87369Y-57851D01*
X87350Y-57851D01*
X87340Y-57846D01*
X87330Y-57836D01*
X87326Y-57817D01*
X87326Y-57784D01*
X87330Y-57765D01*
X87340Y-57755D01*
X87350Y-57751D01*
X87435Y-57851D02*
X87435Y-57751D01*
X87492Y-57851D01*
X87492Y-57751D01*
X87540Y-57851D02*
X87540Y-57751D01*
X87597Y-57851D01*
X87597Y-57751D01*
X87621Y-57860D02*
X87697Y-57860D01*
X87773Y-57851D02*
X87716Y-57851D01*
X87745Y-57851D02*
X87745Y-57751D01*
X87735Y-57765D01*
X87726Y-57774D01*
X87716Y-57779D01*
G54D11*
X93662Y-55914D02*
X93776Y-55914D01*
X93719Y-56114D02*
X93719Y-55914D01*
X93843Y-56114D02*
X93843Y-55914D01*
X93919Y-55914D01*
X93938Y-55924D01*
X93948Y-55934D01*
X93957Y-55953D01*
X93957Y-55981D01*
X93948Y-56000D01*
X93938Y-56010D01*
X93919Y-56019D01*
X93843Y-56019D01*
X94148Y-56114D02*
X94033Y-56114D01*
X94090Y-56114D02*
X94090Y-55914D01*
X94071Y-55943D01*
X94052Y-55962D01*
X94033Y-55972D01*
X94271Y-55914D02*
X94290Y-55914D01*
X94310Y-55924D01*
X94319Y-55934D01*
X94329Y-55953D01*
X94338Y-55991D01*
X94338Y-56038D01*
X94329Y-56076D01*
X94319Y-56095D01*
X94310Y-56105D01*
X94290Y-56114D01*
X94271Y-56114D01*
X94252Y-56105D01*
X94243Y-56095D01*
X94233Y-56076D01*
X94224Y-56038D01*
X94224Y-55991D01*
X94233Y-55953D01*
X94243Y-55934D01*
X94252Y-55924D01*
X94271Y-55914D01*
G54D14*
X93798Y-55277D02*
X93793Y-55282D01*
X93779Y-55287D01*
X93769Y-55287D01*
X93755Y-55282D01*
X93745Y-55272D01*
X93740Y-55263D01*
X93736Y-55244D01*
X93736Y-55229D01*
X93740Y-55210D01*
X93745Y-55201D01*
X93755Y-55191D01*
X93769Y-55187D01*
X93779Y-55187D01*
X93793Y-55191D01*
X93798Y-55196D01*
X93860Y-55187D02*
X93879Y-55187D01*
X93888Y-55191D01*
X93898Y-55201D01*
X93902Y-55220D01*
X93902Y-55253D01*
X93898Y-55272D01*
X93888Y-55282D01*
X93879Y-55287D01*
X93860Y-55287D01*
X93850Y-55282D01*
X93840Y-55272D01*
X93836Y-55253D01*
X93836Y-55220D01*
X93840Y-55201D01*
X93850Y-55191D01*
X93860Y-55187D01*
X93945Y-55287D02*
X93945Y-55187D01*
X94002Y-55287D01*
X94002Y-55187D01*
X94050Y-55287D02*
X94050Y-55187D01*
X94107Y-55287D01*
X94107Y-55187D01*
X94131Y-55296D02*
X94207Y-55296D01*
X94283Y-55287D02*
X94226Y-55287D01*
X94255Y-55287D02*
X94255Y-55187D01*
X94245Y-55201D01*
X94236Y-55210D01*
X94226Y-55215D01*
G54D11*
X93652Y-44580D02*
X93766Y-44580D01*
X93709Y-44780D02*
X93709Y-44580D01*
X93833Y-44780D02*
X93833Y-44580D01*
X93909Y-44580D01*
X93928Y-44590D01*
X93938Y-44600D01*
X93947Y-44619D01*
X93947Y-44647D01*
X93938Y-44666D01*
X93928Y-44676D01*
X93909Y-44685D01*
X93833Y-44685D01*
X94023Y-44600D02*
X94033Y-44590D01*
X94052Y-44580D01*
X94100Y-44580D01*
X94119Y-44590D01*
X94128Y-44600D01*
X94138Y-44619D01*
X94138Y-44638D01*
X94128Y-44666D01*
X94014Y-44780D01*
X94138Y-44780D01*
X94261Y-44580D02*
X94280Y-44580D01*
X94300Y-44590D01*
X94309Y-44600D01*
X94319Y-44619D01*
X94328Y-44657D01*
X94328Y-44704D01*
X94319Y-44742D01*
X94309Y-44761D01*
X94300Y-44771D01*
X94280Y-44780D01*
X94261Y-44780D01*
X94242Y-44771D01*
X94233Y-44761D01*
X94223Y-44742D01*
X94214Y-44704D01*
X94214Y-44657D01*
X94223Y-44619D01*
X94233Y-44600D01*
X94242Y-44590D01*
X94261Y-44580D01*
G54D14*
X93288Y-44151D02*
X93283Y-44156D01*
X93269Y-44161D01*
X93259Y-44161D01*
X93245Y-44156D01*
X93235Y-44146D01*
X93230Y-44137D01*
X93226Y-44118D01*
X93226Y-44103D01*
X93230Y-44084D01*
X93235Y-44075D01*
X93245Y-44065D01*
X93259Y-44061D01*
X93269Y-44061D01*
X93283Y-44065D01*
X93288Y-44070D01*
X93350Y-44061D02*
X93369Y-44061D01*
X93378Y-44065D01*
X93388Y-44075D01*
X93392Y-44094D01*
X93392Y-44127D01*
X93388Y-44146D01*
X93378Y-44156D01*
X93369Y-44161D01*
X93350Y-44161D01*
X93340Y-44156D01*
X93330Y-44146D01*
X93326Y-44127D01*
X93326Y-44094D01*
X93330Y-44075D01*
X93340Y-44065D01*
X93350Y-44061D01*
X93435Y-44161D02*
X93435Y-44061D01*
X93492Y-44161D01*
X93492Y-44061D01*
X93540Y-44161D02*
X93540Y-44061D01*
X93597Y-44161D01*
X93597Y-44061D01*
X93621Y-44170D02*
X93697Y-44170D01*
X93773Y-44161D02*
X93716Y-44161D01*
X93745Y-44161D02*
X93745Y-44061D01*
X93735Y-44075D01*
X93726Y-44084D01*
X93716Y-44089D01*
G54D11*
X88772Y-45240D02*
X88886Y-45240D01*
X88829Y-45440D02*
X88829Y-45240D01*
X88953Y-45440D02*
X88953Y-45240D01*
X89029Y-45240D01*
X89048Y-45250D01*
X89058Y-45260D01*
X89067Y-45279D01*
X89067Y-45307D01*
X89058Y-45326D01*
X89048Y-45336D01*
X89029Y-45345D01*
X88953Y-45345D01*
X89258Y-45440D02*
X89143Y-45440D01*
X89200Y-45440D02*
X89200Y-45240D01*
X89181Y-45269D01*
X89162Y-45288D01*
X89143Y-45298D01*
X89429Y-45240D02*
X89391Y-45240D01*
X89372Y-45250D01*
X89362Y-45260D01*
X89343Y-45288D01*
X89334Y-45326D01*
X89334Y-45402D01*
X89343Y-45421D01*
X89353Y-45431D01*
X89372Y-45440D01*
X89410Y-45440D01*
X89429Y-45431D01*
X89439Y-45421D01*
X89448Y-45402D01*
X89448Y-45355D01*
X89439Y-45336D01*
X89429Y-45326D01*
X89410Y-45317D01*
X89372Y-45317D01*
X89353Y-45326D01*
X89343Y-45336D01*
X89334Y-45355D01*
G54D14*
X88818Y-46111D02*
X88813Y-46116D01*
X88799Y-46121D01*
X88789Y-46121D01*
X88775Y-46116D01*
X88765Y-46106D01*
X88760Y-46097D01*
X88756Y-46078D01*
X88756Y-46063D01*
X88760Y-46044D01*
X88765Y-46035D01*
X88775Y-46025D01*
X88789Y-46021D01*
X88799Y-46021D01*
X88813Y-46025D01*
X88818Y-46030D01*
X88880Y-46021D02*
X88899Y-46021D01*
X88908Y-46025D01*
X88918Y-46035D01*
X88922Y-46054D01*
X88922Y-46087D01*
X88918Y-46106D01*
X88908Y-46116D01*
X88899Y-46121D01*
X88880Y-46121D01*
X88870Y-46116D01*
X88860Y-46106D01*
X88856Y-46087D01*
X88856Y-46054D01*
X88860Y-46035D01*
X88870Y-46025D01*
X88880Y-46021D01*
X88965Y-46121D02*
X88965Y-46021D01*
X89022Y-46121D01*
X89022Y-46021D01*
X89070Y-46121D02*
X89070Y-46021D01*
X89127Y-46121D01*
X89127Y-46021D01*
X89151Y-46130D02*
X89227Y-46130D01*
X89303Y-46121D02*
X89246Y-46121D01*
X89275Y-46121D02*
X89275Y-46021D01*
X89265Y-46035D01*
X89256Y-46044D01*
X89246Y-46049D01*
G54D11*
X86982Y-48020D02*
X87096Y-48020D01*
X87039Y-48220D02*
X87039Y-48020D01*
X87163Y-48220D02*
X87163Y-48020D01*
X87239Y-48020D01*
X87258Y-48030D01*
X87268Y-48040D01*
X87277Y-48059D01*
X87277Y-48087D01*
X87268Y-48106D01*
X87258Y-48116D01*
X87239Y-48125D01*
X87163Y-48125D01*
X87468Y-48220D02*
X87353Y-48220D01*
X87410Y-48220D02*
X87410Y-48020D01*
X87391Y-48049D01*
X87372Y-48068D01*
X87353Y-48078D01*
X87534Y-48020D02*
X87668Y-48020D01*
X87582Y-48220D01*
G54D14*
X88058Y-47791D02*
X88053Y-47796D01*
X88039Y-47801D01*
X88029Y-47801D01*
X88015Y-47796D01*
X88005Y-47786D01*
X88000Y-47777D01*
X87996Y-47758D01*
X87996Y-47743D01*
X88000Y-47724D01*
X88005Y-47715D01*
X88015Y-47705D01*
X88029Y-47701D01*
X88039Y-47701D01*
X88053Y-47705D01*
X88058Y-47710D01*
X88120Y-47701D02*
X88139Y-47701D01*
X88148Y-47705D01*
X88158Y-47715D01*
X88162Y-47734D01*
X88162Y-47767D01*
X88158Y-47786D01*
X88148Y-47796D01*
X88139Y-47801D01*
X88120Y-47801D01*
X88110Y-47796D01*
X88100Y-47786D01*
X88096Y-47767D01*
X88096Y-47734D01*
X88100Y-47715D01*
X88110Y-47705D01*
X88120Y-47701D01*
X88205Y-47801D02*
X88205Y-47701D01*
X88262Y-47801D01*
X88262Y-47701D01*
X88310Y-47801D02*
X88310Y-47701D01*
X88367Y-47801D01*
X88367Y-47701D01*
X88391Y-47810D02*
X88467Y-47810D01*
X88543Y-47801D02*
X88486Y-47801D01*
X88515Y-47801D02*
X88515Y-47701D01*
X88505Y-47715D01*
X88496Y-47724D01*
X88486Y-47729D01*
G54D11*
X78422Y-55873D02*
X78536Y-55873D01*
X78479Y-56073D02*
X78479Y-55873D01*
X78603Y-56073D02*
X78603Y-55873D01*
X78679Y-55873D01*
X78698Y-55883D01*
X78708Y-55893D01*
X78717Y-55912D01*
X78717Y-55940D01*
X78708Y-55959D01*
X78698Y-55969D01*
X78679Y-55978D01*
X78603Y-55978D01*
X78908Y-56073D02*
X78793Y-56073D01*
X78850Y-56073D02*
X78850Y-55873D01*
X78831Y-55902D01*
X78812Y-55921D01*
X78793Y-55931D01*
X79079Y-55940D02*
X79079Y-56073D01*
X79031Y-55864D02*
X78984Y-56007D01*
X79108Y-56007D01*
G54D14*
X78558Y-55236D02*
X78553Y-55241D01*
X78539Y-55246D01*
X78529Y-55246D01*
X78515Y-55241D01*
X78505Y-55231D01*
X78500Y-55222D01*
X78496Y-55203D01*
X78496Y-55188D01*
X78500Y-55169D01*
X78505Y-55160D01*
X78515Y-55150D01*
X78529Y-55146D01*
X78539Y-55146D01*
X78553Y-55150D01*
X78558Y-55155D01*
X78620Y-55146D02*
X78639Y-55146D01*
X78648Y-55150D01*
X78658Y-55160D01*
X78662Y-55179D01*
X78662Y-55212D01*
X78658Y-55231D01*
X78648Y-55241D01*
X78639Y-55246D01*
X78620Y-55246D01*
X78610Y-55241D01*
X78600Y-55231D01*
X78596Y-55212D01*
X78596Y-55179D01*
X78600Y-55160D01*
X78610Y-55150D01*
X78620Y-55146D01*
X78705Y-55246D02*
X78705Y-55146D01*
X78762Y-55246D01*
X78762Y-55146D01*
X78810Y-55246D02*
X78810Y-55146D01*
X78867Y-55246D01*
X78867Y-55146D01*
X78891Y-55255D02*
X78967Y-55255D01*
X79043Y-55246D02*
X78986Y-55246D01*
X79015Y-55246D02*
X79015Y-55146D01*
X79005Y-55160D01*
X78996Y-55169D01*
X78986Y-55174D01*
G54D10*
X81410Y-44995D02*
X81410Y-45314D01*
X81428Y-45351D01*
X81447Y-45370D01*
X81485Y-45389D01*
X81560Y-45389D01*
X81597Y-45370D01*
X81616Y-45351D01*
X81635Y-45314D01*
X81635Y-44995D01*
X81803Y-45033D02*
X81822Y-45014D01*
X81859Y-44995D01*
X81953Y-44995D01*
X81991Y-45014D01*
X82009Y-45033D01*
X82028Y-45070D01*
X82028Y-45108D01*
X82009Y-45164D01*
X81784Y-45389D01*
X82028Y-45389D01*
X80145Y-46059D02*
X80145Y-45665D01*
X80276Y-45946D01*
X80407Y-45665D01*
X80407Y-46059D01*
X80820Y-46021D02*
X80801Y-46040D01*
X80745Y-46059D01*
X80707Y-46059D01*
X80651Y-46040D01*
X80613Y-46003D01*
X80595Y-45965D01*
X80576Y-45890D01*
X80576Y-45834D01*
X80595Y-45759D01*
X80613Y-45721D01*
X80651Y-45684D01*
X80707Y-45665D01*
X80745Y-45665D01*
X80801Y-45684D01*
X80820Y-45703D01*
X80988Y-46059D02*
X80988Y-45665D01*
X81138Y-45665D01*
X81176Y-45684D01*
X81195Y-45703D01*
X81213Y-45740D01*
X81213Y-45796D01*
X81195Y-45834D01*
X81176Y-45853D01*
X81138Y-45871D01*
X80988Y-45871D01*
X81345Y-45665D02*
X81588Y-45665D01*
X81457Y-45815D01*
X81513Y-45815D01*
X81551Y-45834D01*
X81569Y-45853D01*
X81588Y-45890D01*
X81588Y-45984D01*
X81569Y-46021D01*
X81551Y-46040D01*
X81513Y-46059D01*
X81401Y-46059D01*
X81363Y-46040D01*
X81345Y-46021D01*
X81776Y-46059D02*
X81851Y-46059D01*
X81888Y-46040D01*
X81907Y-46021D01*
X81944Y-45965D01*
X81963Y-45890D01*
X81963Y-45740D01*
X81944Y-45703D01*
X81926Y-45684D01*
X81888Y-45665D01*
X81813Y-45665D01*
X81776Y-45684D01*
X81757Y-45703D01*
X81738Y-45740D01*
X81738Y-45834D01*
X81757Y-45871D01*
X81776Y-45890D01*
X81813Y-45909D01*
X81888Y-45909D01*
X81926Y-45890D01*
X81944Y-45871D01*
X81963Y-45834D01*
X82207Y-45665D02*
X82244Y-45665D01*
X82282Y-45684D01*
X82301Y-45703D01*
X82319Y-45740D01*
X82338Y-45815D01*
X82338Y-45909D01*
X82319Y-45984D01*
X82301Y-46021D01*
X82282Y-46040D01*
X82244Y-46059D01*
X82207Y-46059D01*
X82169Y-46040D01*
X82151Y-46021D01*
X82132Y-45984D01*
X82113Y-45909D01*
X82113Y-45815D01*
X82132Y-45740D01*
X82151Y-45703D01*
X82169Y-45684D01*
X82207Y-45665D01*
X82713Y-46059D02*
X82488Y-46059D01*
X82601Y-46059D02*
X82601Y-45665D01*
X82563Y-45721D01*
X82526Y-45759D01*
X82488Y-45778D01*
X76085Y-45458D02*
X76479Y-45196D01*
X76085Y-45196D02*
X76479Y-45458D01*
X76479Y-44840D02*
X76479Y-45065D01*
X76479Y-44952D02*
X76085Y-44952D01*
X76141Y-44990D01*
X76179Y-45027D01*
X76198Y-45065D01*
X97289Y-52070D02*
X96895Y-52070D01*
X96895Y-51920D01*
X96914Y-51883D01*
X96933Y-51864D01*
X96970Y-51845D01*
X97026Y-51845D01*
X97064Y-51864D01*
X97083Y-51883D01*
X97101Y-51920D01*
X97101Y-52070D01*
X97289Y-51470D02*
X97289Y-51695D01*
X97289Y-51583D02*
X96895Y-51583D01*
X96951Y-51620D01*
X96989Y-51658D01*
X97008Y-51695D01*
X99105Y-50286D02*
X99124Y-50305D01*
X99142Y-50361D01*
X99142Y-50399D01*
X99124Y-50455D01*
X99086Y-50492D01*
X99049Y-50511D01*
X98974Y-50530D01*
X98917Y-50530D01*
X98842Y-50511D01*
X98805Y-50492D01*
X98767Y-50455D01*
X98749Y-50399D01*
X98749Y-50361D01*
X98767Y-50305D01*
X98786Y-50286D01*
X98749Y-50042D02*
X98749Y-49967D01*
X98767Y-49930D01*
X98805Y-49892D01*
X98880Y-49874D01*
X99011Y-49874D01*
X99086Y-49892D01*
X99124Y-49930D01*
X99142Y-49967D01*
X99142Y-50042D01*
X99124Y-50080D01*
X99086Y-50117D01*
X99011Y-50136D01*
X98880Y-50136D01*
X98805Y-50117D01*
X98767Y-50080D01*
X98749Y-50042D01*
X99142Y-49705D02*
X98749Y-49705D01*
X99142Y-49480D01*
X98749Y-49480D01*
X99142Y-49293D02*
X98749Y-49293D01*
X99142Y-49068D01*
X98749Y-49068D01*
X99180Y-48974D02*
X99180Y-48674D01*
X98880Y-48411D02*
X99142Y-48411D01*
X98730Y-48505D02*
X99011Y-48599D01*
X99011Y-48355D01*
G54D15*
X74920Y-54879D02*
X74920Y-54486D01*
X75070Y-54486D01*
X75107Y-54504D01*
X75126Y-54523D01*
X75145Y-54561D01*
X75145Y-54617D01*
X75126Y-54654D01*
X75107Y-54673D01*
X75070Y-54692D01*
X74920Y-54692D01*
X75295Y-54523D02*
X75314Y-54504D01*
X75351Y-54486D01*
X75445Y-54486D01*
X75482Y-54504D01*
X75501Y-54523D01*
X75520Y-54561D01*
X75520Y-54598D01*
X75501Y-54654D01*
X75276Y-54879D01*
X75520Y-54879D01*
G54D16*
X85889Y-51419D02*
X85889Y-51025D01*
X85983Y-51025D01*
X86039Y-51044D01*
X86076Y-51081D01*
X86095Y-51119D01*
X86114Y-51194D01*
X86114Y-51250D01*
X86095Y-51325D01*
X86076Y-51363D01*
X86039Y-51400D01*
X85983Y-51419D01*
X85889Y-51419D01*
X86245Y-51025D02*
X86489Y-51025D01*
X86358Y-51175D01*
X86414Y-51175D01*
X86452Y-51194D01*
X86470Y-51213D01*
X86489Y-51250D01*
X86489Y-51344D01*
X86470Y-51381D01*
X86452Y-51400D01*
X86414Y-51419D01*
X86301Y-51419D01*
X86264Y-51400D01*
X86245Y-51381D01*
X93599Y-45639D02*
X93599Y-45245D01*
X93693Y-45245D01*
X93749Y-45264D01*
X93786Y-45301D01*
X93805Y-45339D01*
X93824Y-45414D01*
X93824Y-45470D01*
X93805Y-45545D01*
X93786Y-45583D01*
X93749Y-45620D01*
X93693Y-45639D01*
X93599Y-45639D01*
X94180Y-45245D02*
X93993Y-45245D01*
X93974Y-45433D01*
X93993Y-45414D01*
X94030Y-45395D01*
X94124Y-45395D01*
X94162Y-45414D01*
X94180Y-45433D01*
X94199Y-45470D01*
X94199Y-45564D01*
X94180Y-45601D01*
X94162Y-45620D01*
X94124Y-45639D01*
X94030Y-45639D01*
X93993Y-45620D01*
X93974Y-45601D01*
X93479Y-43449D02*
X93479Y-43055D01*
X93573Y-43055D01*
X93629Y-43074D01*
X93666Y-43111D01*
X93685Y-43149D01*
X93704Y-43224D01*
X93704Y-43280D01*
X93685Y-43355D01*
X93666Y-43393D01*
X93629Y-43430D01*
X93573Y-43449D01*
X93479Y-43449D01*
X94042Y-43186D02*
X94042Y-43449D01*
X93948Y-43036D02*
X93854Y-43318D01*
X94098Y-43318D01*
X74859Y-51659D02*
X74859Y-51265D01*
X74953Y-51265D01*
X75009Y-51284D01*
X75046Y-51321D01*
X75065Y-51359D01*
X75084Y-51434D01*
X75084Y-51490D01*
X75065Y-51565D01*
X75046Y-51603D01*
X75009Y-51640D01*
X74953Y-51659D01*
X74859Y-51659D01*
X75234Y-51303D02*
X75253Y-51284D01*
X75290Y-51265D01*
X75384Y-51265D01*
X75422Y-51284D01*
X75440Y-51303D01*
X75459Y-51340D01*
X75459Y-51378D01*
X75440Y-51434D01*
X75215Y-51659D01*
X75459Y-51659D01*
X77446Y-50173D02*
X77446Y-50360D01*
X77052Y-50360D01*
X77240Y-50041D02*
X77240Y-49910D01*
X77446Y-49854D02*
X77446Y-50041D01*
X77052Y-50041D01*
X77052Y-49854D01*
X77446Y-49685D02*
X77052Y-49685D01*
X77052Y-49591D01*
X77071Y-49535D01*
X77108Y-49497D01*
X77146Y-49479D01*
X77221Y-49460D01*
X77277Y-49460D01*
X77352Y-49479D01*
X77390Y-49497D01*
X77427Y-49535D01*
X77446Y-49591D01*
X77446Y-49685D01*
X93189Y-54569D02*
X93189Y-54175D01*
X93283Y-54175D01*
X93339Y-54194D01*
X93376Y-54231D01*
X93395Y-54269D01*
X93414Y-54344D01*
X93414Y-54400D01*
X93395Y-54475D01*
X93376Y-54513D01*
X93339Y-54550D01*
X93283Y-54569D01*
X93189Y-54569D01*
X93789Y-54569D02*
X93564Y-54569D01*
X93677Y-54569D02*
X93677Y-54175D01*
X93639Y-54231D01*
X93601Y-54269D01*
X93564Y-54288D01*
G54D10*
X73215Y-40296D02*
X73403Y-40296D01*
X73178Y-40409D02*
X73309Y-40015D01*
X73440Y-40409D01*
X73797Y-40409D02*
X73665Y-40221D01*
X73572Y-40409D02*
X73572Y-40015D01*
X73722Y-40015D01*
X73759Y-40034D01*
X73778Y-40053D01*
X73797Y-40090D01*
X73797Y-40146D01*
X73778Y-40184D01*
X73759Y-40203D01*
X73722Y-40221D01*
X73572Y-40221D01*
X73965Y-40409D02*
X73965Y-40015D01*
X74059Y-40015D01*
X74115Y-40034D01*
X74153Y-40071D01*
X74171Y-40109D01*
X74190Y-40184D01*
X74190Y-40240D01*
X74171Y-40315D01*
X74153Y-40353D01*
X74115Y-40390D01*
X74059Y-40409D01*
X73965Y-40409D01*
X74359Y-40015D02*
X74359Y-40334D01*
X74378Y-40371D01*
X74396Y-40390D01*
X74434Y-40409D01*
X74509Y-40409D01*
X74546Y-40390D01*
X74565Y-40371D01*
X74584Y-40334D01*
X74584Y-40015D01*
X74771Y-40409D02*
X74771Y-40015D01*
X74959Y-40409D02*
X74959Y-40015D01*
X75184Y-40409D01*
X75184Y-40015D01*
X75446Y-40015D02*
X75521Y-40015D01*
X75559Y-40034D01*
X75596Y-40071D01*
X75615Y-40146D01*
X75615Y-40278D01*
X75596Y-40353D01*
X75559Y-40390D01*
X75521Y-40409D01*
X75446Y-40409D01*
X75409Y-40390D01*
X75371Y-40353D01*
X75353Y-40278D01*
X75353Y-40146D01*
X75371Y-40071D01*
X75409Y-40034D01*
X75446Y-40015D01*
X75784Y-40409D02*
X75784Y-40015D01*
X75934Y-40015D01*
X75971Y-40034D01*
X75990Y-40053D01*
X76009Y-40090D01*
X76009Y-40146D01*
X75990Y-40184D01*
X75971Y-40203D01*
X75934Y-40221D01*
X75784Y-40221D01*
X76177Y-40409D02*
X76177Y-40015D01*
X76365Y-40409D02*
X76365Y-40015D01*
X76590Y-40409D01*
X76590Y-40015D01*
X76759Y-40390D02*
X76815Y-40409D01*
X76909Y-40409D01*
X76946Y-40390D01*
X76965Y-40371D01*
X76984Y-40334D01*
X76984Y-40296D01*
X76965Y-40259D01*
X76946Y-40240D01*
X76909Y-40221D01*
X76834Y-40203D01*
X76796Y-40184D01*
X76777Y-40165D01*
X76759Y-40128D01*
X76759Y-40090D01*
X76777Y-40053D01*
X76796Y-40034D01*
X76834Y-40015D01*
X76927Y-40015D01*
X76984Y-40034D01*
G54D17*
X90204Y-49274D02*
X90443Y-49274D01*
X90471Y-49260D01*
X90485Y-49246D01*
X90499Y-49218D01*
X90499Y-49162D01*
X90485Y-49134D01*
X90471Y-49120D01*
X90443Y-49106D01*
X90204Y-49106D01*
X90499Y-48811D02*
X90499Y-48979D01*
X90499Y-48895D02*
X90204Y-48895D01*
X90246Y-48923D01*
X90274Y-48951D01*
X90288Y-48979D01*
X90899Y-50005D02*
X90604Y-50005D01*
X90815Y-49906D01*
X90604Y-49808D01*
X90899Y-49808D01*
X90871Y-49499D02*
X90885Y-49513D01*
X90899Y-49555D01*
X90899Y-49583D01*
X90885Y-49625D01*
X90857Y-49654D01*
X90829Y-49668D01*
X90772Y-49682D01*
X90730Y-49682D01*
X90674Y-49668D01*
X90646Y-49654D01*
X90618Y-49625D01*
X90604Y-49583D01*
X90604Y-49555D01*
X90618Y-49513D01*
X90632Y-49499D01*
X90899Y-49373D02*
X90604Y-49373D01*
X90604Y-49260D01*
X90618Y-49232D01*
X90632Y-49218D01*
X90660Y-49204D01*
X90702Y-49204D01*
X90730Y-49218D01*
X90744Y-49232D01*
X90758Y-49260D01*
X90758Y-49373D01*
X90604Y-48951D02*
X90604Y-49007D01*
X90618Y-49035D01*
X90632Y-49049D01*
X90674Y-49078D01*
X90730Y-49092D01*
X90843Y-49092D01*
X90871Y-49078D01*
X90885Y-49064D01*
X90899Y-49035D01*
X90899Y-48979D01*
X90885Y-48951D01*
X90871Y-48937D01*
X90843Y-48923D01*
X90772Y-48923D01*
X90744Y-48937D01*
X90730Y-48951D01*
X90716Y-48979D01*
X90716Y-49035D01*
X90730Y-49064D01*
X90744Y-49078D01*
X90772Y-49092D01*
X90632Y-48811D02*
X90618Y-48797D01*
X90604Y-48769D01*
X90604Y-48698D01*
X90618Y-48670D01*
X90632Y-48656D01*
X90660Y-48642D01*
X90688Y-48642D01*
X90730Y-48656D01*
X90899Y-48825D01*
X90899Y-48642D01*
X90702Y-48389D02*
X90899Y-48389D01*
X90590Y-48459D02*
X90801Y-48530D01*
X90801Y-48347D01*
X90702Y-48108D02*
X90899Y-48108D01*
X90590Y-48179D02*
X90801Y-48249D01*
X90801Y-48066D01*
G54D18*
X85250Y-54308D02*
X85226Y-54346D01*
X85178Y-54384D01*
X85107Y-54441D01*
X85083Y-54479D01*
X85083Y-54517D01*
X85202Y-54498D02*
X85178Y-54536D01*
X85130Y-54574D01*
X85035Y-54593D01*
X84869Y-54593D01*
X84773Y-54574D01*
X84726Y-54536D01*
X84702Y-54498D01*
X84702Y-54422D01*
X84726Y-54384D01*
X84773Y-54346D01*
X84869Y-54327D01*
X85035Y-54327D01*
X85130Y-54346D01*
X85178Y-54384D01*
X85202Y-54422D01*
X85202Y-54498D01*
X85202Y-53946D02*
X85202Y-54174D01*
X85202Y-54060D02*
X84702Y-54060D01*
X84773Y-54098D01*
X84821Y-54136D01*
X84845Y-54174D01*
X87911Y-55250D02*
X87911Y-55022D01*
X88311Y-55136D02*
X87911Y-55136D01*
X88311Y-54889D02*
X87911Y-54889D01*
X88311Y-54698D02*
X87911Y-54698D01*
X87911Y-54546D01*
X87930Y-54508D01*
X87950Y-54489D01*
X87988Y-54470D01*
X88045Y-54470D01*
X88083Y-54489D01*
X88102Y-54508D01*
X88121Y-54546D01*
X88121Y-54698D01*
X88311Y-54089D02*
X88311Y-54317D01*
X88311Y-54203D02*
X87911Y-54203D01*
X87969Y-54241D01*
X88007Y-54279D01*
X88026Y-54317D01*
X87950Y-53936D02*
X87930Y-53917D01*
X87911Y-53879D01*
X87911Y-53784D01*
X87930Y-53746D01*
X87950Y-53727D01*
X87988Y-53708D01*
X88026Y-53708D01*
X88083Y-53727D01*
X88311Y-53955D01*
X88311Y-53708D01*
X87950Y-53555D02*
X87930Y-53536D01*
X87911Y-53498D01*
X87911Y-53403D01*
X87930Y-53365D01*
X87950Y-53346D01*
X87988Y-53327D01*
X88026Y-53327D01*
X88083Y-53346D01*
X88311Y-53574D01*
X88311Y-53327D01*
%LPC*%
G54D19*
X81810Y-48370D03*
X83110Y-48370D03*
G54D20*
X92660Y-48185D03*
X92660Y-47435D03*
G54D21*
X77455Y-52000D03*
X78205Y-52000D03*
G54D20*
X78210Y-48895D03*
X78210Y-48145D03*
G54D21*
X79505Y-48460D03*
X80255Y-48460D03*
X74445Y-46630D03*
X75195Y-46630D03*
X74595Y-43630D03*
X75345Y-43630D03*
X77445Y-51080D03*
X78195Y-51080D03*
G54D20*
X88590Y-44435D03*
X88590Y-43685D03*
G54D21*
X82485Y-46964D03*
X83235Y-46964D03*
G54D20*
X93790Y-49095D03*
X93790Y-49845D03*
X92620Y-49805D03*
X92620Y-49055D03*
X85550Y-49555D03*
X85550Y-50305D03*
X95030Y-48205D03*
X95030Y-47455D03*
X93840Y-48185D03*
X93840Y-47435D03*
X97370Y-44595D03*
X97370Y-45345D03*
X96090Y-47485D03*
X96090Y-48235D03*
X90600Y-44895D03*
X90600Y-45645D03*
X92460Y-45885D03*
X92460Y-45135D03*
X86720Y-46095D03*
X86720Y-46845D03*
G54D21*
X90275Y-46950D03*
X91025Y-46950D03*
G54D20*
X88100Y-46125D03*
X88100Y-46875D03*
X84390Y-49545D03*
X84390Y-50295D03*
G54D21*
X82845Y-41790D03*
X82095Y-41790D03*
X73510Y-49190D03*
X74260Y-49190D03*
G54D20*
X84290Y-41615D03*
X84290Y-42365D03*
X85720Y-41705D03*
X85720Y-42455D03*
X87160Y-41715D03*
X87160Y-42465D03*
X97420Y-56015D03*
X97420Y-55265D03*
G54D21*
X95375Y-41790D03*
X94625Y-41790D03*
X91475Y-41700D03*
X90725Y-41700D03*
G54D22*
X89340Y-41800D03*
X78210Y-41810D03*
X77060Y-41860D03*
X75810Y-41860D03*
X79560Y-41860D03*
X93390Y-41760D03*
X77370Y-55210D03*
X81030Y-49430D03*
X88750Y-57850D03*
X98200Y-46500D03*
X87500Y-57850D03*
X94010Y-55286D03*
X93500Y-44160D03*
X89030Y-46120D03*
X88270Y-47800D03*
X78770Y-55245D03*
G54D23*
X79575Y-46809D03*
X79831Y-46809D03*
X80087Y-46809D03*
X80343Y-46809D03*
X80599Y-46809D03*
X80855Y-46809D03*
X81111Y-46809D03*
X81366Y-46809D03*
X81622Y-46809D03*
X81878Y-46809D03*
X81859Y-43757D03*
X81603Y-43757D03*
X81347Y-43757D03*
X81091Y-43757D03*
X80835Y-43757D03*
X80579Y-43757D03*
X80323Y-43757D03*
X80067Y-43757D03*
X79811Y-43757D03*
X79555Y-43757D03*
G54D24*
X76876Y-46150D03*
X76876Y-44229D03*
G54D22*
X98038Y-52456D03*
X98038Y-51078D03*
X98038Y-49700D03*
X98038Y-48322D03*
X75400Y-53637D03*
X76407Y-53641D03*
G54D25*
X87370Y-50998D03*
X87370Y-49502D03*
G54D26*
X96288Y-46040D03*
X94792Y-46040D03*
X94712Y-43850D03*
X96208Y-43850D03*
G54D25*
X76185Y-50668D03*
X76185Y-49172D03*
G54D26*
X92652Y-53260D03*
X94148Y-53260D03*
G54D27*
X89150Y-40400D03*
X88150Y-40400D03*
X87150Y-40400D03*
X86150Y-40400D03*
X85150Y-40400D03*
X84150Y-40400D03*
X83150Y-40400D03*
X82150Y-40400D03*
X86750Y-59400D03*
X85750Y-59400D03*
X84750Y-59400D03*
X83750Y-59400D03*
X87750Y-59400D03*
X88750Y-59400D03*
X89750Y-59400D03*
X90750Y-59400D03*
X92750Y-59400D03*
X93750Y-59400D03*
X94750Y-59400D03*
X95750Y-59400D03*
X96750Y-59400D03*
X97750Y-59400D03*
X97750Y-40400D03*
X96750Y-40400D03*
X95750Y-40400D03*
X94750Y-40400D03*
X93750Y-40400D03*
X92750Y-40400D03*
X91750Y-40400D03*
X90750Y-40400D03*
G54D28*
X91480Y-50550D03*
X91480Y-50050D03*
X91480Y-49550D03*
X91480Y-49050D03*
X91480Y-48550D03*
X91480Y-48050D03*
X91480Y-47550D03*
X89280Y-47550D03*
X89280Y-48050D03*
X89280Y-48550D03*
X89280Y-49050D03*
X89280Y-49550D03*
X89280Y-50050D03*
X89280Y-50550D03*
G54D29*
X89100Y-55170D03*
G54D30*
X86600Y-54270D03*
G54D29*
X89100Y-53370D03*
M02*
